<svg width="40" height="40" viewBox="0 0 40 40" fill="none" xmlns="http://www.w3.org/2000/svg">
<g clip-path="url(#clip0_435_11352)">
<path d="M37.47 19.5774C36.7004 18.7938 35.7923 18.1655 34.7936 17.7256C35.466 17.238 36.0304 16.6122 36.4506 15.8886C36.8707 15.165 37.1372 14.3598 37.2327 13.5248C37.3282 12.6897 37.2507 11.8436 37.0052 11.041C36.7597 10.2385 36.3516 9.49719 35.8073 8.86526C35.2631 8.23323 34.5947 7.72454 33.8454 7.37205C33.0962 7.01956 32.2825 6.83104 31.4572 6.81864C30.632 6.8063 29.8133 6.97039 29.0542 7.30029C28.295 7.63029 27.6123 8.1187 27.05 8.73415C26.6608 7.12928 25.7551 5.70347 24.4772 4.6843C23.1993 3.66512 21.6231 3.11133 20 3.11133C18.3769 3.11133 16.8007 3.66512 15.5228 4.6843C14.2449 5.70347 13.3392 7.12928 12.95 8.73415C12.3878 8.11796 11.705 7.6288 10.9455 7.29835C10.1861 6.96789 9.36708 6.80339 8.54127 6.81554C7.71554 6.82771 6.90148 7.01622 6.15176 7.3689C5.40203 7.72167 4.73333 8.23073 4.1889 8.86313C3.64446 9.49561 3.23642 10.2374 2.99112 11.0406C2.74584 11.8437 2.66879 12.6904 2.76494 13.5258C2.8611 14.3612 3.12832 15.1667 3.54934 15.8903C3.97036 16.6139 4.5358 17.2395 5.20909 17.7265C3.66345 18.4088 2.34712 19.536 1.42174 20.9696C0.496345 22.4033 0.00220909 24.081 0 25.7967V29.9633C0.00144545 31.1907 0.4808 32.3673 1.33293 33.2353C2.18505 34.1031 3.34036 34.5914 4.54545 34.5928H10.9327C11.3526 35.1658 11.8976 35.6313 12.5246 35.9527C13.1516 36.2742 13.8435 36.4425 14.5454 36.4447H25.4545C26.1564 36.4425 26.8483 36.2742 27.4753 35.9527C28.1023 35.6313 28.6473 35.1658 29.0672 34.5928H35.4545C36.6596 34.5914 37.8149 34.1031 38.6671 33.2353C39.5191 32.3673 39.9985 31.1907 40 29.9633V25.7967C40.0031 24.6412 39.7811 23.4964 39.3468 22.4289C38.9125 21.3614 38.2746 20.3921 37.47 19.5774ZM31.3636 8.66748C32.1727 8.66748 32.9636 8.91183 33.6364 9.36969C34.3092 9.82746 34.8335 10.4782 35.1432 11.2396C35.4528 12.0009 35.5338 12.8387 35.3759 13.6469C35.2181 14.4551 34.8284 15.1975 34.2563 15.7803C33.6842 16.363 32.9552 16.7598 32.1617 16.9205C31.3682 17.0814 30.5456 16.9988 29.7981 16.6834C29.0506 16.3682 28.4117 15.8341 27.9622 15.1489C27.5126 14.4637 27.2727 13.6581 27.2727 12.8341C27.2739 11.7294 27.7053 10.6703 28.4723 9.88922C29.2392 9.10803 30.279 8.66869 31.3636 8.66748ZM26.4963 18.5321C25.6856 17.8221 24.7682 17.2494 23.7791 16.8358C24.5763 16.3388 25.2727 15.691 25.8309 14.9275C26.2438 16.0551 26.9783 17.0311 27.94 17.7303C27.4351 17.9506 26.9517 18.219 26.4963 18.5321ZM20 4.96385C21.0788 4.96385 22.1333 5.28967 23.0303 5.90011C23.9273 6.51055 24.6265 7.37816 25.0393 8.39332C25.4522 9.40839 25.5602 10.5254 25.3497 11.6031C25.1393 12.6807 24.6198 13.6706 23.8569 14.4475C23.0941 15.2245 22.1222 15.7536 21.0641 15.968C20.0061 16.1823 18.9093 16.0723 17.9126 15.6519C16.9159 15.2313 16.0641 14.5193 15.4647 13.6057C14.8654 12.6921 14.5454 11.6181 14.5454 10.5193C14.5469 9.04637 15.122 7.63417 16.1446 6.59262C17.1673 5.5511 18.5538 4.96532 20 4.96385ZM13.5036 18.5321C13.0483 18.219 12.5649 17.9506 12.06 17.7303C13.0217 17.0311 13.7562 16.0551 14.1691 14.9275C14.7273 15.691 15.4237 16.3388 16.2209 16.8358C15.2318 17.2494 14.3144 17.8221 13.5036 18.5321ZM4.54545 12.8341C4.54545 12.01 4.78538 11.2044 5.2349 10.5192C5.6844 9.83403 6.32332 9.29997 7.07083 8.98461C7.81836 8.66924 8.6409 8.58675 9.43445 8.74758C10.228 8.90831 10.9569 9.30516 11.5291 9.88783C12.1012 10.4705 12.4908 11.213 12.6486 12.0212C12.8065 12.8294 12.7255 13.6672 12.4159 14.4286C12.1063 15.1898 11.5819 15.8406 10.9092 16.2984C10.2364 16.7563 9.44545 17.0006 8.63636 17.0006C7.55172 16.9994 6.51191 16.56 5.74498 15.7789C4.97804 14.9978 4.54665 13.9388 4.54545 12.8341ZM4.54545 32.741C3.82213 32.741 3.12844 32.4484 2.61698 31.9274C2.10552 31.4065 1.81818 30.7 1.81818 29.9633V25.7967C1.81643 24.5608 2.13908 23.3467 2.75275 22.2803C3.36642 21.214 4.24878 20.3341 5.30849 19.7318C6.3682 19.1294 7.56672 18.8264 8.77999 18.8544C9.99327 18.8823 11.1772 19.2399 12.2091 19.8904C10.7787 21.6934 9.9989 23.9417 9.99999 26.2597V31.8151C9.99972 32.1261 10.0302 32.4363 10.0909 32.741H4.54545ZM28.1818 31.8151C28.1818 32.5518 27.8944 33.2583 27.383 33.7793C26.8715 34.3002 26.1778 34.5928 25.4545 34.5928H14.5454C13.8222 34.5928 13.1284 34.3002 12.617 33.7793C12.1055 33.2583 11.8182 32.5518 11.8182 31.8151V26.2597C11.8182 24.0496 12.6802 21.9301 14.2145 20.3672C15.749 18.8045 17.8301 17.9265 20 17.9265C22.1699 17.9265 24.251 18.8045 25.7854 20.3672C27.3198 21.9301 28.1818 24.0496 28.1818 26.2597V31.8151ZM38.1818 29.9633C38.1818 30.7 37.8944 31.4065 37.383 31.9274C36.8715 32.4484 36.1778 32.741 35.4545 32.741H29.9091C29.9698 32.4363 30.0002 32.1261 30 31.8151V26.2597C30.0011 23.9417 29.2213 21.6934 27.7909 19.8904C28.8231 19.2415 30.0067 18.8851 31.2194 18.8579C32.4321 18.8308 33.63 19.1339 34.6892 19.736C35.7483 20.3381 36.6305 21.2172 37.2445 22.2827C37.8585 23.3482 38.1821 24.5613 38.1818 25.7967V29.9633Z" fill="#F2B705" stroke="#FCFCFC"/>
</g>
<defs>
<clipPath id="clip0_435_11352">
<rect width="40" height="40" fill="white"/>
</clipPath>
</defs>
</svg>
