<svg width="230" height="230" viewBox="0 0 230 230" fill="none" xmlns="http://www.w3.org/2000/svg">
<path d="M163.3 160.608L125.209 122.969L117.666 130.602L155.758 168.242L163.3 160.608Z" fill="#003916"/>
<path d="M177.852 170.722L148.217 141.439C148.052 141.276 147.786 141.277 147.623 141.442L136.406 152.794C136.243 152.959 136.245 153.225 136.41 153.388L166.045 182.671C166.21 182.834 166.476 182.833 166.639 182.668L177.855 171.316C178.018 171.151 178.017 170.885 177.852 170.722Z" fill="#004E1E"/>
<path d="M91.4495 141.899C117.655 141.899 138.899 120.655 138.899 94.4495C138.899 68.2439 117.655 47 91.4495 47C65.2439 47 44 68.2439 44 94.4495C44 120.655 65.2439 141.899 91.4495 141.899Z" fill="#004E1E"/>
<path d="M91.4494 134.157C113.379 134.157 131.157 116.38 131.157 94.4499C131.157 72.5202 113.379 54.7427 91.4494 54.7427C69.5197 54.7427 51.7422 72.5202 51.7422 94.4499C51.7422 116.38 69.5197 134.157 91.4494 134.157Z" fill="#DEEBFF"/>
</svg>
