<svg width="26" height="26" viewBox="0 0 26 26" fill="none" xmlns="http://www.w3.org/2000/svg">
<rect x="1" y="1" width="24" height="24" rx="5" stroke="#858585"/>
<path d="M18.9398 12.6111C19.1117 13.7703 18.9137 14.9542 18.3739 15.9944C17.8342 17.0346 16.9802 17.8781 15.9335 18.405C14.8867 18.9318 13.7005 19.1152 12.5435 18.929C11.3865 18.7428 10.3177 18.1966 9.48902 17.368C8.66038 16.5393 8.11412 15.4705 7.92794 14.3135C7.74177 13.1565 7.92515 11.9703 8.45202 10.9235C8.97888 9.87675 9.82239 9.02277 10.8626 8.48304C11.9028 7.94331 13.0866 7.74531 14.2458 7.9172C15.4283 8.09254 16.523 8.64353 17.3682 9.48877C18.2134 10.334 18.7644 11.4287 18.9398 12.6111Z" stroke="#858585" stroke-linecap="round" stroke-linejoin="round"/>
<path d="M21.5575 5.52583C21.5972 5.79334 21.5515 6.06654 21.4269 6.30659C21.3024 6.54663 21.1053 6.74128 20.8638 6.86287C20.6222 6.98445 20.3485 7.02677 20.0815 6.98381C19.8145 6.94085 19.5678 6.81479 19.3766 6.62356C19.1854 6.43234 19.0593 6.18568 19.0163 5.91869C18.9734 5.65169 19.0157 5.37794 19.1373 5.13638C19.2589 4.89482 19.4535 4.69775 19.6936 4.5732C19.9336 4.44864 20.2068 4.40295 20.4743 4.44262C20.7472 4.48308 20.9998 4.61023 21.1949 4.80529C21.3899 5.00035 21.5171 5.25296 21.5575 5.52583Z" stroke="#858585" stroke-linecap="round" stroke-linejoin="round"/>
</svg>
