<svg width="28" height="28" viewBox="0 0 28 28" fill="none" xmlns="http://www.w3.org/2000/svg">
<path d="M20.1333 27.3332C19.97 27.3332 19.8067 27.3265 19.6427 27.3145C16.9462 27.1088 14.3645 26.1374 12.2013 24.5145C8.89854 22.0373 5.96474 19.1031 3.48801 15.7999C1.86494 13.6367 0.893502 11.0551 0.688009 8.35854C0.616942 7.44294 0.745096 6.52288 1.06366 5.66154C1.38222 4.80028 1.88362 4.0182 2.53334 3.36922L4.20401 1.69655C4.86381 1.0379 5.75801 0.667969 6.69034 0.667969C7.62267 0.667969 8.51687 1.0379 9.17667 1.69655L10.6873 3.20788C11.0139 3.53438 11.2729 3.922 11.4496 4.3486C11.6263 4.77521 11.7173 5.23248 11.7173 5.69421C11.7173 6.15594 11.6263 6.61321 11.4496 7.03981C11.2729 7.46641 11.0139 7.85407 10.6873 8.18054L9.82068 9.04721C9.46474 9.40461 9.24321 9.87401 9.19354 10.3759C9.14388 10.8779 9.26908 11.3816 9.54801 11.8019C11.3021 14.4379 13.5634 16.6985 16.2 18.4519C16.6204 18.7303 17.124 18.8553 17.6259 18.8055C18.1277 18.7559 18.597 18.5347 18.9547 18.1792L19.8213 17.3125C20.1478 16.986 20.5355 16.727 20.9621 16.5503C21.3887 16.3735 21.8459 16.2826 22.3077 16.2826C22.7694 16.2826 23.2267 16.3735 23.6533 16.5503C24.0799 16.727 24.4675 16.986 24.794 17.3125L26.3053 18.8232C26.6319 19.1497 26.8909 19.5373 27.0676 19.9639C27.2443 20.3905 27.3353 20.8478 27.3353 21.3095C27.3353 21.7713 27.2443 22.2285 27.0676 22.6551C26.8909 23.0817 26.6319 23.4694 26.3053 23.7959L24.6307 25.4665C24.0405 26.0579 23.3395 26.5272 22.5678 26.8475C21.7961 27.1678 20.9689 27.3329 20.1333 27.3332ZM6.69001 1.99988C6.40341 1.99952 6.11947 2.05574 5.85467 2.16534C5.58981 2.27494 5.34921 2.43575 5.14668 2.63855L3.47401 4.31188C2.96038 4.82501 2.56398 5.44334 2.31206 6.12427C2.06014 6.80521 1.95869 7.53268 2.01468 8.25654C2.20189 10.7002 3.08286 13.0397 4.55401 14.9999C6.95514 18.201 9.79887 21.0447 13 23.4459C14.9601 24.9173 17.2996 25.7983 19.7433 25.9852C20.4671 26.0403 21.1943 25.9383 21.8751 25.6865C22.5559 25.4347 23.1743 25.0387 23.688 24.5259L25.3607 22.8532C25.77 22.4437 25.9999 21.8885 25.9999 21.3095C25.9999 20.7306 25.77 20.1753 25.3607 19.7659L23.8493 18.2552C23.4337 17.8579 22.8809 17.6361 22.306 17.6361C21.7311 17.6361 21.1783 17.8579 20.7627 18.2552L19.896 19.1219C19.3203 19.695 18.5643 20.0517 17.7559 20.1317C16.9475 20.2118 16.1363 20.0103 15.4593 19.5612C12.6767 17.7102 10.2903 15.3239 8.43934 12.5412C7.99014 11.8643 7.78854 11.053 7.86861 10.2446C7.94868 9.43621 8.30548 8.68021 8.87868 8.10454L9.74534 7.23788C10.1547 6.82854 10.3846 6.27341 10.3846 5.69454C10.3846 5.11567 10.1547 4.56053 9.74534 4.15122L8.23401 2.63922C8.03141 2.43628 7.79068 2.27534 7.52574 2.16562C7.26081 2.05591 6.97681 1.99958 6.69001 1.99988Z" fill="#F2B705"/>
</svg>
