<svg width="40" height="40" viewBox="0 0 40 40" fill="none" xmlns="http://www.w3.org/2000/svg">
<g clip-path="url(#clip0_435_11265)">
<path d="M36.4583 3.85735C35.9063 3.20829 35.1014 2.83618 34.2499 2.83618H31.4551V1.96196C31.4551 0.880158 30.5749 0 29.4932 0H10.5406C9.45876 0 8.57875 0.880158 8.57875 1.96188V2.8361H5.78367C4.93218 2.8361 4.12718 3.20829 3.57531 3.85727C3.02906 4.49954 2.79296 5.34314 2.92773 6.17165C3.6621 10.6873 6.50391 14.6766 10.5371 16.8648C10.9056 17.7508 11.323 18.59 11.7877 19.3719C13.2723 21.87 15.1178 23.5964 17.1492 24.4313C17.3551 26.5129 15.97 28.4848 13.8841 28.9547C13.8796 28.9558 13.8765 28.9573 13.8721 28.9583C13.465 29.0556 13.162 29.4209 13.162 29.8578V34.1049H11.4443C9.9129 34.1049 8.66704 35.3508 8.66704 36.8822V39.0742C8.66704 39.5855 9.08149 40 9.59282 40H30.5293C31.0407 40 31.4551 39.5855 31.4551 39.0742V36.8822C31.4551 35.3508 30.2093 34.1049 28.6779 34.1049H26.96V29.8579C26.96 29.4201 26.6559 29.0543 26.2477 28.9579C26.2439 28.9569 26.2402 28.9557 26.2364 28.9547C24.1346 28.4817 22.747 26.4899 22.9745 24.3927C24.9704 23.5443 26.7836 21.8332 28.2463 19.3721C28.7111 18.5901 29.1283 17.7508 29.4969 16.8646C33.5299 14.6764 36.3715 10.6871 37.1059 6.17165C37.2407 5.34314 37.0046 4.49962 36.4583 3.85735ZM4.75523 5.87439C4.70711 5.57853 4.7889 5.28814 4.98562 5.05673C5.18523 4.82204 5.47601 4.68751 5.78359 4.68751H8.57868V6.39079C8.57868 9.06158 8.91954 11.6486 9.56555 14.0145C7.0268 12.0083 5.27883 9.094 4.75523 5.87439ZM28.6779 35.9566C29.1883 35.9566 29.6036 36.3719 29.6036 36.8823V38.1486H10.5185V36.8823C10.5185 36.3719 10.9338 35.9566 11.4443 35.9566H28.6779ZM25.1085 30.7837V34.105H15.0137V30.7837H25.1085ZM17.4416 28.9322C17.6704 28.6803 17.8796 28.4072 18.0667 28.115C18.6837 27.151 19.0075 26.0558 19.0221 24.9373C19.3509 24.9821 19.6828 25.0061 20.0174 25.0061C20.3816 25.0061 20.7424 24.9781 21.0996 24.9251C21.1207 26.4282 21.7057 27.8509 22.6894 28.9321L17.4416 28.9322ZM29.6035 6.39087C29.6035 10.9517 28.5561 15.226 26.6545 18.426C24.8426 21.4752 22.4854 23.1545 20.0173 23.1545C17.5488 23.1545 15.1914 21.4753 13.3793 18.4261C11.4776 15.226 10.4302 10.9518 10.4302 6.39103V1.96188C10.4302 1.90094 10.4798 1.85149 10.5406 1.85149H29.493C29.554 1.85149 29.6035 1.90102 29.6035 1.96188V6.39087ZM35.2784 5.87439C34.7548 9.09377 33.007 12.008 30.4683 14.0143C31.1143 11.6485 31.4551 9.06158 31.4551 6.39087V4.68759H34.2499C34.5576 4.68759 34.8483 4.8222 35.0479 5.05681C35.2446 5.28814 35.3265 5.57853 35.2784 5.87439Z" fill="#F2B705" stroke="#FCFCFC"/>
<path d="M25.6205 9.50427C25.5115 9.16926 25.2218 8.92505 24.8731 8.87426L22.0795 8.46833L20.8302 5.93692C20.6742 5.62098 20.3524 5.4209 20.0001 5.4209C19.6476 5.4209 19.3258 5.62098 19.1699 5.93692L17.9206 8.46833L15.127 8.87426C14.7782 8.92489 14.4886 9.16919 14.3797 9.50434C14.2708 9.83958 14.3616 10.2074 14.614 10.4534L16.6354 12.4238L16.1582 15.2061C16.0986 15.5534 16.2413 15.9044 16.5265 16.1115C16.8115 16.3187 17.1895 16.3459 17.5014 16.182L20.0001 14.8685L22.4986 16.182C22.6341 16.2532 22.782 16.2883 22.9293 16.2883C23.1211 16.2883 23.3122 16.2287 23.4735 16.1115C23.7587 15.9043 23.9014 15.5533 23.8418 15.206L23.3645 12.4237L25.386 10.4533C25.6385 10.2074 25.7293 9.8395 25.6205 9.50427ZM21.7238 11.4376C21.5056 11.6503 21.406 11.9567 21.4576 12.2571L21.6999 13.6704L20.4308 13.0031C20.296 12.9322 20.1479 12.8968 20 12.8968C19.852 12.8968 19.704 12.9323 19.5692 13.0031L18.3 13.6704L18.5424 12.2571C18.594 11.9568 18.4943 11.6504 18.2761 11.4376L17.2495 10.4368L18.6684 10.2306C18.9699 10.1868 19.2306 9.99739 19.3654 9.72419L20.0001 8.4384L20.6346 9.72419C20.7695 9.99739 21.0301 10.1868 21.3316 10.2306L22.7505 10.4368L21.7238 11.4376Z" fill="#F2B705" stroke="#FCFCFC"/>
</g>
<defs>
<clipPath id="clip0_435_11265">
<rect width="40" height="40" fill="white"/>
</clipPath>
</defs>
</svg>
