<svg width="40" height="40" viewBox="0 0 40 40" fill="none" xmlns="http://www.w3.org/2000/svg">
<path d="M12.4091 4.32302V4.82302H12.9091H26.6465H27.1465V4.32302V2.60584C27.1465 1.93362 27.6914 1.38867 28.3637 1.38867C29.0359 1.38867 29.5808 1.93362 29.5808 2.60584V4.32302V4.82302H30.0808H33.5152C36.0842 4.82302 38.1667 6.90557 38.1667 9.47453V33.5149C38.1667 36.084 36.0842 38.1665 33.5152 38.1665H6.04043C3.47147 38.1665 1.38892 36.084 1.38892 33.5149V9.47453C1.38892 6.90558 3.47148 4.82302 6.04043 4.82302H9.47477H9.97477V4.32302V2.60584C9.97477 1.93363 10.5197 1.38867 11.1919 1.38867C11.8642 1.38867 12.4091 1.93363 12.4091 2.60584V4.32302ZM3.82326 12.9089V13.4089H4.32326H35.2323H35.7323V12.9089V9.47453C35.7323 8.25004 34.7397 7.25736 33.5152 7.25736H6.04043C4.81593 7.25736 3.82326 8.25001 3.82326 9.47453V12.9089ZM35.7323 16.3432V15.8432H35.2323H4.32326H3.82326V16.3432V33.5149C3.82326 34.7395 4.81594 35.7321 6.04043 35.7321H33.5152C34.7397 35.7321 35.7323 34.7395 35.7323 33.5149V16.3432Z" fill="#F2B705" stroke="#FCFCFC"/>
</svg>
