<svg width="40" height="25" viewBox="0 0 40 25" fill="none" xmlns="http://www.w3.org/2000/svg">
<g clip-path="url(#clip0_1243_3121)">
<path d="M-0.000230224 14.8646C-0.000230224 19.6191 3.93869 23.436 8.74759 23.436C9.37842 23.4364 10.0074 23.3691 10.6234 23.2354C10.7544 23.208 10.89 23.2092 11.0204 23.2389C11.1509 23.2686 11.2732 23.3261 11.3787 23.4073C12.6757 24.3904 14.4773 25 16.469 25C18.5064 25 20.3446 24.3624 21.6473 23.3393C21.7941 23.2241 21.9738 23.1568 22.1613 23.1467C22.3489 23.1367 22.5349 23.1843 22.6936 23.2831C24.4934 24.4077 26.582 25.0034 28.7139 25C34.9477 25 40.0021 20.0045 40.0021 13.8421C40.0021 7.67977 34.9454 2.68427 28.7139 2.68427C26.9372 2.68176 25.1853 3.0952 23.603 3.89045C23.3879 3.99805 23.1383 4.0175 22.9086 3.94456C22.679 3.87161 22.488 3.71219 22.3774 3.50112C21.2882 1.42753 19.0059 0 16.3663 0C12.9725 0 10.1479 2.35955 9.71234 5.41573C9.68248 5.63041 9.57483 5.82724 9.40921 5.97001C9.24358 6.11277 9.03113 6.19185 8.81096 6.1927C7.56363 6.19719 5.14091 6.47865 2.96823 8.32753C-0.0321983 10.8787 -0.000230224 13.8764 -0.000230224 14.8646ZM16.8053 22.7298H16.6757C16.2972 22.7298 15.9342 22.5818 15.6665 22.3184C15.3989 22.055 15.2485 21.6978 15.2485 21.3253V12.3798C15.2485 12.0073 15.3989 11.65 15.6665 11.3866C15.9342 11.1233 16.2972 10.9753 16.6757 10.9753H16.8053C17.1838 10.9753 17.5468 11.1233 17.8144 11.3866C18.082 11.65 18.2324 12.0073 18.2324 12.3798V21.327C18.2324 21.6995 18.082 22.0567 17.8144 22.3201C17.5468 22.5835 17.1838 22.7315 16.8053 22.7315V22.7298ZM18.092 9.40169C17.9215 9.57985 17.7153 9.72126 17.4865 9.817C17.2576 9.91273 17.0111 9.9607 16.7624 9.95786C16.5087 9.96133 16.2569 9.91272 16.0233 9.81512C15.7897 9.71752 15.5793 9.57308 15.4055 9.39101C15.2227 9.21057 15.0786 8.99578 14.9818 8.75942C14.885 8.52306 14.8375 8.26996 14.8421 8.01517C14.8383 7.76784 14.8857 7.52234 14.9816 7.2937C15.0775 7.06505 15.2198 6.85806 15.3998 6.68539C15.5754 6.50993 15.785 6.37079 16.016 6.27614C16.2471 6.18149 16.495 6.13324 16.7453 6.13424C16.9956 6.13523 17.2431 6.18545 17.4734 6.28193C17.7037 6.37841 17.9121 6.51921 18.0863 6.69607C18.2683 6.87409 18.4118 7.0865 18.5082 7.32053C18.6047 7.55456 18.652 7.80536 18.6474 8.05786C18.652 8.30743 18.6051 8.55532 18.5096 8.78657C18.4142 9.01783 18.2721 9.22765 18.092 9.40337V9.40169ZM33.3544 22.1657C32.0049 22.7923 30.4978 23.1054 28.8332 23.1051C25.6672 23.1051 23.1697 22.0534 21.3407 19.95C19.8074 18.1747 19.0407 16.0307 19.0407 13.518C19.0407 10.8745 19.9695 8.65075 21.8271 6.84663C23.6847 5.04251 26.0119 4.14026 28.8087 4.13989C30.4977 4.13989 32.023 4.47322 33.3847 5.13989C34.4245 5.64356 35.3551 6.34111 36.1248 7.19382C36.2079 7.28563 36.2711 7.39325 36.3103 7.51004C36.3495 7.62682 36.3639 7.75027 36.3526 7.87276C36.3414 7.99525 36.3047 8.11417 36.2449 8.22215C36.1851 8.33014 36.1034 8.4249 36.0049 8.50056L35.9981 8.50618C35.8181 8.64435 35.592 8.71088 35.3645 8.69256C35.137 8.67424 34.9249 8.57242 34.7701 8.4073C34.1184 7.70425 33.3374 7.12879 32.4684 6.71124C31.3648 6.18389 30.153 5.92004 28.8332 5.91966C27.4266 5.91024 26.0426 6.26809 24.8224 6.95674C23.5924 7.64813 22.639 8.57697 21.9624 9.74326C21.2857 10.9095 20.9474 12.2204 20.9474 13.6758C20.9474 15.8773 21.704 17.7146 23.2171 19.1876C24.7303 20.6607 26.6387 21.3983 28.9423 21.4006C31.2173 21.4006 33.1582 20.6022 34.765 19.0056C34.9215 18.8519 35.1297 18.7597 35.3504 18.7462C35.5711 18.7328 35.7892 18.799 35.9638 18.9326C36.0654 19.0097 36.1493 19.1069 36.2101 19.2181C36.2709 19.3292 36.3073 19.4517 36.3168 19.5775C36.3263 19.7034 36.3088 19.8298 36.2654 19.9486C36.222 20.0674 36.1537 20.1758 36.0648 20.2669C35.2868 21.0579 34.3682 21.702 33.3544 22.1674V22.1657Z" fill="#777777"/>
</g>
<defs>
<clipPath id="clip0_1243_3121">
<rect width="40" height="25" fill="white"/>
</clipPath>
</defs>
</svg>
