<svg width="30" height="20" viewBox="0 0 30 20" fill="none" xmlns="http://www.w3.org/2000/svg">
<path d="M28.7596 0.0800781H1.23961C0.887609 0.0800781 0.599609 0.368078 0.599609 0.720078V19.2801C0.599609 19.2801 0.599609 19.2801 0.599609 19.3121C0.599609 19.3441 0.599609 19.3441 0.599609 19.3761C0.599609 19.4081 0.599609 19.4081 0.599609 19.4401C0.599609 19.4721 0.599609 19.4721 0.631609 19.5041C0.631609 19.5361 0.631609 19.5361 0.663609 19.5681C0.663609 19.6001 0.695609 19.6001 0.695609 19.6321C0.695609 19.6641 0.727609 19.6641 0.727609 19.6961C0.727609 19.6961 0.727609 19.6961 0.727609 19.7281C0.727609 19.7281 0.727609 19.7281 0.759609 19.7601L0.791609 19.7921L0.823609 19.8241C0.823609 19.8241 0.855609 19.8561 0.887609 19.8561C0.919609 19.8561 0.919609 19.8881 0.951609 19.8881C0.983609 19.8881 0.983609 19.9201 1.01561 19.9201C1.04761 19.9201 1.04761 19.9201 1.07961 19.9521C1.11161 19.9521 1.11161 19.9521 1.14361 19.9521C1.17561 19.9521 1.17561 19.9521 1.20761 19.9521H1.23961H28.7596C28.8236 19.9521 28.8556 19.9521 28.8876 19.9521H28.9196C28.9516 19.9521 28.9836 19.9201 29.0156 19.9201L29.0476 19.8881C29.0796 19.8881 29.1116 19.8561 29.1116 19.8241L29.1436 19.7921C29.1756 19.7601 29.1756 19.7601 29.2076 19.7281L29.2396 19.6961C29.2396 19.6961 29.2396 19.6961 29.2396 19.6641C29.2396 19.6321 29.2716 19.6321 29.2716 19.6001C29.2716 19.6001 29.3036 19.5681 29.3036 19.5361C29.3036 19.5041 29.3036 19.5041 29.3356 19.4721C29.3676 19.4401 29.3356 19.4401 29.3676 19.4081C29.3676 19.3761 29.3676 19.3761 29.3676 19.3441C29.3676 19.3121 29.3676 19.3121 29.3676 19.2801C29.3676 19.2801 29.3676 19.2801 29.3676 19.2481V0.720078C29.3996 0.368078 29.1116 0.0800781 28.7596 0.0800781ZM1.87961 4.27208L10.5196 11.1201L1.87961 17.9681V4.27208ZM3.09561 18.6401L11.5756 11.9201L14.6156 14.3201C14.7436 14.4161 14.8716 14.4481 14.9996 14.4481C15.1276 14.4481 15.2876 14.4161 15.3836 14.3201L18.4236 11.9201L26.9036 18.6401H3.09561ZM28.1196 17.9681L19.4796 11.1201L28.1196 4.27208V17.9681ZM28.1196 2.64008L27.7356 2.96008L14.9996 13.0401L2.26361 2.96008L1.87961 2.64008V1.36008H28.1196V2.64008Z" fill="#F2B705"/>
</svg>
