<svg width="187" height="50" viewBox="0 0 187 50" fill="none" xmlns="http://www.w3.org/2000/svg">
<path d="M158.641 44.2437H185.982" stroke="black" stroke-width="0.689655"/>
<path d="M0 44.2437L129.404 44.2437" stroke="black" stroke-width="0.689655"/>
<path d="M178.58 9.25533C178.506 8.55458 178.396 8.25952 178.137 8.25952C177.879 8.25952 177.732 8.51769 177.584 8.84963L166.741 32.0114L155.455 8.81275C155.271 8.40705 155.123 8.25952 154.902 8.25952C154.681 8.25952 154.533 8.51769 154.496 8.9234L151.841 32.9703C151.693 34.3718 151.583 35.8102 150.366 36.0315C149.812 36.1422 149.554 36.1422 149.259 36.1422C149.075 36.1422 148.89 36.2159 148.89 36.3266C148.89 36.5847 149.148 36.6585 149.517 36.6585C150.513 36.6585 152.283 36.5479 152.615 36.5479C152.91 36.5479 154.681 36.6585 156.045 36.6585C156.488 36.6585 156.709 36.5847 156.709 36.3266C156.709 36.2159 156.562 36.1422 156.414 36.1422C156.193 36.1422 155.64 36.1053 155.013 35.9577C154.459 35.8471 154.054 35.3676 154.054 34.8144C154.054 34.1874 154.054 33.5235 154.091 32.9334L155.566 15.8203H155.713C156.119 16.8161 160.25 25.6677 160.582 26.3316C160.766 26.7004 163.938 33.081 164.897 34.8882C165.598 36.2159 165.782 36.5847 166.04 36.5847C166.372 36.5847 166.483 36.2528 167.257 34.63L176.293 15.4515H176.404L178.174 34.5931C178.248 35.257 178.211 35.884 178.027 35.9209C177.842 35.9577 177.769 36.0315 177.769 36.179C177.769 36.3634 177.953 36.4741 178.801 36.5479C180.166 36.6585 184.149 36.6954 184.961 36.6954C185.403 36.6954 185.735 36.5847 185.735 36.3634C185.735 36.2159 185.624 36.179 185.44 36.179C185.071 36.179 184.112 36.179 183.043 35.8471C181.457 35.3308 181.199 33.2654 181.051 31.9376L178.58 9.25533Z" fill="black"/>
<path d="M144.764 47.9088C145.378 48.0101 146.002 48.0498 146.633 48.0498C150.879 48.0498 152.717 46.6398 154.589 45.5912C154.775 45.4864 154.589 45.5912 154.589 45.5912C144.789 50.5789 136.802 42.7598 135.555 41.4308C134.6 40.4174 131.721 40.4567 131.721 40.4567C135.753 44.1362 138.985 46.1772 142.018 47.2001C142.019 47.1997 143.781 47.7478 144.764 47.9088Z" fill="#FFCB00"/>
<path d="M134.171 38.36C127.437 38.36 120.464 32.9042 120.464 22.3737C120.464 13.69 125.72 8.56777 132.834 8.56777C139.567 8.56777 146.539 13.9767 146.539 24.5567C146.539 33.2401 141.239 38.36 134.171 38.36ZM154.467 44.4332C153.082 45.0477 151.41 45.3836 149.406 45.3836C145.776 45.3836 141.144 42.7277 137.228 38.9307C145.106 36.9873 150.36 29.6325 150.36 22.9428C150.36 14.8759 143.674 7.47607 133.931 7.47607C123.759 7.47607 116.642 16.1584 116.642 23.9385C116.642 31.9559 123.139 39.2629 132.739 39.4533C132.739 39.4533 135.08 39.4117 136.034 40.4271C137.283 41.755 145.223 49.7473 154.516 45.0053C154.756 44.863 154.562 44.3851 154.467 44.4332Z" fill="#008F35"/>
<path d="M61.5904 32.6015C60.9266 34.4456 60.1889 35.8471 58.4924 36.0684C58.1973 36.1053 57.681 36.1422 57.4228 36.1422C57.2384 36.1422 57.0909 36.2159 57.0909 36.3634C57.0909 36.5847 57.3122 36.6585 57.7916 36.6585C59.5251 36.6585 61.5536 36.5479 61.9593 36.5479C62.365 36.5479 63.9509 36.6585 64.836 36.6585C65.168 36.6585 65.3893 36.5847 65.3893 36.3634C65.3893 36.2159 65.2786 36.1422 65.0204 36.1422H64.6516C64.0246 36.1422 63.2501 35.8102 63.2501 35.0726C63.2501 34.4087 63.4345 33.5235 63.7665 32.6015L65.9794 26.0734C66.0531 25.889 66.1638 25.7784 66.3482 25.7784H74.2778C74.4622 25.7784 74.5359 25.8521 74.6097 25.9997L78.0397 35.0726C78.261 35.6627 78.0397 35.9946 77.8184 36.0684C77.6709 36.1053 77.5603 36.179 77.5603 36.3266C77.5603 36.5479 77.966 36.5479 78.6667 36.5847C81.2115 36.6585 83.9039 36.6585 84.4571 36.6585C84.8628 36.6585 85.1948 36.5847 85.1948 36.3634C85.1948 36.179 85.0473 36.1422 84.826 36.1422C84.4571 36.1422 83.9039 36.1053 83.3507 35.9209C82.5762 35.6996 81.5066 35.1095 80.1789 31.827C77.9291 26.221 72.1386 10.9888 71.5854 9.58727C71.1428 8.44393 70.9953 8.25952 70.774 8.25952C70.5527 8.25952 70.4052 8.48081 69.9626 9.69791L61.5904 32.6015ZM66.7539 24.4506C66.6432 24.4506 66.5695 24.3769 66.6432 24.1925L69.8888 14.2344C70.0732 13.6811 70.2577 13.6811 70.4421 14.2344L73.9458 24.1925C73.9827 24.34 73.9827 24.4506 73.7983 24.4506H66.7539ZM90.9924 13.9762C92.1726 15.3039 96.3403 19.951 100.619 24.5613C104.528 28.7658 109.839 34.1874 110.245 34.5562C112.199 36.511 112.642 36.9167 112.937 36.9167C113.195 36.9167 113.269 36.7323 113.269 34.2981L113.343 12.6853C113.343 10.4724 113.49 9.66103 114.707 9.40286C115.15 9.29221 115.408 9.29221 115.593 9.29221C115.851 9.29221 115.998 9.18157 115.998 9.03404C115.998 8.81275 115.74 8.77587 115.334 8.77587C113.822 8.77587 112.605 8.88651 112.199 8.88651C111.794 8.88651 110.023 8.77587 108.364 8.77587C107.921 8.77587 107.626 8.81275 107.626 9.03404C107.626 9.18157 107.663 9.29221 107.921 9.29221C108.216 9.29221 109.064 9.32909 109.728 9.47662C110.872 9.77168 111.13 10.5831 111.167 12.9804L111.572 31.7163C110.392 30.4992 106.372 25.9997 102.721 22.0902C97.041 16.0047 91.5457 10.0667 90.9924 9.43974C90.6236 9.07092 89.9966 8.25952 89.7016 8.25952C89.4065 8.25952 89.2959 8.66522 89.2959 10.1036L89.259 31.2369C89.259 34.5931 89.0746 35.6627 88.1525 35.9209C87.5993 36.1053 86.9354 36.1422 86.6404 36.1422C86.456 36.1422 86.3453 36.2159 86.3453 36.3634C86.3453 36.6216 86.5666 36.6585 86.9354 36.6585C88.5951 36.6585 90.1441 36.5479 90.4761 36.5479C90.808 36.5479 92.2833 36.6585 94.3855 36.6585C94.8281 36.6585 95.0494 36.5847 95.0494 36.3634C95.0494 36.2159 94.9388 36.1422 94.7544 36.1422C94.4224 36.1422 93.611 36.1053 92.9103 35.9209C91.9145 35.6258 91.5457 34.6669 91.4719 31.6426L90.9924 13.9762Z" fill="black"/>
<path d="M17.5925 11.2363L19.3097 10.3907L20.6124 11.7972L20.3409 9.89652L22.0764 9.09156L20.1921 8.76314L19.9638 6.85938L19.0696 8.55402L17.1924 8.18561L18.5248 9.55996L17.5925 11.2363Z" fill="black"/>
<path d="M13.1616 11.6008L14.3345 10.2593L15.9547 10.9972L15.0433 9.46588L16.2418 8.1488L14.5076 8.54264L13.6293 6.9917L13.4697 8.76904L11.7244 9.12831L13.3615 9.82718L13.1616 11.6008Z" fill="black"/>
<path d="M24.8687 13.3987L24.0864 11.7973L22.3296 12.0847L23.6089 10.8452L22.7949 9.26041L24.3671 10.0942L25.6194 8.82861L25.31 10.5846L26.9008 11.3885L25.1389 11.6346L24.8687 13.3987Z" fill="black"/>
<path d="M9.77362 24.8518C8.76245 24.2644 8.85986 23.4327 8.76246 23.0354C8.66405 22.6416 8.37186 20.6287 8.37186 20.042C8.37186 19.4547 7.85038 18.7958 7.49089 18.0346C7.13174 17.2726 6.18584 15.2662 6.12294 15.1276C6.05564 14.99 5.63393 14.6436 4.94843 14.9547C4.26327 15.2658 3.48139 15.0249 3.28491 15.1276C3.0891 15.2309 2.37384 15.4733 2.04682 15.5089C1.72047 15.5431 1.75328 15.9583 1.525 16.0969C1.29707 16.2362 0.644711 15.8532 0.644711 15.8532C0.644711 15.8532 0.319041 15.6831 0.25411 15.5431C0.189517 15.4045 0.189517 15.2103 0.0572871 14.8174C-0.136154 14.2287 0.22232 14.1718 0.22232 14.1718C0.22232 14.1718 0.775589 13.6631 0.971397 13.4888C1.16687 13.3167 1.99338 12.3399 2.013 11.9792C2.04682 11.3905 2.56728 11.0452 2.79792 10.7686C2.9102 10.6293 3.16722 10.491 3.2521 10.2812C3.33901 10.0755 3.2521 9.7996 3.2521 9.7996C2.89498 9.52303 3.2521 8.37949 3.2521 8.37949H3.38332C3.38332 8.37949 3.38332 8.69062 3.51284 8.86517C3.64473 9.03837 3.90412 9.62607 4.06814 9.45355C4.23148 9.27833 4.52367 9.48711 4.52367 9.48711C4.26327 9.10717 4.65353 8.17139 4.65353 8.17139H4.78542V8.27578C4.78542 8.37949 4.85002 8.76011 4.91563 8.93398C4.98056 9.10717 5.50271 9.97178 5.50271 9.97178C5.50271 9.97178 6.00931 10.2341 6.20478 10.4032C6.39991 10.5724 6.56697 10.5198 6.80539 10.4676C7.29542 10.3629 10.9116 12.4768 12.5748 14.4006C13.4635 15.4258 14.2069 15.4041 14.6627 15.438C15.12 15.4729 17.0432 16.4077 17.0432 16.4077C17.0432 16.4077 19.1623 16.547 21.1176 15.8203C23.0733 15.093 24.6057 14.4707 26.8877 15.3696C26.8877 15.3696 27.4085 15.5773 27.7359 15.6454C28.0622 15.7163 28.6804 15.9579 28.6804 15.9579C28.6804 15.9579 30.4745 15.7159 31.6145 18.2772C32.7538 20.8365 32.9838 23.4676 32.559 25.5788C32.559 25.5788 32.559 25.1273 32.4623 24.8863C32.3649 24.6437 31.8756 26.5118 31.6804 26.8233V26.1312C31.6804 26.0272 31.1891 27.2727 31.0937 27.652C30.996 28.0333 30.9632 28.3444 30.9632 28.3444C30.9632 28.3444 30.9307 27.2039 31.0609 26.8928C31.1891 26.581 30.767 27.4449 30.767 27.3066C30.767 27.1697 30.7991 26.3041 30.7991 26.0618C30.7991 25.8184 30.5384 26.2004 30.5712 24.5752C30.6047 22.9473 30.8647 21.7374 30.6047 20.5945C30.3419 19.4543 30.442 19.2798 30.442 19.2798C30.442 19.2798 30.4099 20.2484 30.3105 20.4559C30.3105 20.4559 29.9845 22.5318 29.4298 23.5008C28.8752 24.4701 28.1285 25.4395 28.3876 26.2004C28.6473 26.9616 29.0403 27.8259 29.0403 28.1031C29.0403 28.3797 29.1045 28.4492 29.2036 28.6579C29.3003 28.8637 29.6595 29.5578 29.4298 30.0764C29.2036 30.5956 29.235 31.7036 29.235 32.3601C29.235 33.0172 29.2672 34.8854 29.2672 35.0244C29.2672 35.1627 29.2672 35.2999 29.1353 35.3701C29.0085 35.4406 28.9412 35.6114 28.909 35.7161C28.8752 35.8205 28.5499 35.889 28.5499 36.132C28.5499 36.373 28.7464 36.6868 28.7464 36.7899C28.7464 36.8929 28.4518 37.0996 28.4518 37.0996C28.4518 37.0996 26.9209 37.2044 26.9209 37.0996C26.9209 36.9953 27.4748 36.234 27.4748 36.234C27.4748 36.234 27.4748 35.9917 27.7034 35.8887C27.93 35.7853 28.0284 35.6111 28.0284 35.2325C28.0284 34.8502 27.9638 34.7797 28.0944 34.4011C28.2246 34.0205 28.1285 31.0433 28.1285 31.0433L28.0284 30.9061C28.0284 30.9061 27.443 32.9806 27.4085 33.3636C27.3767 33.7432 27.5083 34.2974 27.1485 34.7112C26.7886 35.1278 26.4964 35.2999 26.4964 35.2999C26.4964 35.2999 26.3334 35.5436 26.464 35.7161C26.5952 35.889 26.7572 36.132 26.6594 36.2344C26.5627 36.3391 26.3334 36.4079 26.3334 36.4079C26.3334 36.4079 25.2577 36.616 24.9327 36.4774C24.9327 36.4774 25.1596 35.889 25.2242 35.7517C25.2901 35.6111 25.3551 35.405 25.5837 35.1989C25.8113 34.9891 26.0402 35.024 26.0402 34.7112C26.0402 34.4014 26.2022 34.2974 26.4315 33.7097C26.6594 33.1199 26.8877 31.1836 26.8877 30.942C26.8877 30.6983 26.4315 29.5578 26.4315 28.6912V27.1694C26.4315 27.1694 26.072 26.7887 25.8434 25.8523C25.6185 24.9199 24.7031 23.8126 24.4761 23.6042C24.2489 23.3971 24.117 23.4673 23.8569 23.5008C23.5958 23.5361 23.5958 23.3971 23.3003 23.2595C23.0084 23.1212 21.8018 23.8126 21.2813 24.1946C20.7673 24.5688 18.4271 25.3429 15.8386 25.6327C15.794 25.6374 15.7503 25.6415 15.705 25.6459C13.0645 25.9221 14.4679 25.8519 14.3361 25.8519C14.3361 25.8519 14.5975 26.8579 14.6952 27.7564C14.7929 28.6573 14.9898 29.5202 14.9898 30.0404C14.9898 30.5614 14.9566 31.4599 15.053 31.6324C15.1528 31.8059 15.5146 33.4321 15.5146 33.4321C15.5146 33.4321 16.0303 33.9513 15.9015 34.1588C15.7706 34.3648 15.5177 34.4011 15.5146 34.7478C15.5095 35.0928 15.3878 35.6819 15.5146 35.7853C15.6414 35.889 15.6813 35.9914 15.5146 36.0276C15.3472 36.0615 15.12 36.234 15.12 36.234C15.12 36.234 14.8261 36.6157 13.8494 36.4076C13.8494 36.4076 13.8494 36.1317 14.1101 35.8541C14.3702 35.5785 14.3702 35.5785 14.565 35.4748C14.7605 35.3694 14.6627 35.1989 14.7929 34.8502C14.9238 34.5045 14.9898 34.297 14.9898 34.297C14.9898 34.297 14.7283 34.055 14.7283 33.7429C14.7283 33.4321 14.2069 31.8401 14.1416 31.667C14.0763 31.4941 13.6198 30.8017 13.4246 30.0062C13.2285 29.2101 12.7395 27.6876 12.543 27.2392C12.3489 26.7884 12.3161 26.9616 12.3161 27.306C12.3161 27.652 11.9356 28.7264 12.1426 29.3144C12.3489 29.9025 12.3272 31.0433 12.1426 31.2853C11.9569 31.5293 11.9569 32.0832 11.9569 32.497C11.9569 32.9125 12.0682 33.9513 12.1426 34.1937C12.218 34.435 12.3922 34.6431 12.1426 34.8502C11.8913 35.0586 11.7953 35.1986 11.6952 35.2996C11.5988 35.4047 11.4679 35.9914 11.4679 36.0964C11.4679 36.1981 11.7618 36.3723 11.6647 36.4425C11.5657 36.5113 11.2738 36.8926 11.2738 36.8926C11.2738 36.8926 10.2941 36.9614 9.74184 36.8573V36.719C9.74184 36.719 10.2677 35.8887 10.5416 35.7155C10.8156 35.543 10.7503 35.3694 10.8815 35.162C11.0107 34.9566 11.1734 34.4347 11.1734 34.2967C11.1734 34.1584 11.1734 33.8124 11.2065 33.709C11.2407 33.6039 11.1101 31.7713 11.1101 31.7713C11.1101 31.7713 10.7503 30.6976 10.7834 29.9022C10.8156 29.1067 10.8359 28.5075 10.5416 28.0669C9.48008 26.4796 9.77362 24.8518 9.77362 24.8518Z" fill="black"/>
<path d="M30.9943 12.5566C33.8391 15.5429 35.0826 19.0278 35.0826 23.4827C35.0826 28.2538 33.0769 32.5518 29.8668 35.5845C29.8601 35.5933 29.852 35.6014 29.8435 35.6086C39.8405 30.9273 48.7953 21.1803 48.7953 21.1803C42.8889 20.4157 36.084 16.7238 30.9943 12.5566Z" fill="#FFCB00"/>
<path d="M59.7847 0C60.3041 4.38405 60.9727 9.67134 58.4502 17.484L63.1983 4.45353C64.1567 1.68956 60.8983 0.202341 59.7847 0Z" fill="#00722C"/>
<path d="M59.4531 5.14386C51.7317 10.9833 28.9483 2.53886 19.4 3.26213C10.5697 3.9305 7.0249 9.30252 7.0249 9.30252C7.03606 9.29371 7.04688 9.28693 7.05703 9.27846C10.0236 7.03509 13.7159 5.70344 17.7179 5.70344C22.2607 5.70344 25.9239 7.33775 29.5381 10.2346C31.0805 11.6493 32.7015 12.5295 34.2101 13.4405C46.7435 21.0139 52.0807 20.0513 52.0807 20.0513C42.6664 31.884 30.0413 36.4334 30.0413 36.4334C41.9849 38.4385 50.36 35.4197 50.361 35.4197L58.45 17.4839L58.4703 17.4399C59.4862 13.4497 60.0003 7.99121 59.4531 5.14386Z" fill="#009035"/>
</svg>
