<svg width="187" height="51" viewBox="0 0 187 51" fill="none" xmlns="http://www.w3.org/2000/svg">
<g opacity="0.9">
<path d="M159.316 44.4321H186.774" stroke="white" stroke-width="0.692593"/>
<path d="M0 44.4321L129.956 44.4321" stroke="white" stroke-width="0.692593"/>
<path d="M179.341 9.16301C179.267 8.45927 179.156 8.16296 178.896 8.16296C178.637 8.16296 178.489 8.42224 178.341 8.75559L167.451 32.016L156.117 8.71855C155.932 8.31112 155.784 8.16296 155.562 8.16296C155.34 8.16296 155.191 8.42224 155.154 8.82966L152.488 32.979C152.339 34.3865 152.228 35.831 151.006 36.0532C150.45 36.1643 150.191 36.1643 149.895 36.1643C149.71 36.1643 149.524 36.2384 149.524 36.3495C149.524 36.6088 149.784 36.6829 150.154 36.6829C151.154 36.6829 152.932 36.5718 153.265 36.5718C153.562 36.5718 155.34 36.6829 156.71 36.6829C157.154 36.6829 157.377 36.6088 157.377 36.3495C157.377 36.2384 157.229 36.1643 157.08 36.1643C156.858 36.1643 156.303 36.1273 155.673 35.9792C155.117 35.868 154.71 35.3865 154.71 34.831C154.71 34.2013 154.71 33.5346 154.747 32.942L156.229 15.7559H156.377C156.784 16.756 160.932 25.6453 161.266 26.312C161.451 26.6824 164.636 33.0901 165.599 34.905C166.303 36.2384 166.488 36.6088 166.748 36.6088C167.081 36.6088 167.192 36.2755 167.97 34.6458L177.044 15.3855H177.155L178.933 34.6087C179.007 35.2754 178.97 35.9051 178.785 35.9421C178.6 35.9792 178.526 36.0532 178.526 36.2014C178.526 36.3866 178.711 36.4977 179.563 36.5718C180.933 36.6829 184.934 36.7199 185.748 36.7199C186.193 36.7199 186.526 36.6088 186.526 36.3866C186.526 36.2384 186.415 36.2014 186.23 36.2014C185.86 36.2014 184.897 36.2014 183.822 35.868C182.23 35.3495 181.971 33.2753 181.822 31.9419L179.341 9.16301Z" fill="white"/>
<path d="M145.381 48.1129C145.998 48.2147 146.624 48.2545 147.258 48.2545C151.522 48.2545 153.367 46.8385 155.247 45.7854C155.434 45.6802 155.247 45.7854 155.247 45.7854C145.406 50.7943 137.385 42.9419 136.132 41.6073C135.173 40.5896 132.282 40.6291 132.282 40.6291C136.331 44.3242 139.577 46.3739 142.623 47.4012C142.623 47.4008 144.394 47.9512 145.381 48.1129Z" fill="#FFCB00"/>
<path d="M134.743 38.5232C127.98 38.5232 120.978 33.0443 120.978 22.4689C120.978 13.7482 126.255 8.60416 133.399 8.60416C140.162 8.60416 147.164 14.0362 147.164 24.6612C147.164 33.3816 141.841 38.5232 134.743 38.5232ZM155.125 44.6224C153.734 45.2395 152.055 45.5768 150.042 45.5768C146.397 45.5768 141.745 42.9096 137.812 39.0964C145.724 37.1447 151 29.7586 151 23.0404C151 14.9392 144.286 7.50781 134.502 7.50781C124.286 7.50781 117.139 16.2271 117.139 24.0404C117.139 32.0919 123.664 39.43 133.304 39.6213C133.304 39.6213 135.655 39.5794 136.614 40.5992C137.868 41.9327 145.841 49.9591 155.174 45.1969C155.415 45.054 155.22 44.574 155.125 44.6224Z" fill="#008F35"/>
<path d="M61.8526 32.6086C61.1859 34.4606 60.4451 35.868 58.7414 36.0903C58.445 36.1273 57.9265 36.1643 57.6672 36.1643C57.482 36.1643 57.3339 36.2384 57.3339 36.3866C57.3339 36.6088 57.5561 36.6829 58.0376 36.6829C59.7784 36.6829 61.8156 36.5718 62.223 36.5718C62.6304 36.5718 64.2231 36.6829 65.112 36.6829C65.4454 36.6829 65.6676 36.6088 65.6676 36.3866C65.6676 36.2384 65.5565 36.1643 65.2972 36.1643H64.9268C64.2972 36.1643 63.5194 35.831 63.5194 35.0902C63.5194 34.4235 63.7046 33.5346 64.0379 32.6086L66.2602 26.0527C66.3343 25.8675 66.4454 25.7564 66.6306 25.7564H74.594C74.7792 25.7564 74.8533 25.8305 74.9273 25.9787L78.372 35.0902C78.5942 35.6828 78.372 36.0162 78.1497 36.0903C78.0016 36.1273 77.8904 36.2014 77.8904 36.3495C77.8904 36.5718 78.2979 36.5718 79.0016 36.6088C81.5573 36.6829 84.2611 36.6829 84.8167 36.6829C85.2241 36.6829 85.5575 36.6088 85.5575 36.3866C85.5575 36.2014 85.4093 36.1643 85.1871 36.1643C84.8167 36.1643 84.2611 36.1273 83.7056 35.9421C82.9277 35.7199 81.8536 35.1273 80.5202 31.8308C78.2608 26.2009 72.4457 10.9038 71.8901 9.49636C71.4457 8.34816 71.2975 8.16296 71.0753 8.16296C70.8531 8.16296 70.7049 8.3852 70.2604 9.60748L61.8526 32.6086ZM67.0381 24.423C66.9269 24.423 66.8529 24.349 66.9269 24.1638L70.1864 14.1633C70.3716 13.6077 70.5568 13.6077 70.7419 14.1633L74.2606 24.1638C74.2977 24.3119 74.2977 24.423 74.1125 24.423H67.0381ZM91.3798 13.904C92.5651 15.2374 96.7505 19.9043 101.047 24.5341C104.973 28.7566 110.307 34.2013 110.714 34.5717C112.677 36.5347 113.122 36.9422 113.418 36.9422C113.677 36.9422 113.751 36.757 113.751 34.3124L113.825 12.6076C113.825 10.3853 113.974 9.57044 115.196 9.31117C115.64 9.20005 115.9 9.20005 116.085 9.20005C116.344 9.20005 116.492 9.08894 116.492 8.94078C116.492 8.71855 116.233 8.68151 115.825 8.68151C114.307 8.68151 113.085 8.79262 112.677 8.79262C112.27 8.79262 110.492 8.68151 108.825 8.68151C108.381 8.68151 108.084 8.71855 108.084 8.94078C108.084 9.08894 108.121 9.20005 108.381 9.20005C108.677 9.20005 109.529 9.23709 110.196 9.38525C111.344 9.68156 111.603 10.4964 111.64 12.9039L112.048 31.7197C110.862 30.4974 106.825 25.9787 103.158 22.0525C97.4542 15.9411 91.9354 9.97787 91.3798 9.34821C91.0094 8.97782 90.3798 8.16296 90.0835 8.16296C89.7872 8.16296 89.676 8.57039 89.676 10.0149L89.639 31.2382C89.639 34.6087 89.4538 35.6828 88.5278 35.9421C87.9723 36.1273 87.3056 36.1643 87.0092 36.1643C86.824 36.1643 86.7129 36.2384 86.7129 36.3866C86.7129 36.6459 86.9352 36.6829 87.3056 36.6829C88.9723 36.6829 90.5279 36.5718 90.8613 36.5718C91.1946 36.5718 92.6762 36.6829 94.7874 36.6829C95.2319 36.6829 95.4541 36.6088 95.4541 36.3866C95.4541 36.2384 95.343 36.1643 95.1578 36.1643C94.8244 36.1643 94.0096 36.1273 93.3059 35.9421C92.3058 35.6458 91.9354 34.6828 91.8613 31.6456L91.3798 13.904Z" fill="white"/>
<path d="M17.6674 11.2842L19.392 10.435L20.7002 11.8476L20.4275 9.93875L22.1704 9.13036L20.2781 8.80055L20.0488 6.88867L19.1509 8.59053L17.2656 8.22055L18.6037 9.60076L17.6674 11.2842Z" fill="white"/>
<path d="M13.2176 11.6502L14.3955 10.303L16.0226 11.044L15.1073 9.5062L16.3109 8.18352L14.5693 8.57903L13.6873 7.02148L13.527 8.8064L11.7742 9.16719L13.4184 9.86904L13.2176 11.6502Z" fill="white"/>
<path d="M24.9747 13.4558L24.1891 11.8475L22.4248 12.1362L23.7096 10.8914L22.8921 9.29985L24.471 10.1372L25.7287 8.86621L25.4179 10.6297L27.0155 11.437L25.246 11.6842L24.9747 13.4558Z" fill="white"/>
<path d="M9.81525 24.9575C8.79978 24.3676 8.89759 23.5323 8.79978 23.1334C8.70095 22.7379 8.40752 20.7164 8.40752 20.1273C8.40752 19.5374 7.88381 18.8757 7.52279 18.1112C7.16211 17.3461 6.21219 15.3311 6.14902 15.1919C6.08143 15.0537 5.65792 14.7058 4.96951 15.0183C4.28143 15.3307 3.49622 15.0887 3.2989 15.1919C3.10225 15.2957 2.38395 15.539 2.05554 15.5748C1.7278 15.6092 1.76074 16.0261 1.5315 16.1653C1.30259 16.3052 0.647457 15.9206 0.647457 15.9206C0.647457 15.9206 0.3204 15.7497 0.255192 15.6092C0.190324 15.4699 0.190324 15.2749 0.0575311 14.8804C-0.136734 14.2892 0.223267 14.232 0.223267 14.232C0.223267 14.232 0.778892 13.7211 0.975534 13.5462C1.17184 13.3732 2.00187 12.3923 2.02157 12.0301C2.05553 11.4389 2.57822 11.0921 2.80984 10.8143C2.9226 10.6744 3.18071 10.5356 3.26595 10.3249C3.35324 10.1183 3.26595 9.8412 3.26595 9.8412C2.90731 9.56346 3.26595 8.41504 3.26595 8.41504H3.39773C3.39773 8.41504 3.39773 8.7275 3.5278 8.9028C3.66025 9.07673 3.92075 9.66693 4.08546 9.49368C4.2495 9.31771 4.54294 9.52738 4.54294 9.52738C4.28143 9.14582 4.67335 8.20605 4.67335 8.20605H4.8058V8.31089C4.8058 8.41504 4.87068 8.79728 4.93656 8.97189C5.00177 9.14582 5.52615 10.0141 5.52615 10.0141C5.52615 10.0141 6.0349 10.2776 6.23121 10.4474C6.42717 10.6173 6.59494 10.5645 6.83438 10.5121C7.32649 10.4069 10.9581 12.5298 12.6284 14.4618C13.5209 15.4914 14.2674 15.4696 14.7252 15.5036C15.1844 15.5387 17.1158 16.4774 17.1158 16.4774C17.1158 16.4774 19.2439 16.6173 21.2076 15.8876C23.1716 15.1571 24.7105 14.5322 27.0022 15.4349C27.0022 15.4349 27.5253 15.6435 27.854 15.7119C28.1817 15.7831 28.8026 16.0258 28.8026 16.0258C28.8026 16.0258 30.6043 15.7827 31.7492 18.3549C32.8933 20.9251 33.1243 23.5674 32.6977 25.6876C32.6977 25.6876 32.6977 25.2342 32.6006 24.9922C32.5028 24.7485 32.0113 26.6246 31.8154 26.9374V26.2424C31.8154 26.1379 31.3219 27.3888 31.2261 27.7696C31.128 28.1526 31.095 28.465 31.095 28.465C31.095 28.465 31.0624 27.3197 31.1932 27.0072C31.3219 26.6941 30.8981 27.5617 30.8981 27.4228C30.8981 27.2853 30.9303 26.416 30.9303 26.1726C30.9303 25.9282 30.6685 26.3118 30.7014 24.6797C30.735 23.0449 30.9962 21.8298 30.735 20.6821C30.4711 19.5371 30.5717 19.3618 30.5717 19.3618C30.5717 19.3618 30.5394 20.3345 30.4396 20.5429C30.4396 20.5429 30.1122 22.6276 29.5552 23.6008C28.9982 24.5742 28.2483 25.5477 28.5085 26.3118C28.7693 27.0763 29.1639 27.9443 29.1639 28.2227C29.1639 28.5004 29.2285 28.5702 29.328 28.7799C29.4251 28.9865 29.7858 29.6836 29.5552 30.2043C29.328 30.7258 29.3596 31.8385 29.3596 32.4978C29.3596 33.1577 29.3918 35.0339 29.3918 35.1734C29.3918 35.3123 29.3918 35.4501 29.2594 35.5206C29.132 35.5914 29.0644 35.7629 29.0322 35.8681C28.9982 35.973 28.6715 36.0417 28.6715 36.2858C28.6715 36.5278 28.8688 36.843 28.8688 36.9464C28.8688 37.0499 28.573 37.2575 28.573 37.2575C28.573 37.2575 27.0355 37.3627 27.0355 37.2575C27.0355 37.1527 27.5918 36.3882 27.5918 36.3882C27.5918 36.3882 27.5918 36.1448 27.8214 36.0414C28.049 35.9376 28.1478 35.7626 28.1478 35.3824C28.1478 34.9985 28.0829 34.9277 28.214 34.5475C28.3448 34.1652 28.2483 31.1754 28.2483 31.1754L28.1478 31.0376C28.1478 31.0376 27.5599 33.121 27.5253 33.5056C27.4933 33.8868 27.6254 34.4433 27.2641 34.8589C26.9027 35.2772 26.6093 35.4501 26.6093 35.4501C26.6093 35.4501 26.4456 35.6949 26.5767 35.8681C26.7085 36.0417 26.8711 36.2858 26.773 36.3886C26.6759 36.4937 26.4456 36.5628 26.4456 36.5628C26.4456 36.5628 25.3653 36.7718 25.0389 36.6326C25.0389 36.6326 25.2668 36.0417 25.3316 35.9039C25.3979 35.7626 25.4631 35.5557 25.6926 35.3487C25.9212 35.138 26.1511 35.1731 26.1511 34.8589C26.1511 34.5478 26.3138 34.4433 26.5441 33.8531C26.773 33.2609 27.0022 31.3163 27.0022 31.0736C27.0022 30.8289 26.5441 29.6836 26.5441 28.8132V27.2849C26.5441 27.2849 26.1831 26.9027 25.9535 25.9623C25.7276 25.0259 24.8083 23.9139 24.5804 23.7046C24.3522 23.4966 24.2197 23.5671 23.9585 23.6008C23.6963 23.6362 23.6963 23.4966 23.3995 23.3584C23.1064 23.2195 21.8946 23.9139 21.372 24.2975C20.8557 24.6733 18.5055 25.4507 15.9061 25.7417C15.8612 25.7465 15.8174 25.7505 15.7719 25.755C13.1201 26.0324 14.5296 25.9619 14.3971 25.9619C14.3971 25.9619 14.6596 26.9722 14.7578 27.8745C14.8559 28.7792 15.0536 29.6458 15.0536 30.1682C15.0536 30.6914 15.0203 31.5937 15.1171 31.767C15.2173 31.9412 15.5807 33.5744 15.5807 33.5744C15.5807 33.5744 16.0986 34.0958 15.9692 34.3041C15.8378 34.5111 15.5838 34.5475 15.5807 34.8957C15.5756 35.2422 15.4533 35.8337 15.5807 35.9376C15.7081 36.0417 15.7481 36.1445 15.5807 36.1809C15.4126 36.215 15.1844 36.3882 15.1844 36.3882C15.1844 36.3882 14.8892 36.7715 13.9084 36.5625C13.9084 36.5625 13.9084 36.2854 14.1702 36.0067C14.4314 35.7299 14.4314 35.7299 14.627 35.6258C14.8233 35.5199 14.7252 35.3487 14.8559 34.9985C14.9874 34.6513 15.0536 34.443 15.0536 34.443C15.0536 34.443 14.7911 34.2 14.7911 33.8865C14.7911 33.5744 14.2674 31.9756 14.2018 31.8017C14.1363 31.6281 13.6778 30.9327 13.4818 30.1339C13.2848 29.3343 12.7938 27.8054 12.5964 27.3551C12.4015 26.9024 12.3685 27.0763 12.3685 27.4221C12.3685 27.7696 11.9865 28.8486 12.1943 29.4392C12.4015 30.0297 12.3797 31.1754 12.1943 31.4184C12.0079 31.6635 12.0079 32.2197 12.0079 32.6353C12.0079 33.0526 12.1196 34.0958 12.1943 34.3392C12.2701 34.5815 12.445 34.7905 12.1943 34.9985C11.942 35.2078 11.8455 35.3484 11.745 35.4498C11.6482 35.5553 11.5168 36.1445 11.5168 36.25C11.5168 36.3521 11.8119 36.5271 11.7144 36.5975C11.6149 36.6666 11.3218 37.0496 11.3218 37.0496C11.3218 37.0496 10.3379 37.1187 9.78333 37.0142V36.8753C9.78333 36.8753 10.3114 36.0414 10.5865 35.8674C10.8616 35.6942 10.7961 35.5199 10.9279 35.3116C11.0576 35.1053 11.221 34.5812 11.221 34.4426C11.221 34.3038 11.221 33.9563 11.2542 33.8524C11.2885 33.7469 11.1574 31.9065 11.1574 31.9065C11.1574 31.9065 10.7961 30.8282 10.8294 30.0294C10.8616 29.2305 10.882 28.6287 10.5865 28.1863C9.52046 26.5923 9.81525 24.9575 9.81525 24.9575Z" fill="white"/>
<path d="M31.1263 12.6104C33.9832 15.6094 35.232 19.1091 35.232 23.5829C35.232 28.3744 33.2177 32.6906 29.994 35.7363C29.9872 35.7451 29.979 35.7533 29.9705 35.7605C40.0101 31.0592 49.003 21.2708 49.003 21.2708C43.0715 20.5029 36.2376 16.7952 31.1263 12.6104Z" fill="#FFCB00"/>
<path d="M60.0394 0C60.5611 4.40272 61.2325 9.71253 58.6992 17.5585L63.4676 4.4725C64.4301 1.69676 61.1578 0.203202 60.0394 0Z" fill="#00722C"/>
<path d="M59.7063 5.16574C51.952 11.03 29.0715 2.54964 19.4826 3.27599C10.6147 3.94721 7.05477 9.34211 7.05477 9.34211C7.06598 9.33326 7.07685 9.32646 7.08704 9.31795C10.0662 7.06502 13.7742 5.7277 17.7933 5.7277C22.3555 5.7277 26.0343 7.36897 29.6638 10.2781C31.2129 11.6989 32.8407 12.5828 34.3557 13.4977C46.9425 21.1033 52.3025 20.1367 52.3025 20.1367C42.848 32.0198 30.1692 36.5886 30.1692 36.5886C42.1637 38.6022 50.5745 35.5705 50.5755 35.5705L58.6989 17.5584L58.7193 17.5141C59.7395 13.5069 60.2558 8.02521 59.7063 5.16574Z" fill="#009035"/>
</g>
</svg>
