<svg width="154" height="81" viewBox="0 0 154 81" fill="none" xmlns="http://www.w3.org/2000/svg">
<path d="M34.6094 77.0747C36.6297 78.1971 38.2384 78.7458 39.7474 78.7458C41.5931 78.7458 42.9898 78.2096 43.7006 77.8853C43.7755 77.8479 43.8004 77.8105 43.8004 77.7606C43.8004 77.7232 43.7755 77.6858 43.7256 77.6858C43.6882 77.6858 43.6258 77.7108 43.551 77.7357C42.6905 78.0849 41.7178 78.2221 41.0942 78.2221C40.4707 78.2221 38.5751 78.1597 35.844 76.7505L33.2875 75.4286C34.1105 74.8923 35.4948 73.4332 35.4948 71.2384C35.4948 68.3451 33.3997 66.5618 30.5937 66.5618C27.1518 66.5618 25.6802 69.4176 25.6802 71.4379C25.6802 73.6827 27.1019 76.339 30.5563 76.339C31.2173 76.339 32.0653 76.1519 32.5143 75.9149L34.6094 77.0747ZM26.865 71.0887C26.865 68.3576 28.4238 66.9858 30.5065 66.9858C32.4769 66.9858 34.2976 68.5945 34.2976 71.5876C34.2976 75.2166 31.978 75.8651 30.8556 75.8651C28.6109 75.8651 26.865 73.9944 26.865 71.0887ZM36.479 72.7723C36.479 74.3187 36.903 75.0545 37.4393 75.5533C38.2125 76.2766 39.3598 76.3015 39.7215 76.3015C40.3699 76.3015 41.218 76.2142 42.0161 75.5284C42.8891 74.7801 43.0387 73.4956 43.0387 72.3483V71.2134C43.0387 69.5673 43.0262 69.268 43.0512 68.9313C43.0761 68.5821 43.1385 68.4075 43.4378 68.3451C43.575 68.3202 43.6373 68.3202 43.7121 68.3202C43.762 68.3202 43.7994 68.2703 43.7994 68.2329C43.7994 68.1705 43.7496 68.1456 43.6248 68.1456C43.3006 68.1456 42.7768 68.1705 42.702 68.1705C42.6396 68.1705 42.0036 68.1456 41.5173 68.1456C41.3926 68.1456 41.3427 68.1705 41.3427 68.2329C41.3427 68.2703 41.3801 68.3202 41.43 68.3202C41.5297 68.3202 41.7168 68.3326 41.8041 68.3451C42.1658 68.395 42.2281 68.5945 42.2406 68.9313C42.2531 69.268 42.2655 69.5673 42.2655 71.2134V72.5478C42.2655 73.6328 42.1533 74.5057 41.642 75.1168C41.2679 75.5658 40.6194 75.8651 39.9459 75.8651C39.3224 75.8651 38.8485 75.7778 38.3123 75.2914C37.8384 74.8674 37.5016 74.2314 37.5016 72.6975V71.2134C37.5016 69.5673 37.5016 69.268 37.5266 68.9313C37.5515 68.5821 37.6139 68.395 37.9007 68.3451C38.0379 68.3202 38.1002 68.3202 38.1751 68.3202C38.225 68.3202 38.2748 68.2703 38.2748 68.2329C38.2748 68.1705 38.2125 68.1456 38.0878 68.1456C37.7635 68.1456 37.0776 68.1705 36.9779 68.1705C36.8781 68.1705 36.2171 68.1456 35.7183 68.1456C35.5936 68.1456 35.5437 68.1705 35.5437 68.2329C35.5437 68.2703 35.5936 68.3202 35.631 68.3202C35.7308 68.3202 35.9178 68.3326 36.0051 68.3451C36.3668 68.395 36.4291 68.5945 36.4541 68.9313C36.479 69.268 36.479 69.5673 36.479 71.2134V72.7723ZM43.8218 74.9921C43.6098 75.5284 43.3978 75.9025 42.899 75.9648C42.8117 75.9773 42.6496 75.9898 42.5748 75.9898C42.5249 75.9898 42.475 76.0272 42.475 76.0771C42.475 76.1394 42.5498 76.1644 42.687 76.1644C43.136 76.1644 43.6847 76.127 43.7969 76.127C43.9216 76.127 44.5202 76.1644 44.7821 76.1644C44.8819 76.1644 44.9442 76.1394 44.9442 76.0771C44.9442 76.0272 44.9193 75.9898 44.832 75.9898H44.7322C44.5452 75.9898 44.3581 75.9149 44.3581 75.7029C44.3581 75.5159 44.4205 75.254 44.5202 74.9921L45.1438 73.2961C45.1687 73.2337 45.2061 73.2088 45.256 73.2088H47.7876C47.8499 73.2088 47.8624 73.2212 47.8874 73.2711L48.8726 75.7029C48.9474 75.8775 48.8351 75.9648 48.7728 75.9898C48.7229 76.0147 48.698 76.0147 48.698 76.0646C48.698 76.127 48.8726 76.127 49.0846 76.1394C49.8453 76.1644 50.6559 76.1644 50.818 76.1644C50.9427 76.1644 51.0674 76.1394 51.0674 76.0771C51.0674 76.0147 50.9926 75.9898 50.9303 75.9898C50.818 75.9898 50.6559 75.9773 50.4938 75.9274C50.2568 75.8526 49.9575 75.7154 49.5585 74.7676C48.885 73.1589 47.1266 68.7816 46.9271 68.3326C46.8149 68.0957 46.7774 67.9461 46.6652 67.9461C46.5904 67.9461 46.5405 68.0084 46.4033 68.3576L43.8218 74.9921ZM45.4057 72.7723C45.3682 72.7723 45.3558 72.7473 45.3682 72.6975L46.3909 69.7917C46.4532 69.6296 46.5156 69.6296 46.5779 69.7917L47.6629 72.6975C47.6754 72.7473 47.6754 72.7723 47.6255 72.7723H45.4057ZM51.2673 73.0841C51.2673 74.1067 51.2673 74.9422 51.2049 75.3787C51.155 75.6905 51.1301 75.89 50.9181 75.9399C50.8183 75.9648 50.6811 75.9898 50.5814 75.9898C50.519 75.9898 50.4941 76.0397 50.4941 76.0771C50.4941 76.1394 50.5564 76.1644 50.6687 76.1644C51.0054 76.1644 51.7412 76.127 51.7536 76.127C51.8035 76.127 52.5019 76.1644 53.1005 76.1644C53.2252 76.1644 53.2751 76.127 53.2751 76.0771C53.2751 76.0397 53.2626 75.9898 53.1878 75.9898C53.088 75.9898 52.8511 75.9648 52.7014 75.9399C52.3647 75.89 52.3023 75.6905 52.2649 75.3787C52.215 74.9422 52.215 74.1191 52.215 73.0965V72.8471C52.215 72.7848 52.24 72.7598 52.2899 72.7598L53.6866 72.7848C53.7614 72.7848 53.7864 72.7972 53.8363 72.8471C54.0732 73.1339 54.5596 73.8198 55.021 74.3935C55.6445 75.1916 56.0436 75.7029 56.5175 75.9524C56.7919 76.102 57.0662 76.1644 57.6898 76.1644H58.3757C58.5752 76.1644 58.6376 76.1394 58.6376 76.0771C58.6376 76.0397 58.6001 75.9898 58.5378 75.9898C58.4754 75.9898 58.3632 75.9898 58.1512 75.9524C57.8768 75.9149 57.5152 75.8152 56.929 75.2166C56.293 74.5556 55.5323 73.5954 54.6344 72.473C55.657 71.6 55.9813 70.8393 55.9813 70.0536C55.9813 69.3178 55.4949 68.8065 55.2205 68.607C54.6469 68.2079 53.8737 68.1456 53.1753 68.1456C52.8386 68.1456 51.9157 68.1705 51.8035 68.1705C51.7412 68.1705 51.0054 68.1456 50.5065 68.1456C50.3818 68.1456 50.3319 68.1705 50.3319 68.2329C50.3319 68.2703 50.3818 68.3202 50.4192 68.3202C50.519 68.3202 50.7061 68.3326 50.7934 68.3451C51.155 68.395 51.2174 68.5696 51.2423 68.9313C51.2673 69.268 51.2673 69.5673 51.2673 71.2134V73.0841ZM52.215 68.7068C52.215 68.6444 52.2525 68.607 52.3023 68.5821C52.4146 68.5571 52.7638 68.5197 53.088 68.5197C54.2603 68.5197 54.9836 69.2804 54.9836 70.6024C54.9836 71.413 54.6968 71.9741 54.3226 72.2236C54.0607 72.3982 53.7614 72.4106 53.4996 72.4106C53.0132 72.4106 52.452 72.3358 52.2899 72.2485C52.24 72.2111 52.215 72.1737 52.215 72.1113V68.7068ZM60.2211 68.632L61.5929 68.6569C62.6404 68.6818 62.8774 68.9188 62.9148 69.243L62.9272 69.3553C62.9397 69.5049 62.9647 69.5423 63.0145 69.5423C63.0644 69.5423 63.1143 69.4924 63.1143 69.4051C63.1143 69.2804 63.1517 68.5197 63.1517 68.1955C63.1517 68.1331 63.1517 68.0708 63.1018 68.0708C63.052 68.0708 62.9522 68.0957 62.7901 68.1206C62.6155 68.1456 62.3661 68.1705 62.0044 68.1705H57.8641C57.7394 68.1705 57.3153 68.1581 57.0036 68.1206C56.7043 68.0832 56.592 67.9959 56.5172 67.9959C56.4798 67.9959 56.4174 68.1331 56.405 68.1955C56.38 68.2828 56.168 69.2306 56.168 69.3428C56.168 69.4051 56.2179 69.4301 56.2429 69.4301C56.2927 69.4301 56.3301 69.4176 56.3551 69.3303C56.3925 69.2555 56.405 69.1807 56.5297 68.9936C56.6918 68.7442 56.9537 68.6694 57.6396 68.6569L59.2234 68.632V73.0841C59.2234 74.1067 59.2234 74.9422 59.1735 75.3787C59.1361 75.6905 59.0737 75.9025 58.8493 75.9524C58.7495 75.9773 58.6248 76.0022 58.525 76.0022C58.4627 76.0022 58.4377 76.0397 58.4377 76.0771C58.4377 76.1394 58.4876 76.1644 58.6123 76.1644C58.9366 76.1644 59.6973 76.127 59.7472 76.127C59.8095 76.127 60.5079 76.1644 61.1065 76.1644C61.2312 76.1644 61.2811 76.127 61.2811 76.0771C61.2811 76.0397 61.2686 75.9898 61.1938 75.9898C61.094 75.9898 60.8446 75.9648 60.695 75.9399C60.3582 75.89 60.3084 75.6905 60.2709 75.3787C60.2211 74.9422 60.2211 74.1067 60.2211 73.0841V68.632ZM62.6518 72.1363C62.6518 74.0443 63.9363 76.3015 66.9418 76.3015C69.5856 76.3015 71.344 74.3436 71.344 71.9741C71.344 69.5049 69.4734 67.9959 67.0042 67.9959C63.9737 67.9959 62.6518 70.4278 62.6518 72.1363ZM63.7867 71.8494C63.7867 69.5423 65.1086 68.395 66.9418 68.395C68.6753 68.395 70.2216 69.7294 70.2216 72.2734C70.2216 75.3413 68.2388 75.8651 67.2536 75.8651C65.2707 75.8651 63.7867 74.3187 63.7867 71.8494ZM75.1695 73.6546C75.1695 74.4855 75.1695 75.1644 75.1188 75.519C75.0783 75.7723 75.058 75.9344 74.8858 75.975C74.8047 75.9952 74.6932 76.0155 74.6122 76.0155C74.5615 76.0155 74.5412 76.056 74.5412 76.0864C74.5412 76.1371 74.5919 76.1574 74.6831 76.1574C74.825 76.1574 75.0377 76.1472 75.2201 76.1371C75.4025 76.1371 75.5646 76.127 75.5849 76.127C75.6254 76.127 75.9294 76.1472 76.3145 76.1776C76.6995 76.1979 77.1757 76.2283 77.5608 76.2283C79.0807 76.2283 79.8811 75.6305 80.2662 75.2353C80.7627 74.7287 81.2288 73.8978 81.2288 72.8136C81.2288 71.7902 80.8032 71.0708 80.3574 70.625C79.3036 69.561 77.6722 69.6421 76.7806 69.6421C76.2537 69.6421 75.6862 69.6624 75.5849 69.6624C75.5342 69.6624 74.9567 69.6421 74.5514 69.6421C74.4501 69.6421 74.4095 69.6624 74.4095 69.713C74.4095 69.7434 74.4501 69.7839 74.4805 69.7839C74.5615 69.7839 74.7135 69.7941 74.7844 69.8042C75.0783 69.8447 75.1289 69.9866 75.1492 70.2804C75.1695 70.554 75.1695 70.7972 75.1695 72.1347V73.6546ZM75.9801 70.1893C75.9801 70.0879 76.0105 70.0474 76.0915 70.017C76.1726 69.9866 76.4563 69.9562 76.6286 69.9562C77.6925 69.9562 78.6753 70.0677 79.5164 70.9188C79.8811 71.2836 80.3574 71.9827 80.3574 73.077C80.3574 73.8674 80.1243 74.6881 79.6582 75.1238C79.1212 75.6305 78.3916 75.904 77.5709 75.904C76.5171 75.904 76.203 75.7216 76.0915 75.5595C76.0206 75.4683 76.0003 75.1542 75.9902 74.9414C75.9801 74.7793 75.9801 73.9788 75.9801 73.0669V70.1893ZM82.2603 73.6546C82.2603 74.4855 82.2603 75.1644 82.2096 75.519C82.1691 75.7723 82.1488 75.9446 81.9766 75.975C81.8955 75.9851 81.7841 76.0155 81.703 76.0155C81.6524 76.0155 81.6321 76.056 81.6321 76.0864C81.6321 76.1371 81.6827 76.1574 81.7739 76.1574C81.9158 76.1574 82.1185 76.1472 82.2907 76.1371C82.4832 76.127 82.6555 76.127 82.6757 76.127C82.8075 76.127 83.0405 76.127 83.4154 76.1472C83.7802 76.1574 84.297 76.1776 84.9657 76.1776C85.3102 76.1776 85.4014 76.1776 85.4622 75.9547C85.5129 75.7723 85.5838 75.1846 85.5838 75.1238C85.5838 75.063 85.5737 74.9921 85.523 74.9921C85.4723 74.9921 85.4521 75.0225 85.4318 75.1238C85.3811 75.4683 85.2596 75.6203 85.0265 75.7216C84.7935 75.8128 84.3679 75.8128 84.1348 75.8128C83.2533 75.8128 83.0912 75.7014 83.0709 75.1238C83.0608 74.9516 83.0709 73.9484 83.0709 73.6546V72.9352C83.0709 72.9048 83.081 72.8744 83.1317 72.8744C83.2837 72.8744 84.2362 72.8845 84.4793 72.9149C84.8239 72.9555 84.9049 73.0568 84.9353 73.1784C84.9758 73.2898 84.9758 73.381 84.9758 73.4621C84.9758 73.5127 84.9961 73.5431 85.0366 73.5431C85.0974 73.5431 85.1177 73.4519 85.1177 73.381C85.1177 73.3202 85.138 72.996 85.1582 72.8237C85.1785 72.54 85.2292 72.3982 85.2292 72.3475C85.2292 72.2968 85.2089 72.2766 85.1785 72.2766C85.1481 72.2766 85.1076 72.3272 85.0468 72.388C84.9556 72.4792 84.8239 72.4894 84.6111 72.5096C84.4084 72.5299 83.233 72.5299 83.1216 72.5299C83.0709 72.5299 83.0709 72.4995 83.0709 72.4387V70.0981C83.0709 70.0373 83.081 70.0069 83.1216 70.0069C83.2229 70.0069 84.2564 70.017 84.4084 70.0373C84.8948 70.0981 84.986 70.1589 85.0468 70.3007C85.0873 70.402 85.0974 70.5439 85.0974 70.6047C85.0974 70.6756 85.1177 70.7161 85.1684 70.7161C85.2089 70.7161 85.2393 70.6655 85.2494 70.625C85.2697 70.5236 85.29 70.1386 85.3001 70.0575C85.3204 69.8143 85.371 69.713 85.371 69.6522C85.371 69.6117 85.3609 69.5712 85.3305 69.5712C85.29 69.5712 85.2494 69.6016 85.2089 69.6117C85.138 69.6218 84.9758 69.6522 84.8036 69.6624C84.6009 69.6725 82.7365 69.6624 82.6757 69.6624C82.6251 69.6624 82.0475 69.6421 81.6422 69.6421C81.5409 69.6421 81.5004 69.6624 81.5004 69.713C81.5004 69.7434 81.5409 69.7839 81.5713 69.7839C81.6524 69.7839 81.8043 69.7941 81.8753 69.8042C82.1691 69.8447 82.2198 69.9866 82.24 70.2804C82.2603 70.554 82.2603 70.7972 82.2603 72.1347V73.6546ZM100.061 65.7449C100.033 65.4784 99.991 65.3661 99.8928 65.3661C99.7946 65.3661 99.7385 65.4643 99.6824 65.5906L95.5576 74.4013L91.2645 65.5766C91.1944 65.4223 91.1382 65.3661 91.0541 65.3661C90.9699 65.3661 90.9138 65.4643 90.8997 65.6187L89.8896 74.7661C89.8335 75.2992 89.7914 75.8464 89.3284 75.9305C89.118 75.9726 89.0197 75.9726 88.9075 75.9726C88.8374 75.9726 88.7672 76.0007 88.7672 76.0428C88.7672 76.141 88.8654 76.169 89.0057 76.169C89.3845 76.169 90.0579 76.127 90.1842 76.127C90.2965 76.127 90.9699 76.169 91.489 76.169C91.6573 76.169 91.7415 76.141 91.7415 76.0428C91.7415 76.0007 91.6854 75.9726 91.6293 75.9726C91.5451 75.9726 91.3347 75.9586 91.0961 75.9025C90.8857 75.8604 90.7314 75.678 90.7314 75.4676C90.7314 75.229 90.7314 74.9765 90.7454 74.752L91.3066 68.2422H91.3627C91.517 68.621 93.0884 71.9882 93.2146 72.2407C93.2848 72.381 94.4913 74.8082 94.8561 75.4956C95.1227 76.0007 95.1928 76.141 95.291 76.141C95.4173 76.141 95.4594 76.0147 95.754 75.3974L99.1913 68.1019H99.2334L99.9068 75.3834C99.9349 75.6359 99.9209 75.8744 99.8507 75.8884C99.7806 75.9025 99.7525 75.9305 99.7525 75.9867C99.7525 76.0568 99.8227 76.0989 100.145 76.127C100.664 76.169 102.18 76.1831 102.488 76.1831C102.657 76.1831 102.783 76.141 102.783 76.0568C102.783 76.0007 102.741 75.9867 102.671 75.9867C102.53 75.9867 102.166 75.9867 101.759 75.8604C101.155 75.664 101.057 74.8783 101.001 74.3732L100.061 65.7449ZM104.688 70.5992C104.688 68.7473 104.688 68.4106 104.702 68.0318C104.73 67.6109 104.8 67.4425 105.137 67.3724C105.277 67.3443 105.362 67.3443 105.446 67.3443C105.488 67.3443 105.544 67.2882 105.544 67.2461C105.544 67.176 105.488 67.1479 105.348 67.1479C104.969 67.1479 104.169 67.176 104.113 67.176C104.043 67.176 103.271 67.1479 102.864 67.1479C102.724 67.1479 102.668 67.176 102.668 67.2461C102.668 67.2882 102.71 67.3443 102.766 67.3443C102.85 67.3443 103.005 67.3584 103.145 67.3864C103.412 67.4425 103.51 67.6249 103.538 68.0318C103.566 68.4106 103.566 68.7473 103.566 70.5992V72.7037C103.566 73.8541 103.552 74.7941 103.496 75.2852C103.454 75.6359 103.412 75.8604 103.173 75.9165C103.061 75.9446 102.906 75.9726 102.794 75.9726C102.724 75.9726 102.696 76.0287 102.696 76.0708C102.696 76.141 102.766 76.169 102.892 76.169C103.271 76.169 104.043 76.127 104.113 76.127C104.169 76.127 104.969 76.169 105.656 76.169C105.797 76.169 105.853 76.127 105.853 76.0708C105.853 76.0287 105.825 75.9726 105.754 75.9726C105.642 75.9726 105.376 75.9446 105.193 75.9165C104.829 75.8604 104.786 75.6359 104.744 75.2852C104.688 74.7941 104.688 73.8541 104.688 72.7037V70.5992ZM108.464 70.5992C108.464 68.7473 108.464 68.4106 108.478 68.0318C108.506 67.6109 108.576 67.4285 108.941 67.3584C109.082 67.3443 109.264 67.3303 109.348 67.3303C109.39 67.3303 109.446 67.2882 109.446 67.2461C109.446 67.176 109.376 67.1479 109.25 67.1479C108.871 67.1479 107.945 67.176 107.889 67.176C107.819 67.176 107.047 67.1479 106.486 67.1479C106.346 67.1479 106.29 67.176 106.29 67.2461C106.29 67.2882 106.346 67.3443 106.388 67.3443C106.5 67.3443 106.71 67.3584 106.809 67.3724C107.216 67.4285 107.286 67.6249 107.314 68.0318C107.342 68.4106 107.342 68.7473 107.342 70.5992V72.7037C107.342 73.8541 107.342 74.7941 107.272 75.2852C107.216 75.6359 107.188 75.8604 106.949 75.9165C106.837 75.9446 106.682 75.9726 106.57 75.9726C106.5 75.9726 106.472 76.0287 106.472 76.0708C106.472 76.141 106.542 76.169 106.668 76.169C106.865 76.169 107.131 76.155 107.384 76.141C107.622 76.127 107.833 76.127 107.889 76.127C108.254 76.127 108.675 76.141 109.236 76.155C109.811 76.1831 110.499 76.1971 111.382 76.1971C112.042 76.1971 112.084 76.155 112.168 75.8744C112.266 75.5237 112.35 74.8082 112.35 74.6819C112.35 74.5556 112.322 74.4995 112.266 74.4995C112.196 74.4995 112.154 74.5697 112.14 74.6538C112.098 74.8923 112 75.1449 111.845 75.3273C111.551 75.678 111.004 75.692 110.358 75.692C109.39 75.692 108.913 75.6079 108.717 75.4114C108.492 75.201 108.464 74.4855 108.464 72.7318V70.5992ZM120.981 70.5992C120.981 68.7473 120.981 68.4106 121.009 68.0318C121.037 67.6109 121.107 67.4425 121.43 67.3724C121.584 67.3443 121.654 67.3443 121.739 67.3443C121.795 67.3443 121.851 67.2882 121.851 67.2461C121.851 67.176 121.781 67.1479 121.64 67.1479C121.276 67.1479 120.49 67.176 120.42 67.176C120.364 67.176 119.564 67.1479 119.017 67.1479C118.876 67.1479 118.82 67.176 118.82 67.2461C118.82 67.2882 118.862 67.3443 118.919 67.3443C119.031 67.3443 119.241 67.3584 119.339 67.3724C119.746 67.4285 119.802 67.6249 119.831 68.0318C119.845 68.4106 119.859 68.7754 119.859 70.6273V70.8798C119.859 70.95 119.831 70.95 119.788 70.95H114.639C114.597 70.95 114.569 70.95 114.569 70.8798V70.6273C114.569 68.7754 114.569 68.4106 114.583 68.0318C114.611 67.6109 114.682 67.4425 115.018 67.3724C115.159 67.3443 115.243 67.3443 115.327 67.3443C115.369 67.3443 115.425 67.2882 115.425 67.2461C115.425 67.176 115.369 67.1479 115.229 67.1479C114.85 67.1479 114.064 67.176 114.008 67.176C113.938 67.176 113.152 67.1479 112.591 67.1479C112.451 67.1479 112.395 67.176 112.395 67.2461C112.395 67.2882 112.451 67.3443 112.493 67.3443C112.605 67.3443 112.816 67.3584 112.914 67.3724C113.321 67.4285 113.391 67.6249 113.419 68.0318C113.447 68.4106 113.447 68.7473 113.447 70.5992V72.7037C113.447 73.8541 113.447 74.7941 113.377 75.2852C113.321 75.6359 113.293 75.8604 113.054 75.9165C112.942 75.9446 112.788 75.9726 112.675 75.9726C112.605 75.9726 112.577 76.0287 112.577 76.0708C112.577 76.141 112.647 76.169 112.774 76.169C113.152 76.169 113.938 76.127 114.008 76.127C114.064 76.127 114.85 76.169 115.537 76.169C115.678 76.169 115.734 76.127 115.734 76.0708C115.734 76.0287 115.706 75.9726 115.636 75.9726C115.523 75.9726 115.257 75.9446 115.074 75.9165C114.71 75.8604 114.668 75.6359 114.625 75.2852C114.569 74.7941 114.569 73.8822 114.569 72.7318V71.5392C114.569 71.4831 114.597 71.4691 114.639 71.4691H119.788C119.831 71.4691 119.859 71.4831 119.859 71.5392V72.7318C119.859 73.8822 119.859 74.7801 119.802 75.2711C119.76 75.6219 119.718 75.8604 119.466 75.9165C119.353 75.9446 119.213 75.9726 119.101 75.9726C119.031 75.9726 119.003 76.0287 119.003 76.0708C119.003 76.141 119.059 76.169 119.199 76.169C119.564 76.169 120.364 76.127 120.42 76.127C120.49 76.127 121.276 76.169 121.949 76.169C122.089 76.169 122.159 76.127 122.159 76.0708C122.159 76.0287 122.131 75.9726 122.047 75.9726C121.949 75.9726 121.668 75.9446 121.5 75.9165C121.121 75.8604 121.093 75.6359 121.051 75.2852C120.995 74.7941 120.981 73.8541 120.981 72.7037V70.5992ZM122.899 74.8502C122.66 75.4535 122.422 75.8744 121.86 75.9446C121.762 75.9586 121.58 75.9726 121.496 75.9726C121.439 75.9726 121.383 76.0147 121.383 76.0708C121.383 76.141 121.467 76.169 121.622 76.169C122.127 76.169 122.744 76.127 122.87 76.127C123.011 76.127 123.684 76.169 123.979 76.169C124.091 76.169 124.161 76.141 124.161 76.0708C124.161 76.0147 124.133 75.9726 124.035 75.9726H123.923C123.712 75.9726 123.502 75.8884 123.502 75.6499C123.502 75.4395 123.572 75.1449 123.684 74.8502L124.386 72.9422C124.414 72.8721 124.456 72.844 124.512 72.844H127.36C127.43 72.844 127.444 72.858 127.472 72.9141L128.581 75.6499C128.665 75.8464 128.538 75.9446 128.468 75.9726C128.412 76.0007 128.384 76.0007 128.384 76.0568C128.384 76.127 128.581 76.127 128.819 76.141C129.675 76.169 130.587 76.169 130.769 76.169C130.91 76.169 131.05 76.141 131.05 76.0708C131.05 76.0007 130.966 75.9726 130.895 75.9726C130.769 75.9726 130.587 75.9586 130.404 75.9025C130.138 75.8183 129.801 75.664 129.352 74.5977C128.595 72.7879 126.616 67.8634 126.392 67.3584C126.266 67.0918 126.224 66.9234 126.097 66.9234C126.013 66.9234 125.957 66.9936 125.803 67.3864L122.899 74.8502ZM124.68 72.353C124.638 72.353 124.624 72.3249 124.638 72.2688L125.789 68.9998C125.859 68.8175 125.929 68.8175 125.999 68.9998L127.22 72.2688C127.234 72.3249 127.234 72.353 127.178 72.353H124.68Z" fill="white"/>
<path d="M1.31522 48.512C1.14145 48.9947 0.948381 49.3615 0.504314 49.4194C0.427086 49.4291 0.291935 49.4387 0.22436 49.4387C0.176092 49.4387 0.137477 49.458 0.137477 49.4967C0.137477 49.5546 0.195399 49.5739 0.320896 49.5739C0.774616 49.5739 1.30556 49.5449 1.41175 49.5449C1.51794 49.5449 1.93305 49.5739 2.16474 49.5739C2.25162 49.5739 2.30954 49.5546 2.30954 49.4967C2.30954 49.458 2.28058 49.4387 2.213 49.4387H2.11647C1.95236 49.4387 1.74963 49.3518 1.74963 49.1588C1.74963 48.985 1.7979 48.7533 1.88478 48.512L2.464 46.8033C2.4833 46.755 2.51227 46.7261 2.56053 46.7261H4.63606C4.68433 46.7261 4.70364 46.7454 4.72294 46.784L5.62073 49.1588C5.67865 49.3132 5.62073 49.4001 5.56281 49.4194C5.52419 49.4291 5.49523 49.4484 5.49523 49.487C5.49523 49.5449 5.60142 49.5449 5.78484 49.5546C6.45094 49.5739 7.15565 49.5739 7.30046 49.5739C7.40665 49.5739 7.49353 49.5546 7.49353 49.4967C7.49353 49.4484 7.45492 49.4387 7.39699 49.4387C7.30046 49.4387 7.15565 49.4291 7.01085 49.3808C6.80812 49.3229 6.52817 49.1684 6.18064 48.3093C5.59177 46.8419 4.07615 42.855 3.93135 42.4881C3.8155 42.1889 3.77689 42.1406 3.71897 42.1406C3.66105 42.1406 3.62243 42.1985 3.50659 42.5171L1.31522 48.512ZM2.66672 46.3785C2.63776 46.3785 2.61846 46.3592 2.63776 46.311L3.48728 43.7045C3.53555 43.5597 3.58382 43.5597 3.63208 43.7045L4.54918 46.311C4.55883 46.3496 4.55883 46.3785 4.51056 46.3785H2.66672ZM8.29463 49.6801C8.758 49.6801 9.28895 49.6222 9.64613 49.3905C10.2543 48.9947 10.4377 48.4734 10.4377 47.9907C10.4377 47.286 10.0805 46.7164 9.04761 46.0117L8.80627 45.8476C7.96641 45.278 7.70576 44.9788 7.70576 44.4575C7.70576 43.8783 8.2174 43.5693 8.83523 43.5693C9.59787 43.5693 9.87782 43.8783 9.93574 43.9748C9.98401 44.0617 10.0516 44.2837 10.0612 44.3802C10.0709 44.4478 10.0805 44.4864 10.1385 44.4864C10.1964 44.4864 10.206 44.4285 10.206 44.303C10.206 43.7431 10.2447 43.4728 10.2447 43.4342C10.2447 43.3859 10.2254 43.3763 10.1578 43.3763C10.0902 43.3763 10.0226 43.3763 9.85851 43.3376C9.65579 43.2894 9.31791 43.2411 8.98004 43.2411C7.86022 43.2411 7.09758 43.8203 7.09758 44.7857C7.09758 45.3553 7.39684 45.8572 8.31394 46.5426L8.70008 46.8323C9.45306 47.3922 9.77163 47.6721 9.77163 48.261C9.77163 48.8788 9.33722 49.3518 8.49735 49.3518C7.92779 49.3518 7.29065 49.1395 7.1555 48.5409C7.12654 48.4251 7.12654 48.3093 7.12654 48.2417C7.12654 48.1741 7.09758 48.1451 7.04931 48.1451C7.00104 48.1451 6.98174 48.1934 6.98174 48.2803C6.97208 48.4154 6.93347 48.7437 6.93347 49.1491C6.93347 49.3712 6.94312 49.4001 7.05897 49.458C7.4065 49.6222 7.89883 49.6801 8.29463 49.6801ZM12.3918 49.6801C12.8551 49.6801 13.3861 49.6222 13.7433 49.3905C14.3514 48.9947 14.5349 48.4734 14.5349 47.9907C14.5349 47.286 14.1777 46.7164 13.1447 46.0117L12.9034 45.8476C12.0635 45.278 11.8029 44.9788 11.8029 44.4575C11.8029 43.8783 12.3145 43.5693 12.9324 43.5693C13.695 43.5693 13.9749 43.8783 14.0329 43.9748C14.0811 44.0617 14.1487 44.2837 14.1584 44.3802C14.168 44.4478 14.1777 44.4864 14.2356 44.4864C14.2935 44.4864 14.3032 44.4285 14.3032 44.303C14.3032 43.7431 14.3418 43.4728 14.3418 43.4342C14.3418 43.3859 14.3225 43.3763 14.2549 43.3763C14.1873 43.3763 14.1198 43.3763 13.9556 43.3376C13.7529 43.2894 13.415 43.2411 13.0772 43.2411C11.9573 43.2411 11.1947 43.8203 11.1947 44.7857C11.1947 45.3553 11.494 45.8572 12.4111 46.5426L12.7972 46.8323C13.5502 47.3922 13.8688 47.6721 13.8688 48.261C13.8688 48.8788 13.4343 49.3518 12.5945 49.3518C12.0249 49.3518 11.3878 49.1395 11.2526 48.5409C11.2237 48.4251 11.2237 48.3093 11.2237 48.2417C11.2237 48.1741 11.1947 48.1451 11.1464 48.1451C11.0982 48.1451 11.0789 48.1934 11.0789 48.2803C11.0692 48.4154 11.0306 48.7437 11.0306 49.1491C11.0306 49.3712 11.0403 49.4001 11.1561 49.458C11.5036 49.6222 11.996 49.6801 12.3918 49.6801ZM15.0022 46.4558C15.0022 47.9328 15.9966 49.6801 18.3231 49.6801C20.3696 49.6801 21.7308 48.1645 21.7308 46.3303C21.7308 44.4189 20.2828 43.2508 18.3713 43.2508C16.0255 43.2508 15.0022 45.1332 15.0022 46.4558ZM15.8807 46.2337C15.8807 44.4478 16.904 43.5597 18.3231 43.5597C19.6649 43.5597 20.862 44.5926 20.862 46.562C20.862 48.9367 19.327 49.3422 18.5644 49.3422C17.0295 49.3422 15.8807 48.1451 15.8807 46.2337ZM25.6658 49.6801C26.216 49.6801 26.8532 49.6318 27.2007 49.4967C27.3455 49.4387 27.3648 49.4098 27.4131 49.2553C27.5 48.9754 27.6158 48.261 27.6158 48.2031C27.6158 48.1451 27.5772 48.0872 27.5386 48.0872C27.4807 48.0872 27.471 48.1162 27.4517 48.2031C27.4227 48.3575 27.3069 48.7051 27.1235 48.8885C26.7856 49.2264 26.3608 49.2746 25.7237 49.2746C23.9088 49.2746 22.6635 47.8748 22.6635 46.3013C22.6635 45.4711 22.7987 44.7374 23.4261 44.1582C23.7254 43.8783 24.2467 43.5886 25.3376 43.5886C26.0905 43.5886 26.7084 43.7914 27.0076 44.0424C27.2297 44.2161 27.3648 44.5444 27.3648 44.8629C27.3648 44.9788 27.3745 45.0367 27.4324 45.0367C27.4807 45.0367 27.5193 44.9884 27.5289 44.8629C27.5386 44.7471 27.5386 44.2934 27.5482 44.0231C27.5675 43.7238 27.5868 43.6273 27.5868 43.5597C27.5868 43.5114 27.5675 43.4728 27.4807 43.4728C27.2007 43.4631 26.9304 43.4052 26.6118 43.3473C26.1967 43.2797 25.714 43.2508 25.3762 43.2508C24.0729 43.2508 23.3006 43.6369 22.789 44.1292C22.036 44.8629 21.8333 45.8186 21.8333 46.3689C21.8333 47.1508 22.036 48.0872 22.8662 48.8016C23.5323 49.3808 24.3915 49.6801 25.6658 49.6801ZM29.4404 45.7414C29.4404 44.4671 29.4404 44.2354 29.4501 43.9748C29.4694 43.6852 29.5176 43.5693 29.7493 43.5211C29.8459 43.5018 29.9038 43.5018 29.9617 43.5018C29.9907 43.5018 30.0293 43.4631 30.0293 43.4342C30.0293 43.3859 29.9907 43.3666 29.8941 43.3666C29.6335 43.3666 29.0832 43.3859 29.0446 43.3859C28.9963 43.3859 28.4654 43.3666 28.1854 43.3666C28.0889 43.3666 28.0503 43.3859 28.0503 43.4342C28.0503 43.4631 28.0793 43.5018 28.1179 43.5018C28.1758 43.5018 28.282 43.5114 28.3785 43.5307C28.5619 43.5693 28.6295 43.6948 28.6488 43.9748C28.6681 44.2354 28.6681 44.4671 28.6681 45.7414V47.1894C28.6681 47.981 28.6585 48.6278 28.6199 48.9657C28.5909 49.207 28.5619 49.3615 28.3978 49.4001C28.3206 49.4194 28.2144 49.4387 28.1372 49.4387C28.0889 49.4387 28.0696 49.4773 28.0696 49.5063C28.0696 49.5546 28.1179 49.5739 28.2048 49.5739C28.4654 49.5739 28.9963 49.5449 29.0446 49.5449C29.0832 49.5449 29.6335 49.5739 30.1065 49.5739C30.203 49.5739 30.2417 49.5449 30.2417 49.5063C30.2417 49.4773 30.2224 49.4387 30.1741 49.4387C30.0969 49.4387 29.9134 49.4194 29.7879 49.4001C29.5369 49.3615 29.508 49.207 29.479 48.9657C29.4404 48.6278 29.4404 47.981 29.4404 47.1894V45.7414ZM30.7501 48.6664C30.586 49.0815 30.4219 49.3712 30.0358 49.4194C29.9682 49.4291 29.8427 49.4387 29.7848 49.4387C29.7462 49.4387 29.7075 49.4677 29.7075 49.5063C29.7075 49.5546 29.7655 49.5739 29.8717 49.5739C30.2192 49.5739 30.6439 49.5449 30.7308 49.5449C30.8274 49.5449 31.2907 49.5739 31.4935 49.5739C31.5707 49.5739 31.619 49.5546 31.619 49.5063C31.619 49.4677 31.5997 49.4387 31.5321 49.4387H31.4548C31.31 49.4387 31.1652 49.3808 31.1652 49.2167C31.1652 49.0719 31.2135 48.8692 31.2907 48.6664L31.7734 47.3536C31.7927 47.3053 31.8217 47.286 31.8603 47.286H33.82C33.8683 47.286 33.8779 47.2956 33.8972 47.3342L34.6598 49.2167C34.7178 49.3518 34.6309 49.4194 34.5826 49.4387C34.544 49.458 34.5247 49.458 34.5247 49.4967C34.5247 49.5449 34.6598 49.5449 34.824 49.5546C35.4128 49.5739 36.0403 49.5739 36.1658 49.5739C36.2623 49.5739 36.3589 49.5546 36.3589 49.5063C36.3589 49.458 36.301 49.4387 36.2527 49.4387C36.1658 49.4387 36.0403 49.4291 35.9148 49.3905C35.7314 49.3325 35.4997 49.2264 35.1908 48.4927C34.6695 47.2474 33.3083 43.8589 33.1539 43.5114C33.067 43.328 33.038 43.2122 32.9512 43.2122C32.8932 43.2122 32.8546 43.2604 32.7484 43.5307L30.7501 48.6664ZM31.9761 46.9481C31.9472 46.9481 31.9375 46.9288 31.9472 46.8902L32.7388 44.6409C32.787 44.5154 32.8353 44.5154 32.8836 44.6409L33.7234 46.8902C33.7331 46.9288 33.7331 46.9481 33.6945 46.9481H31.9761ZM39.0525 49.6704C39.1587 49.6801 39.2649 49.6801 39.3807 49.6801C39.931 49.6801 40.5681 49.6318 40.9156 49.4967C41.0604 49.4387 41.0797 49.4098 41.128 49.2553C41.2149 48.9754 41.3307 48.261 41.3307 48.2031C41.3307 48.1451 41.2921 48.0872 41.2535 48.0872C41.1956 48.0872 41.1859 48.1162 41.1666 48.2031C41.1377 48.3575 41.0218 48.7051 40.8384 48.8885C40.5005 49.2264 40.0758 49.2746 39.4386 49.2746C37.6237 49.2746 36.3784 47.8748 36.3784 46.3013C36.3784 45.4711 36.5136 44.7374 37.1411 44.1582C37.4403 43.8783 37.9616 43.5886 39.0525 43.5886C39.8055 43.5886 40.4233 43.7914 40.7225 44.0424C40.9446 44.2161 41.0797 44.5444 41.0797 44.8629C41.0797 44.9788 41.0894 45.0367 41.1473 45.0367C41.1956 45.0367 41.2342 44.9884 41.2438 44.8629C41.2535 44.7471 41.2535 44.2934 41.2631 44.0231C41.2825 43.7238 41.3018 43.6273 41.3018 43.5597C41.3018 43.5114 41.2825 43.4728 41.1956 43.4728C40.9156 43.4631 40.6453 43.3859 40.3267 43.3376C39.9116 43.2701 39.429 43.2508 39.0911 43.2508C37.7878 43.2508 37.0156 43.6369 36.5039 44.1292C35.7509 44.8629 35.5482 45.8186 35.5482 46.3689C35.5482 47.1508 35.7509 48.0872 36.5811 48.8016C37.1217 49.265 37.7878 49.5546 38.6953 49.6511L38.0775 50.1531C37.9906 50.2207 37.952 50.2593 37.952 50.2883C37.952 50.3269 37.9906 50.3462 38.0968 50.3751C38.6663 50.5392 38.7918 50.7999 38.7918 51.0798C38.7918 51.4274 38.4153 51.6301 38.0775 51.6687C37.9713 51.6784 37.8844 51.688 37.8844 51.7749C37.8844 51.8232 37.9423 51.8521 38.0099 51.8521C38.1933 51.8521 38.5022 51.7942 38.7629 51.6784C39.0911 51.5432 39.4483 51.2633 39.4483 50.8868C39.4483 50.491 39.0814 50.2593 38.4829 50.2014C38.5505 50.1338 38.8594 49.8442 39.0525 49.6704ZM41.6783 48.6664C41.5142 49.0815 41.3501 49.3712 40.964 49.4194C40.8964 49.4291 40.7709 49.4387 40.713 49.4387C40.6744 49.4387 40.6357 49.4677 40.6357 49.5063C40.6357 49.5546 40.6937 49.5739 40.7998 49.5739C41.1474 49.5739 41.5721 49.5449 41.659 49.5449C41.7556 49.5449 42.2189 49.5739 42.4217 49.5739C42.4989 49.5739 42.5472 49.5546 42.5472 49.5063C42.5472 49.4677 42.5278 49.4387 42.4603 49.4387H42.383C42.2382 49.4387 42.0934 49.3808 42.0934 49.2167C42.0934 49.0719 42.1417 48.8692 42.2189 48.6664L42.7016 47.3536C42.7209 47.3053 42.7499 47.286 42.7885 47.286H44.7482C44.7964 47.286 44.8061 47.2956 44.8254 47.3342L45.588 49.2167C45.646 49.3518 45.5591 49.4194 45.5108 49.4387C45.4722 49.458 45.4529 49.458 45.4529 49.4967C45.4529 49.5449 45.588 49.5449 45.7522 49.5546C46.341 49.5739 46.9685 49.5739 47.094 49.5739C47.1905 49.5739 47.2871 49.5546 47.2871 49.5063C47.2871 49.458 47.2292 49.4387 47.1809 49.4387C47.094 49.4387 46.9685 49.4291 46.843 49.3905C46.6596 49.3325 46.4279 49.2264 46.119 48.4927C45.5977 47.2474 44.2365 43.8589 44.0821 43.5114C43.9952 43.328 43.9662 43.2122 43.8793 43.2122C43.8214 43.2122 43.7828 43.2604 43.6766 43.5307L41.6783 48.6664ZM42.9043 46.9481C42.8754 46.9481 42.8657 46.9288 42.8754 46.8902L43.667 44.6409C43.7152 44.5154 43.7635 44.5154 43.8118 44.6409L44.6516 46.8902C44.6613 46.9288 44.6613 46.9481 44.6227 46.9481H42.9043ZM44.5841 42.6426C44.8833 42.6426 45.3081 42.1309 45.3853 41.9765C45.4143 41.9186 45.4239 41.8896 45.4239 41.851C45.4239 41.822 45.395 41.7931 45.3564 41.7931C45.3274 41.7931 45.2791 41.8413 45.2405 41.8993C45.2115 41.9379 45.0088 42.1792 44.6516 42.1792C44.4972 42.1792 44.2269 42.0827 44.0917 42.0151C43.7925 41.8703 43.5125 41.7158 43.2808 41.7158C42.9719 41.7158 42.5858 42.1889 42.4506 42.4012C42.412 42.4592 42.383 42.4978 42.383 42.5461C42.383 42.575 42.4023 42.604 42.441 42.604C42.4796 42.604 42.5278 42.575 42.5761 42.5171C42.6437 42.4399 42.8271 42.1696 43.165 42.1696C43.4642 42.1696 43.6477 42.3144 43.8214 42.3916C43.9566 42.4592 44.2655 42.6426 44.5841 42.6426ZM46.4764 46.4558C46.4764 47.9328 47.4707 49.6801 49.7972 49.6801C51.8438 49.6801 53.205 48.1645 53.205 46.3303C53.205 44.4189 51.7569 43.2508 49.8455 43.2508C47.4997 43.2508 46.4764 45.1332 46.4764 46.4558ZM47.3549 46.2337C47.3549 44.4478 48.3782 43.5597 49.7972 43.5597C51.1391 43.5597 52.3361 44.5926 52.3361 46.562C52.3361 48.9367 50.8012 49.3422 50.0386 49.3422C48.5037 49.3422 47.3549 48.1451 47.3549 46.2337ZM56.804 43.6369C57.1129 43.9844 58.2037 45.2008 59.3235 46.4075C60.3468 47.508 61.7369 48.9271 61.8431 49.0236C62.3548 49.5353 62.4706 49.6415 62.5479 49.6415C62.6154 49.6415 62.6347 49.5932 62.6347 48.9561L62.654 43.299C62.654 42.7198 62.6927 42.5074 63.0112 42.4399C63.1271 42.4109 63.1946 42.4109 63.2429 42.4109C63.3105 42.4109 63.3491 42.3819 63.3491 42.3433C63.3491 42.2854 63.2815 42.2758 63.1753 42.2758C62.7795 42.2758 62.461 42.3047 62.3548 42.3047C62.2486 42.3047 61.7852 42.2758 61.3508 42.2758C61.235 42.2758 61.1577 42.2854 61.1577 42.3433C61.1577 42.3819 61.1674 42.4109 61.235 42.4109C61.3122 42.4109 61.5342 42.4206 61.708 42.4592C62.0072 42.5364 62.0748 42.7488 62.0845 43.3763L62.1907 48.2803C61.8818 47.9617 60.8295 46.784 59.8738 45.7607C58.3871 44.1679 56.9488 42.6136 56.804 42.4495C56.7074 42.353 56.5433 42.1406 56.4661 42.1406C56.3888 42.1406 56.3599 42.2468 56.3599 42.6233L56.3502 48.1548C56.3502 49.0333 56.302 49.3132 56.0606 49.3808C55.9158 49.4291 55.7421 49.4387 55.6648 49.4387C55.6166 49.4387 55.5876 49.458 55.5876 49.4967C55.5876 49.5642 55.6455 49.5739 55.7421 49.5739C56.1765 49.5739 56.5819 49.5449 56.6688 49.5449C56.7557 49.5449 57.1418 49.5739 57.6921 49.5739C57.8079 49.5739 57.8658 49.5546 57.8658 49.4967C57.8658 49.458 57.8369 49.4387 57.7886 49.4387C57.7017 49.4387 57.4894 49.4291 57.3059 49.3808C57.0453 49.3036 56.9488 49.0526 56.9294 48.261L56.804 43.6369ZM63.5097 46.4558C63.5097 47.9328 64.5041 49.6801 66.8306 49.6801C68.8772 49.6801 70.2383 48.1645 70.2383 46.3303C70.2383 44.4189 68.7903 43.2508 66.8789 43.2508C64.533 43.2508 63.5097 45.1332 63.5097 46.4558ZM64.3882 46.2337C64.3882 44.4478 65.4115 43.5597 66.8306 43.5597C68.1724 43.5597 69.3695 44.5926 69.3695 46.562C69.3695 48.9367 67.8346 49.3422 67.0719 49.3422C65.537 49.3422 64.3882 48.1451 64.3882 46.2337ZM71.0422 47.1894C71.0422 47.981 71.0422 48.6278 70.9939 48.9657C70.9553 49.207 70.936 49.3615 70.7719 49.4001C70.6947 49.4194 70.5885 49.4387 70.5113 49.4387C70.463 49.4387 70.4437 49.4773 70.4437 49.5063C70.4437 49.5546 70.4919 49.5739 70.5788 49.5739C70.8395 49.5739 71.409 49.5449 71.4187 49.5449C71.4573 49.5449 71.9979 49.5739 72.4613 49.5739C72.5578 49.5739 72.5964 49.5449 72.5964 49.5063C72.5964 49.4773 72.5868 49.4387 72.5289 49.4387C72.4516 49.4387 72.2682 49.4194 72.1524 49.4001C71.8917 49.3615 71.8435 49.207 71.8145 48.9657C71.7759 48.6278 71.7759 47.9907 71.7759 47.1991V47.006C71.7759 46.9578 71.7952 46.9384 71.8338 46.9384L72.915 46.9578C72.9729 46.9578 72.9922 46.9674 73.0308 47.006C73.2143 47.2281 73.5908 47.759 73.9479 48.2031C74.4306 48.8209 74.7395 49.2167 75.1064 49.4098C75.3188 49.5256 75.5311 49.5739 76.0138 49.5739H76.5448C76.6992 49.5739 76.7475 49.5546 76.7475 49.5063C76.7475 49.4773 76.7185 49.4387 76.6703 49.4387C76.622 49.4387 76.5351 49.4387 76.371 49.4098C76.1586 49.3808 75.8787 49.3036 75.4249 48.8402C74.9326 48.3286 74.3437 47.5852 73.6487 46.7164C74.4403 46.0407 74.6913 45.4518 74.6913 44.8436C74.6913 44.274 74.3148 43.8783 74.1024 43.7238C73.6583 43.4149 73.0598 43.3666 72.5192 43.3666C72.2586 43.3666 71.5442 43.3859 71.4573 43.3859C71.409 43.3859 70.8395 43.3666 70.4533 43.3666C70.3568 43.3666 70.3182 43.3859 70.3182 43.4342C70.3182 43.4631 70.3568 43.5018 70.3858 43.5018C70.463 43.5018 70.6078 43.5114 70.6754 43.5211C70.9553 43.5597 71.0036 43.6948 71.0229 43.9748C71.0422 44.2354 71.0422 44.4671 71.0422 45.7414V47.1894ZM71.7759 43.801C71.7759 43.7528 71.8048 43.7238 71.8435 43.7045C71.9303 43.6852 72.2006 43.6562 72.4516 43.6562C73.3591 43.6562 73.919 44.2451 73.919 45.2684C73.919 45.8959 73.6969 46.3303 73.4073 46.5233C73.2046 46.6585 72.9729 46.6681 72.7702 46.6681C72.3937 46.6681 71.9593 46.6102 71.8338 46.5426C71.7952 46.5137 71.7759 46.4847 71.7759 46.4365V43.801ZM77.9733 43.7431L79.0352 43.7624C79.8461 43.7817 80.0295 43.9651 80.0585 44.2161L80.0681 44.303C80.0778 44.4189 80.0971 44.4478 80.1357 44.4478C80.1743 44.4478 80.2129 44.4092 80.2129 44.3416C80.2129 44.2451 80.2419 43.6562 80.2419 43.4052C80.2419 43.357 80.2419 43.3087 80.2033 43.3087C80.1646 43.3087 80.0874 43.328 79.9619 43.3473C79.8268 43.3666 79.6337 43.3859 79.3537 43.3859H76.1487C76.0522 43.3859 75.724 43.3763 75.4826 43.3473C75.251 43.3183 75.1641 43.2508 75.1061 43.2508C75.0772 43.2508 75.0289 43.357 75.0193 43.4052C75 43.4728 74.8358 44.2065 74.8358 44.2934C74.8358 44.3416 74.8745 44.3609 74.8938 44.3609C74.9324 44.3609 74.9613 44.3513 74.9807 44.2837C75.0096 44.2258 75.0193 44.1679 75.1158 44.0231C75.2413 43.83 75.444 43.7721 75.975 43.7624L77.201 43.7431V47.1894C77.201 47.981 77.201 48.6278 77.1624 48.9657C77.1334 49.207 77.0851 49.3712 76.9114 49.4098C76.8341 49.4291 76.7376 49.4484 76.6604 49.4484C76.6121 49.4484 76.5928 49.4773 76.5928 49.5063C76.5928 49.5546 76.6314 49.5739 76.728 49.5739C76.9789 49.5739 77.5678 49.5449 77.6064 49.5449C77.6547 49.5449 78.1953 49.5739 78.6587 49.5739C78.7552 49.5739 78.7938 49.5449 78.7938 49.5063C78.7938 49.4773 78.7842 49.4387 78.7263 49.4387C78.649 49.4387 78.456 49.4194 78.3401 49.4001C78.0795 49.3615 78.0408 49.207 78.0119 48.9657C77.9733 48.6278 77.9733 47.981 77.9733 47.1894V43.7431ZM81.0465 47.1894C81.0465 47.981 81.0465 48.6278 80.9982 48.9657C80.9596 49.207 80.9403 49.3712 80.7762 49.4001C80.699 49.4098 80.5928 49.4387 80.5156 49.4387C80.4673 49.4387 80.448 49.4773 80.448 49.5063C80.448 49.5546 80.4963 49.5739 80.5831 49.5739C80.7183 49.5739 80.9114 49.5642 81.0755 49.5546C81.2589 49.5449 81.423 49.5449 81.4423 49.5449C81.5678 49.5449 81.7898 49.5449 82.147 49.5642C82.4946 49.5739 82.9869 49.5932 83.624 49.5932C83.9522 49.5932 84.0391 49.5932 84.0971 49.3808C84.1453 49.207 84.2129 48.6471 84.2129 48.5892C84.2129 48.5313 84.2032 48.4637 84.155 48.4637C84.1067 48.4637 84.0874 48.4927 84.0681 48.5892C84.0198 48.9174 83.904 49.0622 83.6819 49.1588C83.4599 49.2457 83.0545 49.2457 82.8324 49.2457C81.9926 49.2457 81.8381 49.1395 81.8188 48.5892C81.8091 48.4251 81.8188 47.4694 81.8188 47.1894V46.504C81.8188 46.4751 81.8285 46.4461 81.8767 46.4461C82.0215 46.4461 82.929 46.4558 83.1607 46.4847C83.4889 46.5233 83.5661 46.6199 83.5951 46.7357C83.6337 46.8419 83.6337 46.9288 83.6337 47.006C83.6337 47.0543 83.653 47.0833 83.6916 47.0833C83.7495 47.0833 83.7688 46.9964 83.7688 46.9288C83.7688 46.8709 83.7881 46.562 83.8074 46.3978C83.8268 46.1275 83.875 45.9924 83.875 45.9441C83.875 45.8959 83.8557 45.8765 83.8268 45.8765C83.7978 45.8765 83.7592 45.9248 83.7013 45.9827C83.6144 46.0696 83.4889 46.0793 83.2861 46.0986C83.0931 46.1179 81.9733 46.1179 81.8671 46.1179C81.8188 46.1179 81.8188 46.0889 81.8188 46.031V43.801C81.8188 43.7431 81.8285 43.7141 81.8671 43.7141C81.9636 43.7141 82.9483 43.7238 83.0931 43.7431C83.5565 43.801 83.6433 43.8589 83.7013 43.9941C83.7399 44.0906 83.7495 44.2258 83.7495 44.2837C83.7495 44.3513 83.7688 44.3899 83.8171 44.3899C83.8557 44.3899 83.8847 44.3416 83.8943 44.303C83.9136 44.2065 83.9329 43.8396 83.9426 43.7624C83.9619 43.5307 84.0102 43.4342 84.0102 43.3763C84.0102 43.3376 84.0005 43.299 83.9716 43.299C83.9329 43.299 83.8943 43.328 83.8557 43.3376C83.7881 43.3473 83.6337 43.3763 83.4696 43.3859C83.2765 43.3956 81.5002 43.3859 81.4423 43.3859C81.394 43.3859 80.8438 43.3666 80.4576 43.3666C80.3611 43.3666 80.3225 43.3859 80.3225 43.4342C80.3225 43.4631 80.3611 43.5018 80.3901 43.5018C80.4673 43.5018 80.6121 43.5114 80.6797 43.5211C80.9596 43.5597 81.0079 43.6948 81.0272 43.9748C81.0465 44.2354 81.0465 44.4671 81.0465 45.7414V47.1894ZM84.6066 46.5523C84.4521 46.5523 84.4135 46.562 84.3942 46.6295L84.2494 47.1701C84.2301 47.257 84.2397 47.3149 84.2977 47.3149C84.3459 47.3149 84.51 47.2184 84.6935 47.1701C85.0217 47.0833 86.7304 46.8516 86.991 46.8129C87.1455 46.784 87.3289 46.7647 87.3289 46.6488C87.3289 46.5716 87.2034 46.5523 87.0393 46.5523H84.6066ZM88.1943 47.1894C88.1943 47.981 88.1943 48.6278 88.1461 48.9657C88.1074 49.207 88.0881 49.3615 87.924 49.4001C87.8468 49.4194 87.7406 49.4387 87.6634 49.4387C87.6151 49.4387 87.5958 49.4773 87.5958 49.5063C87.5958 49.5546 87.6441 49.5739 87.731 49.5739C87.9916 49.5739 88.5612 49.5449 88.5708 49.5449C88.6094 49.5449 89.15 49.5739 89.6134 49.5739C89.7099 49.5739 89.7486 49.5449 89.7486 49.5063C89.7486 49.4773 89.7389 49.4387 89.681 49.4387C89.6038 49.4387 89.4203 49.4194 89.3045 49.4001C89.0438 49.3615 88.9956 49.207 88.9666 48.9657C88.928 48.6278 88.928 47.9907 88.928 47.1991V47.006C88.928 46.9578 88.9473 46.9384 88.9859 46.9384L90.0671 46.9578C90.1251 46.9578 90.1444 46.9674 90.183 47.006C90.3664 47.2281 90.7429 47.759 91.1001 48.2031C91.5827 48.8209 91.8917 49.2167 92.2585 49.4098C92.4709 49.5256 92.6833 49.5739 93.1659 49.5739H93.6969C93.8513 49.5739 93.8996 49.5546 93.8996 49.5063C93.8996 49.4773 93.8707 49.4387 93.8224 49.4387C93.7741 49.4387 93.6872 49.4387 93.5231 49.4098C93.3107 49.3808 93.0308 49.3036 92.5771 48.8402C92.0847 48.3286 91.4959 47.5852 90.8008 46.7164C91.5924 46.0407 91.8434 45.4518 91.8434 44.8436C91.8434 44.274 91.4669 43.8783 91.2545 43.7238C90.8105 43.4149 90.2119 43.3666 89.6713 43.3666C89.4107 43.3666 88.6963 43.3859 88.6094 43.3859C88.5612 43.3859 87.9916 43.3666 87.6055 43.3666C87.5089 43.3666 87.4703 43.3859 87.4703 43.4342C87.4703 43.4631 87.5089 43.5018 87.5379 43.5018C87.6151 43.5018 87.7599 43.5114 87.8275 43.5211C88.1074 43.5597 88.1557 43.6948 88.175 43.9748C88.1943 44.2354 88.1943 44.4671 88.1943 45.7414V47.1894ZM88.928 43.801C88.928 43.7528 88.957 43.7238 88.9956 43.7045C89.0825 43.6852 89.3528 43.6562 89.6038 43.6562C90.5112 43.6562 91.0711 44.2451 91.0711 45.2684C91.0711 45.8959 90.8491 46.3303 90.5595 46.5233C90.3567 46.6585 90.1251 46.6681 89.9223 46.6681C89.5458 46.6681 89.1114 46.6102 88.9859 46.5426C88.9473 46.5137 88.928 46.4847 88.928 46.4365V43.801ZM94.4873 45.7414C94.4873 44.4671 94.4873 44.2354 94.4969 43.9748C94.5162 43.6852 94.5645 43.5693 94.7962 43.5211C94.8927 43.5018 94.9507 43.5018 95.0086 43.5018C95.0375 43.5018 95.0762 43.4631 95.0762 43.4342C95.0762 43.3859 95.0375 43.3666 94.941 43.3666C94.6804 43.3666 94.1301 43.3859 94.0915 43.3859C94.0432 43.3859 93.5123 43.3666 93.2323 43.3666C93.1358 43.3666 93.0972 43.3859 93.0972 43.4342C93.0972 43.4631 93.1261 43.5018 93.1647 43.5018C93.2227 43.5018 93.3288 43.5114 93.4254 43.5307C93.6088 43.5693 93.6764 43.6948 93.6957 43.9748C93.715 44.2354 93.715 44.4671 93.715 45.7414V47.1894C93.715 47.981 93.7053 48.6278 93.6667 48.9657C93.6378 49.207 93.6088 49.3615 93.4447 49.4001C93.3675 49.4194 93.2613 49.4387 93.184 49.4387C93.1358 49.4387 93.1165 49.4773 93.1165 49.5063C93.1165 49.5546 93.1647 49.5739 93.2516 49.5739C93.5123 49.5739 94.0432 49.5449 94.0915 49.5449C94.1301 49.5449 94.6804 49.5739 95.1534 49.5739C95.2499 49.5739 95.2885 49.5449 95.2885 49.5063C95.2885 49.4773 95.2692 49.4387 95.221 49.4387C95.1437 49.4387 94.9603 49.4194 94.8348 49.4001C94.5838 49.3615 94.5549 49.207 94.5259 48.9657C94.4873 48.6278 94.4873 47.981 94.4873 47.1894V45.7414ZM95.4044 46.4558C95.4044 47.9328 96.3987 49.6801 98.7252 49.6801C100.772 49.6801 102.133 48.1645 102.133 46.3303C102.133 44.4189 100.685 43.2508 98.7735 43.2508C96.4277 43.2508 95.4044 45.1332 95.4044 46.4558ZM96.2829 46.2337C96.2829 44.4478 97.3061 43.5597 98.7252 43.5597C100.067 43.5597 101.264 44.5926 101.264 46.562C101.264 48.9367 99.7292 49.3422 98.9666 49.3422C97.4316 49.3422 96.2829 48.1451 96.2829 46.2337ZM107.197 48.8981C107.197 49.0526 107.13 49.0912 107.024 49.1491C106.802 49.2746 106.406 49.3036 106.107 49.3036C105.325 49.3036 104.61 49.0719 103.934 48.4444C103.635 48.1645 103.037 47.3342 103.037 46.1758C103.037 45.2201 103.384 44.4864 103.877 44.1099C104.523 43.6176 105.141 43.579 105.653 43.579C106.753 43.579 107.4 43.9072 107.613 44.2161C107.748 44.4092 107.796 44.6505 107.806 44.7567C107.806 44.834 107.815 44.8822 107.863 44.8822C107.921 44.8822 107.96 44.8436 107.96 44.7085C107.96 43.8879 108.008 43.6659 108.008 43.55C108.008 43.5114 107.989 43.4728 107.902 43.4728C107.69 43.4728 107.39 43.4245 107.217 43.3859C107.053 43.3473 106.454 43.2508 105.913 43.2508C105.267 43.2508 104.417 43.3087 103.655 43.7721C102.902 44.2258 102.235 45.1525 102.235 46.4654C102.235 47.4887 102.728 48.3672 103.249 48.8016C104.195 49.6028 105.402 49.6801 106.049 49.6801C106.541 49.6801 107.313 49.5932 107.854 49.3132C107.96 49.2553 107.97 49.2457 107.97 48.8692V47.9521C107.97 47.6045 107.97 47.3632 107.979 47.1026C107.999 46.8129 108.066 46.6875 108.298 46.6488C108.394 46.6295 108.452 46.6295 108.51 46.6295C108.539 46.6295 108.578 46.5909 108.578 46.562C108.578 46.504 108.539 46.4944 108.443 46.4944C108.182 46.4944 107.651 46.5137 107.613 46.5137C107.564 46.5137 106.995 46.4944 106.609 46.4944C106.512 46.4944 106.473 46.504 106.473 46.562C106.473 46.5909 106.512 46.6295 106.541 46.6295C106.618 46.6295 106.763 46.6392 106.831 46.6488C107.178 46.7164 107.197 46.8129 107.197 47.479V48.8981ZM109.56 47.1894C109.56 47.981 109.56 48.6278 109.512 48.9657C109.474 49.207 109.454 49.3615 109.29 49.4001C109.213 49.4194 109.107 49.4387 109.03 49.4387C108.981 49.4387 108.962 49.4773 108.962 49.5063C108.962 49.5546 109.01 49.5739 109.097 49.5739C109.358 49.5739 109.927 49.5449 109.937 49.5449C109.976 49.5449 110.516 49.5739 110.98 49.5739C111.076 49.5739 111.115 49.5449 111.115 49.5063C111.115 49.4773 111.105 49.4387 111.047 49.4387C110.97 49.4387 110.786 49.4194 110.671 49.4001C110.41 49.3615 110.362 49.207 110.333 48.9657C110.294 48.6278 110.294 47.9907 110.294 47.1991V47.006C110.294 46.9578 110.313 46.9384 110.352 46.9384L111.433 46.9578C111.491 46.9578 111.511 46.9674 111.549 47.006C111.733 47.2281 112.109 47.759 112.466 48.2031C112.949 48.8209 113.258 49.2167 113.625 49.4098C113.837 49.5256 114.049 49.5739 114.532 49.5739H115.063C115.218 49.5739 115.266 49.5546 115.266 49.5063C115.266 49.4773 115.237 49.4387 115.189 49.4387C115.14 49.4387 115.053 49.4387 114.889 49.4098C114.677 49.3808 114.397 49.3036 113.943 48.8402C113.451 48.3286 112.862 47.5852 112.167 46.7164C112.959 46.0407 113.21 45.4518 113.21 44.8436C113.21 44.274 112.833 43.8783 112.621 43.7238C112.177 43.4149 111.578 43.3666 111.037 43.3666C110.777 43.3666 110.062 43.3859 109.976 43.3859C109.927 43.3859 109.358 43.3666 108.972 43.3666C108.875 43.3666 108.836 43.3859 108.836 43.4342C108.836 43.4631 108.875 43.5018 108.904 43.5018C108.981 43.5018 109.126 43.5114 109.194 43.5211C109.474 43.5597 109.522 43.6948 109.541 43.9748C109.56 44.2354 109.56 44.4671 109.56 45.7414V47.1894ZM110.294 43.801C110.294 43.7528 110.323 43.7238 110.362 43.7045C110.449 43.6852 110.719 43.6562 110.97 43.6562C111.877 43.6562 112.437 44.2451 112.437 45.2684C112.437 45.8959 112.215 46.3303 111.926 46.5233C111.723 46.6585 111.491 46.6681 111.288 46.6681C110.912 46.6681 110.478 46.6102 110.352 46.5426C110.313 46.5137 110.294 46.4847 110.294 46.4365V43.801ZM114.424 48.6664C114.259 49.0815 114.095 49.3712 113.709 49.4194C113.642 49.4291 113.516 49.4387 113.458 49.4387C113.42 49.4387 113.381 49.4677 113.381 49.5063C113.381 49.5546 113.439 49.5739 113.545 49.5739C113.893 49.5739 114.317 49.5449 114.404 49.5449C114.501 49.5449 114.964 49.5739 115.167 49.5739C115.244 49.5739 115.292 49.5546 115.292 49.5063C115.292 49.4677 115.273 49.4387 115.206 49.4387H115.128C114.983 49.4387 114.839 49.3808 114.839 49.2167C114.839 49.0719 114.887 48.8692 114.964 48.6664L115.447 47.3536C115.466 47.3053 115.495 47.286 115.534 47.286H117.493C117.542 47.286 117.551 47.2956 117.571 47.3342L118.333 49.2167C118.391 49.3518 118.304 49.4194 118.256 49.4387C118.217 49.458 118.198 49.458 118.198 49.4967C118.198 49.5449 118.333 49.5449 118.497 49.5546C119.086 49.5739 119.714 49.5739 119.839 49.5739C119.936 49.5739 120.032 49.5546 120.032 49.5063C120.032 49.458 119.974 49.4387 119.926 49.4387C119.839 49.4387 119.714 49.4291 119.588 49.3905C119.405 49.3325 119.173 49.2264 118.864 48.4927C118.343 47.2474 116.982 43.8589 116.827 43.5114C116.74 43.328 116.711 43.2122 116.625 43.2122C116.567 43.2122 116.528 43.2604 116.422 43.5307L114.424 48.6664ZM115.65 46.9481C115.621 46.9481 115.611 46.9288 115.621 46.8902L116.412 44.6409C116.46 44.5154 116.509 44.5154 116.557 44.6409L117.397 46.8902C117.407 46.9288 117.407 46.9481 117.368 46.9481H115.65ZM120.448 44.583C120.708 44.8726 121.664 45.8765 122.649 46.9095C123.546 47.8459 124.772 49.0526 124.859 49.1298C125.332 49.5642 125.419 49.6318 125.506 49.6318C125.564 49.6318 125.574 49.5835 125.574 49.0429L125.593 44.2354C125.593 43.7431 125.612 43.579 125.892 43.5211C125.989 43.5018 126.056 43.5018 126.095 43.5018C126.153 43.5018 126.192 43.4535 126.192 43.4245C126.192 43.3763 126.124 43.3666 126.037 43.3666C125.69 43.3666 125.41 43.3859 125.313 43.3859C125.217 43.3859 124.811 43.3666 124.425 43.3666C124.328 43.3666 124.261 43.3763 124.261 43.4245C124.261 43.4535 124.27 43.5018 124.328 43.5018C124.396 43.5018 124.589 43.5114 124.744 43.5404C125.004 43.5886 125.052 43.7721 125.062 44.303L125.149 48.4154C124.888 48.1451 123.981 47.1701 123.141 46.3013C121.828 44.9498 120.592 43.6369 120.457 43.5018C120.37 43.4149 120.226 43.2508 120.129 43.2508C120.062 43.2508 120.013 43.3376 120.013 43.6659V48.3672C120.013 49.1105 119.984 49.3325 119.772 49.3905C119.646 49.4291 119.492 49.4387 119.424 49.4387C119.386 49.4387 119.357 49.4677 119.357 49.5063C119.357 49.5642 119.405 49.5739 119.492 49.5739C119.878 49.5739 120.235 49.5449 120.313 49.5449C120.39 49.5449 120.728 49.5739 121.21 49.5739C121.307 49.5739 121.365 49.5546 121.365 49.5063C121.365 49.4677 121.336 49.4387 121.297 49.4387C121.22 49.4387 121.027 49.4291 120.872 49.3905C120.641 49.3325 120.563 49.1298 120.544 48.4541L120.448 44.583ZM127.075 47.1894C127.075 47.981 127.075 48.6278 127.026 48.9657C126.988 49.207 126.968 49.3615 126.804 49.4001C126.727 49.4194 126.621 49.4387 126.544 49.4387C126.495 49.4387 126.476 49.4773 126.476 49.5063C126.476 49.5546 126.524 49.5739 126.611 49.5739C126.746 49.5739 126.949 49.5642 127.123 49.5546C127.297 49.5546 127.451 49.5449 127.47 49.5449C127.509 49.5449 127.799 49.5642 128.165 49.5932C128.532 49.6125 128.986 49.6415 129.353 49.6415C130.801 49.6415 131.564 49.0719 131.93 48.6954C132.403 48.2127 132.847 47.4211 132.847 46.3882C132.847 45.4132 132.442 44.7278 132.017 44.303C131.013 43.2894 129.459 43.3666 128.61 43.3666C128.108 43.3666 127.567 43.3859 127.47 43.3859C127.422 43.3859 126.872 43.3666 126.486 43.3666C126.389 43.3666 126.351 43.3859 126.351 43.4342C126.351 43.4631 126.389 43.5018 126.418 43.5018C126.495 43.5018 126.64 43.5114 126.708 43.5211C126.988 43.5597 127.036 43.6948 127.055 43.9748C127.075 44.2354 127.075 44.4671 127.075 45.7414V47.1894ZM127.847 43.8879C127.847 43.7914 127.876 43.7528 127.953 43.7238C128.03 43.6948 128.301 43.6659 128.465 43.6659C129.478 43.6659 130.415 43.7721 131.216 44.583C131.564 44.9305 132.017 45.5966 132.017 46.6392C132.017 47.3922 131.795 48.1741 131.351 48.5892C130.84 49.0719 130.144 49.3325 129.363 49.3325C128.359 49.3325 128.059 49.1588 127.953 49.0043C127.886 48.9174 127.866 48.6182 127.857 48.4154C127.847 48.261 127.847 47.4984 127.847 46.6295V43.8879ZM133.83 47.1894C133.83 47.981 133.83 48.6278 133.782 48.9657C133.743 49.207 133.724 49.3712 133.56 49.4001C133.483 49.4098 133.377 49.4387 133.299 49.4387C133.251 49.4387 133.232 49.4773 133.232 49.5063C133.232 49.5546 133.28 49.5739 133.367 49.5739C133.502 49.5739 133.695 49.5642 133.859 49.5546C134.043 49.5449 134.207 49.5449 134.226 49.5449C134.352 49.5449 134.574 49.5449 134.931 49.5642C135.278 49.5739 135.771 49.5932 136.408 49.5932C136.736 49.5932 136.823 49.5932 136.881 49.3808C136.929 49.207 136.997 48.6471 136.997 48.5892C136.997 48.5313 136.987 48.4637 136.939 48.4637C136.89 48.4637 136.871 48.4927 136.852 48.5892C136.804 48.9174 136.688 49.0622 136.466 49.1588C136.244 49.2457 135.838 49.2457 135.616 49.2457C134.776 49.2457 134.622 49.1395 134.603 48.5892C134.593 48.4251 134.603 47.4694 134.603 47.1894V46.504C134.603 46.4751 134.612 46.4461 134.66 46.4461C134.805 46.4461 135.713 46.4558 135.944 46.4847C136.273 46.5233 136.35 46.6199 136.379 46.7357C136.417 46.8419 136.417 46.9288 136.417 47.006C136.417 47.0543 136.437 47.0833 136.475 47.0833C136.533 47.0833 136.553 46.9964 136.553 46.9288C136.553 46.8709 136.572 46.562 136.591 46.3978C136.611 46.1275 136.659 45.9924 136.659 45.9441C136.659 45.8959 136.639 45.8765 136.611 45.8765C136.582 45.8765 136.543 45.9248 136.485 45.9827C136.398 46.0696 136.273 46.0793 136.07 46.0986C135.877 46.1179 134.757 46.1179 134.651 46.1179C134.603 46.1179 134.603 46.0889 134.603 46.031V43.801C134.603 43.7431 134.612 43.7141 134.651 43.7141C134.747 43.7141 135.732 43.7238 135.877 43.7431C136.34 43.801 136.427 43.8589 136.485 43.9941C136.524 44.0906 136.533 44.2258 136.533 44.2837C136.533 44.3513 136.553 44.3899 136.601 44.3899C136.639 44.3899 136.668 44.3416 136.678 44.303C136.697 44.2065 136.717 43.8396 136.726 43.7624C136.746 43.5307 136.794 43.4342 136.794 43.3763C136.794 43.3376 136.784 43.299 136.755 43.299C136.717 43.299 136.678 43.328 136.639 43.3376C136.572 43.3473 136.417 43.3763 136.253 43.3859C136.06 43.3956 134.284 43.3859 134.226 43.3859C134.178 43.3859 133.628 43.3666 133.241 43.3666C133.145 43.3666 133.106 43.3859 133.106 43.4342C133.106 43.4631 133.145 43.5018 133.174 43.5018C133.251 43.5018 133.396 43.5114 133.463 43.5211C133.743 43.5597 133.792 43.6948 133.811 43.9748C133.83 44.2354 133.83 44.4671 133.83 45.7414V47.1894ZM138.443 44.583C138.703 44.8726 139.659 45.8765 140.644 46.9095C141.541 47.8459 142.767 49.0526 142.854 49.1298C143.327 49.5642 143.414 49.6318 143.501 49.6318C143.559 49.6318 143.569 49.5835 143.569 49.0429L143.588 44.2354C143.588 43.7431 143.607 43.579 143.887 43.5211C143.984 43.5018 144.051 43.5018 144.09 43.5018C144.148 43.5018 144.186 43.4535 144.186 43.4245C144.186 43.3763 144.119 43.3666 144.032 43.3666C143.685 43.3666 143.405 43.3859 143.308 43.3859C143.211 43.3859 142.806 43.3666 142.42 43.3666C142.323 43.3666 142.256 43.3763 142.256 43.4245C142.256 43.4535 142.265 43.5018 142.323 43.5018C142.391 43.5018 142.584 43.5114 142.738 43.5404C142.999 43.5886 143.047 43.7721 143.057 44.303L143.144 48.4154C142.883 48.1451 141.976 47.1701 141.136 46.3013C139.823 44.9498 138.587 43.6369 138.452 43.5018C138.365 43.4149 138.221 43.2508 138.124 43.2508C138.056 43.2508 138.008 43.3376 138.008 43.6659V48.3672C138.008 49.1105 137.979 49.3325 137.767 49.3905C137.641 49.4291 137.487 49.4387 137.419 49.4387C137.381 49.4387 137.352 49.4677 137.352 49.5063C137.352 49.5642 137.4 49.5739 137.487 49.5739C137.873 49.5739 138.23 49.5449 138.307 49.5449C138.385 49.5449 138.723 49.5739 139.205 49.5739C139.302 49.5739 139.36 49.5546 139.36 49.5063C139.36 49.4677 139.331 49.4387 139.292 49.4387C139.215 49.4387 139.022 49.4291 138.867 49.3905C138.636 49.3325 138.558 49.1298 138.539 48.4541L138.443 44.583ZM145.779 49.6801C146.243 49.6801 146.774 49.6222 147.131 49.3905C147.739 48.9947 147.923 48.4734 147.923 47.9907C147.923 47.286 147.565 46.7164 146.532 46.0117L146.291 45.8476C145.451 45.278 145.191 44.9788 145.191 44.4575C145.191 43.8783 145.702 43.5693 146.32 43.5693C147.083 43.5693 147.363 43.8783 147.421 43.9748C147.469 44.0617 147.536 44.2837 147.546 44.3802C147.556 44.4478 147.565 44.4864 147.623 44.4864C147.681 44.4864 147.691 44.4285 147.691 44.303C147.691 43.7431 147.729 43.4728 147.729 43.4342C147.729 43.3859 147.71 43.3763 147.643 43.3763C147.575 43.3763 147.507 43.3763 147.343 43.3376C147.141 43.2894 146.803 43.2411 146.465 43.2411C145.345 43.2411 144.582 43.8203 144.582 44.7857C144.582 45.3553 144.882 45.8572 145.799 46.5426L146.185 46.8323C146.938 47.3922 147.256 47.6721 147.256 48.261C147.256 48.8788 146.822 49.3518 145.982 49.3518C145.413 49.3518 144.775 49.1395 144.64 48.5409C144.611 48.4251 144.611 48.3093 144.611 48.2417C144.611 48.1741 144.582 48.1451 144.534 48.1451C144.486 48.1451 144.467 48.1934 144.467 48.2803C144.457 48.4154 144.418 48.7437 144.418 49.1491C144.418 49.3712 144.428 49.4001 144.544 49.458C144.891 49.6222 145.384 49.6801 145.779 49.6801ZM149.167 47.1894C149.167 47.981 149.167 48.6278 149.118 48.9657C149.08 49.207 149.06 49.3712 148.896 49.4001C148.819 49.4098 148.713 49.4387 148.636 49.4387C148.587 49.4387 148.568 49.4773 148.568 49.5063C148.568 49.5546 148.616 49.5739 148.703 49.5739C148.838 49.5739 149.032 49.5642 149.196 49.5546C149.379 49.5449 149.543 49.5449 149.562 49.5449C149.688 49.5449 149.91 49.5449 150.267 49.5642C150.615 49.5739 151.107 49.5932 151.744 49.5932C152.072 49.5932 152.159 49.5932 152.217 49.3808C152.265 49.207 152.333 48.6471 152.333 48.5892C152.333 48.5313 152.323 48.4637 152.275 48.4637C152.227 48.4637 152.208 48.4927 152.188 48.5892C152.14 48.9174 152.024 49.0622 151.802 49.1588C151.58 49.2457 151.175 49.2457 150.953 49.2457C150.113 49.2457 149.958 49.1395 149.939 48.5892C149.929 48.4251 149.939 47.4694 149.939 47.1894V46.504C149.939 46.4751 149.949 46.4461 149.997 46.4461C150.142 46.4461 151.049 46.4558 151.281 46.4847C151.609 46.5233 151.686 46.6199 151.715 46.7357C151.754 46.8419 151.754 46.9288 151.754 47.006C151.754 47.0543 151.773 47.0833 151.812 47.0833C151.87 47.0833 151.889 46.9964 151.889 46.9288C151.889 46.8709 151.908 46.562 151.928 46.3978C151.947 46.1275 151.995 45.9924 151.995 45.9441C151.995 45.8959 151.976 45.8765 151.947 45.8765C151.918 45.8765 151.879 45.9248 151.821 45.9827C151.735 46.0696 151.609 46.0793 151.406 46.0986C151.213 46.1179 150.093 46.1179 149.987 46.1179C149.939 46.1179 149.939 46.0889 149.939 46.031V43.801C149.939 43.7431 149.949 43.7141 149.987 43.7141C150.084 43.7141 151.068 43.7238 151.213 43.7431C151.677 43.801 151.764 43.8589 151.821 43.9941C151.86 44.0906 151.87 44.2258 151.87 44.2837C151.87 44.3513 151.889 44.3899 151.937 44.3899C151.976 44.3899 152.005 44.3416 152.015 44.303C152.034 44.2065 152.053 43.8396 152.063 43.7624C152.082 43.5307 152.13 43.4342 152.13 43.3763C152.13 43.3376 152.121 43.299 152.092 43.299C152.053 43.299 152.015 43.328 151.976 43.3376C151.908 43.3473 151.754 43.3763 151.59 43.3859C151.397 43.3956 149.62 43.3859 149.562 43.3859C149.514 43.3859 148.964 43.3666 148.578 43.3666C148.481 43.3666 148.443 43.3859 148.443 43.4342C148.443 43.4631 148.481 43.5018 148.51 43.5018C148.587 43.5018 148.732 43.5114 148.8 43.5211C149.08 43.5597 149.128 43.6948 149.147 43.9748C149.167 44.2354 149.167 44.4671 149.167 45.7414V47.1894ZM24.6436 59.1894C24.6436 59.981 24.6436 60.6278 24.5953 60.9657C24.5567 61.207 24.5374 61.3615 24.3733 61.4001C24.2961 61.4194 24.1899 61.4387 24.1126 61.4387C24.0644 61.4387 24.0451 61.4773 24.0451 61.5063C24.0451 61.5546 24.0933 61.5739 24.1802 61.5739C24.3154 61.5739 24.5181 61.5642 24.6919 61.5546C24.8656 61.5546 25.0201 61.5449 25.0394 61.5449C25.078 61.5449 25.3676 61.5642 25.7344 61.5932C26.1013 61.6125 26.555 61.6415 26.9218 61.6415C28.3699 61.6415 29.1325 61.0719 29.4994 60.6954C29.9724 60.2127 30.4164 59.4211 30.4164 58.3882C30.4164 57.4132 30.011 56.7278 29.5862 56.303C28.5823 55.2894 27.028 55.3666 26.1785 55.3666C25.6765 55.3666 25.1359 55.3859 25.0394 55.3859C24.9911 55.3859 24.4409 55.3666 24.0547 55.3666C23.9582 55.3666 23.9196 55.3859 23.9196 55.4342C23.9196 55.4631 23.9582 55.5018 23.9871 55.5018C24.0644 55.5018 24.2092 55.5114 24.2768 55.5211C24.5567 55.5597 24.605 55.6948 24.6243 55.9748C24.6436 56.2354 24.6436 56.4671 24.6436 57.7414V59.1894ZM25.4159 55.8879C25.4159 55.7914 25.4448 55.7528 25.5221 55.7238C25.5993 55.6948 25.8696 55.6659 26.0337 55.6659C27.0473 55.6659 27.9837 55.7721 28.785 56.583C29.1325 56.9305 29.5862 57.5966 29.5862 58.6392C29.5862 59.3922 29.3642 60.1741 28.9201 60.5892C28.4085 61.0719 27.7134 61.3325 26.9315 61.3325C25.9275 61.3325 25.6283 61.1588 25.5221 61.0043C25.4545 60.9174 25.4352 60.6182 25.4255 60.4154C25.4159 60.261 25.4159 59.4984 25.4159 58.6295V55.8879ZM31.3992 59.1894C31.3992 59.981 31.3992 60.6278 31.351 60.9657C31.3123 61.207 31.293 61.3712 31.1289 61.4001C31.0517 61.4098 30.9455 61.4387 30.8683 61.4387C30.82 61.4387 30.8007 61.4773 30.8007 61.5063C30.8007 61.5546 30.849 61.5739 30.9359 61.5739C31.071 61.5739 31.2641 61.5642 31.4282 61.5546C31.6116 61.5449 31.7757 61.5449 31.795 61.5449C31.9205 61.5449 32.1426 61.5449 32.4997 61.5642C32.8473 61.5739 33.3396 61.5932 33.9767 61.5932C34.305 61.5932 34.3918 61.5932 34.4498 61.3808C34.498 61.207 34.5656 60.6471 34.5656 60.5892C34.5656 60.5313 34.556 60.4637 34.5077 60.4637C34.4594 60.4637 34.4401 60.4927 34.4208 60.5892C34.3725 60.9174 34.2567 61.0622 34.0347 61.1588C33.8126 61.2457 33.4072 61.2457 33.1851 61.2457C32.3453 61.2457 32.1908 61.1395 32.1715 60.5892C32.1619 60.4251 32.1715 59.4694 32.1715 59.1894V58.504C32.1715 58.4751 32.1812 58.4461 32.2294 58.4461C32.3742 58.4461 33.2817 58.4558 33.5134 58.4847C33.8416 58.5233 33.9188 58.6199 33.9478 58.7357C33.9864 58.8419 33.9864 58.9288 33.9864 59.006C33.9864 59.0543 34.0057 59.0833 34.0443 59.0833C34.1022 59.0833 34.1215 58.9964 34.1215 58.9288C34.1215 58.8709 34.1409 58.562 34.1602 58.3978C34.1795 58.1275 34.2277 57.9924 34.2277 57.9441C34.2277 57.8959 34.2084 57.8765 34.1795 57.8765C34.1505 57.8765 34.1119 57.9248 34.054 57.9827C33.9671 58.0696 33.8416 58.0793 33.6389 58.0986C33.4458 58.1179 32.326 58.1179 32.2198 58.1179C32.1715 58.1179 32.1715 58.0889 32.1715 58.031V55.801C32.1715 55.7431 32.1812 55.7141 32.2198 55.7141C32.3163 55.7141 33.301 55.7238 33.4458 55.7431C33.9092 55.801 33.9961 55.8589 34.054 55.9941C34.0926 56.0906 34.1022 56.2258 34.1022 56.2837C34.1022 56.3513 34.1215 56.3899 34.1698 56.3899C34.2084 56.3899 34.2374 56.3416 34.247 56.303C34.2664 56.2065 34.2857 55.8396 34.2953 55.7624C34.3146 55.5307 34.3629 55.4342 34.3629 55.3763C34.3629 55.3376 34.3532 55.299 34.3243 55.299C34.2857 55.299 34.247 55.328 34.2084 55.3376C34.1409 55.3473 33.9864 55.3763 33.8223 55.3859C33.6292 55.3956 31.8529 55.3859 31.795 55.3859C31.7468 55.3859 31.1965 55.3666 30.8104 55.3666C30.7138 55.3666 30.6752 55.3859 30.6752 55.4342C30.6752 55.4631 30.7138 55.5018 30.7428 55.5018C30.82 55.5018 30.9648 55.5114 31.0324 55.5211C31.3123 55.5597 31.3606 55.6948 31.3799 55.9748C31.3992 56.2354 31.3992 56.4671 31.3992 57.7414V59.1894ZM40.792 61.6801C41.3422 61.6801 41.9794 61.6318 42.3269 61.4967C42.4717 61.4387 42.491 61.4098 42.5393 61.2553C42.6262 60.9754 42.742 60.261 42.742 60.2031C42.742 60.1451 42.7034 60.0872 42.6648 60.0872C42.6068 60.0872 42.5972 60.1162 42.5779 60.2031C42.5489 60.3575 42.4331 60.7051 42.2497 60.8885C41.9118 61.2264 41.487 61.2746 40.8499 61.2746C39.035 61.2746 37.7897 59.8748 37.7897 58.3013C37.7897 57.4711 37.9248 56.7374 38.5523 56.1582C38.8516 55.8783 39.3729 55.5886 40.4637 55.5886C41.2167 55.5886 41.8346 55.7914 42.1338 56.0424C42.3559 56.2161 42.491 56.5444 42.491 56.8629C42.491 56.9788 42.5007 57.0367 42.5586 57.0367C42.6068 57.0367 42.6455 56.9884 42.6551 56.8629C42.6648 56.7471 42.6648 56.2934 42.6744 56.0231C42.6937 55.7238 42.713 55.6273 42.713 55.5597C42.713 55.5114 42.6937 55.4728 42.6068 55.4728C42.3269 55.4631 42.0566 55.4052 41.738 55.3473C41.3229 55.2797 40.8402 55.2508 40.5024 55.2508C39.1991 55.2508 38.4268 55.6369 37.9152 56.1292C37.1622 56.8629 36.9595 57.8186 36.9595 58.3689C36.9595 59.1508 37.1622 60.0872 37.9924 60.8016C38.6585 61.3808 39.5177 61.6801 40.792 61.6801ZM43.7943 59.1894C43.7943 59.981 43.7943 60.6278 43.746 60.9657C43.7074 61.207 43.6881 61.3615 43.524 61.4001C43.4468 61.4194 43.3406 61.4387 43.2634 61.4387C43.2151 61.4387 43.1958 61.4773 43.1958 61.5063C43.1958 61.5546 43.2441 61.5739 43.3309 61.5739C43.5916 61.5739 44.1612 61.5449 44.1708 61.5449C44.2094 61.5449 44.75 61.5739 45.2134 61.5739C45.3099 61.5739 45.3485 61.5449 45.3485 61.5063C45.3485 61.4773 45.3389 61.4387 45.281 61.4387C45.2037 61.4387 45.0203 61.4194 44.9045 61.4001C44.6438 61.3615 44.5956 61.207 44.5666 60.9657C44.528 60.6278 44.528 59.9907 44.528 59.1991V59.006C44.528 58.9578 44.5473 58.9384 44.5859 58.9384L45.6671 58.9578C45.725 58.9578 45.7443 58.9674 45.783 59.006C45.9664 59.2281 46.3429 59.759 46.7001 60.2031C47.1827 60.8209 47.4917 61.2167 47.8585 61.4098C48.0709 61.5256 48.2832 61.5739 48.7659 61.5739H49.2969C49.4513 61.5739 49.4996 61.5546 49.4996 61.5063C49.4996 61.4773 49.4706 61.4387 49.4224 61.4387C49.3741 61.4387 49.2872 61.4387 49.1231 61.4098C48.9107 61.3808 48.6308 61.3036 48.1771 60.8402C47.6847 60.3286 47.0959 59.5852 46.4008 58.7164C47.1924 58.0407 47.4434 57.4518 47.4434 56.8436C47.4434 56.274 47.0669 55.8783 46.8545 55.7238C46.4104 55.4149 45.8119 55.3666 45.2713 55.3666C45.0107 55.3666 44.2963 55.3859 44.2094 55.3859C44.1612 55.3859 43.5916 55.3666 43.2054 55.3666C43.1089 55.3666 43.0703 55.3859 43.0703 55.4342C43.0703 55.4631 43.1089 55.5018 43.1379 55.5018C43.2151 55.5018 43.3599 55.5114 43.4275 55.5211C43.7074 55.5597 43.7557 55.6948 43.775 55.9748C43.7943 56.2354 43.7943 56.4671 43.7943 57.7414V59.1894ZM44.528 55.801C44.528 55.7528 44.557 55.7238 44.5956 55.7045C44.6825 55.6852 44.9528 55.6562 45.2037 55.6562C46.1112 55.6562 46.6711 56.2451 46.6711 57.2684C46.6711 57.8959 46.4491 58.3303 46.1595 58.5233C45.9567 58.6585 45.725 58.6681 45.5223 58.6681C45.1458 58.6681 44.7114 58.6102 44.5859 58.5426C44.5473 58.5137 44.528 58.4847 44.528 58.4365V55.801ZM50.0873 57.7414C50.0873 56.4671 50.0873 56.2354 50.0969 55.9748C50.1162 55.6852 50.1645 55.5693 50.3962 55.5211C50.4927 55.5018 50.5506 55.5018 50.6086 55.5018C50.6375 55.5018 50.6761 55.4631 50.6761 55.4342C50.6761 55.3859 50.6375 55.3666 50.541 55.3666C50.2803 55.3666 49.7301 55.3859 49.6915 55.3859C49.6432 55.3859 49.1122 55.3666 48.8323 55.3666C48.7358 55.3666 48.6971 55.3859 48.6971 55.4342C48.6971 55.4631 48.7261 55.5018 48.7647 55.5018C48.8226 55.5018 48.9288 55.5114 49.0254 55.5307C49.2088 55.5693 49.2764 55.6948 49.2957 55.9748C49.315 56.2354 49.315 56.4671 49.315 57.7414V59.1894C49.315 59.981 49.3053 60.6278 49.2667 60.9657C49.2377 61.207 49.2088 61.3615 49.0447 61.4001C48.9674 61.4194 48.8613 61.4387 48.784 61.4387C48.7358 61.4387 48.7165 61.4773 48.7165 61.5063C48.7165 61.5546 48.7647 61.5739 48.8516 61.5739C49.1122 61.5739 49.6432 61.5449 49.6915 61.5449C49.7301 61.5449 50.2803 61.5739 50.7534 61.5739C50.8499 61.5739 50.8885 61.5449 50.8885 61.5063C50.8885 61.4773 50.8692 61.4387 50.8209 61.4387C50.7437 61.4387 50.5603 61.4194 50.4348 61.4001C50.1838 61.3615 50.1548 61.207 50.1259 60.9657C50.0873 60.6278 50.0873 59.981 50.0873 59.1894V57.7414ZM51.397 60.6664C51.2329 61.0815 51.0688 61.3712 50.6826 61.4194C50.615 61.4291 50.4895 61.4387 50.4316 61.4387C50.393 61.4387 50.3544 61.4677 50.3544 61.5063C50.3544 61.5546 50.4123 61.5739 50.5185 61.5739C50.866 61.5739 51.2908 61.5449 51.3777 61.5449C51.4742 61.5449 51.9376 61.5739 52.1403 61.5739C52.2175 61.5739 52.2658 61.5546 52.2658 61.5063C52.2658 61.4677 52.2465 61.4387 52.1789 61.4387H52.1017C51.9569 61.4387 51.8121 61.3808 51.8121 61.2167C51.8121 61.0719 51.8604 60.8692 51.9376 60.6664L52.4203 59.3536C52.4396 59.3053 52.4685 59.286 52.5072 59.286H54.4668C54.5151 59.286 54.5248 59.2956 54.5441 59.3342L55.3067 61.2167C55.3646 61.3518 55.2777 61.4194 55.2295 61.4387C55.1909 61.458 55.1716 61.458 55.1716 61.4967C55.1716 61.5449 55.3067 61.5449 55.4708 61.5546C56.0597 61.5739 56.6872 61.5739 56.8127 61.5739C56.9092 61.5739 57.0057 61.5546 57.0057 61.5063C57.0057 61.458 56.9478 61.4387 56.8995 61.4387C56.8127 61.4387 56.6872 61.4291 56.5617 61.3905C56.3783 61.3325 56.1466 61.2264 55.8377 60.4927C55.3164 59.2474 53.9552 55.8589 53.8007 55.5114C53.7139 55.328 53.6849 55.2122 53.598 55.2122C53.5401 55.2122 53.5015 55.2604 53.3953 55.5307L51.397 60.6664ZM52.623 58.9481C52.594 58.9481 52.5844 58.9288 52.594 58.8902L53.3856 56.6409C53.4339 56.5154 53.4822 56.5154 53.5304 56.6409L54.3703 58.8902C54.38 58.9288 54.38 58.9481 54.3413 58.9481H52.623ZM57.1604 59.1894C57.1604 59.981 57.1604 60.6278 57.1122 60.9657C57.0735 61.207 57.0542 61.3615 56.8901 61.4001C56.8129 61.4194 56.7067 61.4387 56.6295 61.4387C56.5812 61.4387 56.5619 61.4773 56.5619 61.5063C56.5619 61.5546 56.6102 61.5739 56.697 61.5739C56.8322 61.5739 57.0349 61.5642 57.2087 61.5546C57.3825 61.5546 57.5369 61.5449 57.5562 61.5449C57.5948 61.5449 57.8844 61.5642 58.2513 61.5932C58.6181 61.6125 59.0718 61.6415 59.4387 61.6415C60.8867 61.6415 61.6494 61.0719 62.0162 60.6954C62.4892 60.2127 62.9333 59.4211 62.9333 58.3882C62.9333 57.4132 62.5278 56.7278 62.1031 56.303C61.0991 55.2894 59.5449 55.3666 58.6953 55.3666C58.1934 55.3666 57.6528 55.3859 57.5562 55.3859C57.508 55.3859 56.9577 55.3666 56.5716 55.3666C56.475 55.3666 56.4364 55.3859 56.4364 55.4342C56.4364 55.4631 56.475 55.5018 56.504 55.5018C56.5812 55.5018 56.726 55.5114 56.7936 55.5211C57.0735 55.5597 57.1218 55.6948 57.1411 55.9748C57.1604 56.2354 57.1604 56.4671 57.1604 57.7414V59.1894ZM57.9327 55.8879C57.9327 55.7914 57.9617 55.7528 58.0389 55.7238C58.1161 55.6948 58.3864 55.6659 58.5505 55.6659C59.5642 55.6659 60.5006 55.7721 61.3018 56.583C61.6494 56.9305 62.1031 57.5966 62.1031 58.6392C62.1031 59.3922 61.881 60.1741 61.437 60.5892C60.9253 61.0719 60.2303 61.3325 59.4483 61.3325C58.4444 61.3325 58.1451 61.1588 58.0389 61.0043C57.9713 60.9174 57.952 60.6182 57.9424 60.4154C57.9327 60.261 57.9327 59.4984 57.9327 58.6295V55.8879ZM63.0355 58.4558C63.0355 59.9328 64.0299 61.6801 66.3564 61.6801C68.403 61.6801 69.7641 60.1645 69.7641 58.3303C69.7641 56.4189 68.3161 55.2508 66.4047 55.2508C64.0588 55.2508 63.0355 57.1332 63.0355 58.4558ZM63.914 58.2337C63.914 56.4478 64.9373 55.5597 66.3564 55.5597C67.6982 55.5597 68.8953 56.5926 68.8953 58.562C68.8953 60.9367 67.3604 61.3422 66.5977 61.3422C65.0628 61.3422 63.914 60.1451 63.914 58.2337ZM70.568 59.1894C70.568 59.981 70.568 60.6278 70.5197 60.9657C70.4811 61.207 70.4618 61.3615 70.2977 61.4001C70.2205 61.4194 70.1143 61.4387 70.0371 61.4387C69.9888 61.4387 69.9695 61.4773 69.9695 61.5063C69.9695 61.5546 70.0178 61.5739 70.1046 61.5739C70.3653 61.5739 70.9348 61.5449 70.9445 61.5449C70.9831 61.5449 71.5237 61.5739 71.9871 61.5739C72.0836 61.5739 72.1222 61.5449 72.1222 61.5063C72.1222 61.4773 72.1126 61.4387 72.0547 61.4387C71.9774 61.4387 71.794 61.4194 71.6782 61.4001C71.4175 61.3615 71.3693 61.207 71.3403 60.9657C71.3017 60.6278 71.3017 59.9907 71.3017 59.1991V59.006C71.3017 58.9578 71.321 58.9384 71.3596 58.9384L72.4408 58.9578C72.4987 58.9578 72.518 58.9674 72.5567 59.006C72.7401 59.2281 73.1166 59.759 73.4737 60.2031C73.9564 60.8209 74.2653 61.2167 74.6322 61.4098C74.8446 61.5256 75.0569 61.5739 75.5396 61.5739H76.0706C76.225 61.5739 76.2733 61.5546 76.2733 61.5063C76.2733 61.4773 76.2443 61.4387 76.1961 61.4387C76.1478 61.4387 76.0609 61.4387 75.8968 61.4098C75.6844 61.3808 75.4045 61.3036 74.9508 60.8402C74.4584 60.3286 73.8695 59.5852 73.1745 58.7164C73.9661 58.0407 74.2171 57.4518 74.2171 56.8436C74.2171 56.274 73.8406 55.8783 73.6282 55.7238C73.1841 55.4149 72.5856 55.3666 72.045 55.3666C71.7844 55.3666 71.07 55.3859 70.9831 55.3859C70.9348 55.3859 70.3653 55.3666 69.9791 55.3666C69.8826 55.3666 69.844 55.3859 69.844 55.4342C69.844 55.4631 69.8826 55.5018 69.9116 55.5018C69.9888 55.5018 70.1336 55.5114 70.2012 55.5211C70.4811 55.5597 70.5294 55.6948 70.5487 55.9748C70.568 56.2354 70.568 56.4671 70.568 57.7414V59.1894ZM71.3017 55.801C71.3017 55.7528 71.3306 55.7238 71.3693 55.7045C71.4561 55.6852 71.7264 55.6562 71.9774 55.6562C72.8849 55.6562 73.4448 56.2451 73.4448 57.2684C73.4448 57.8959 73.2228 58.3303 72.9331 58.5233C72.7304 58.6585 72.4987 58.6681 72.296 58.6681C71.9195 58.6681 71.4851 58.6102 71.3596 58.5426C71.321 58.5137 71.3017 58.4847 71.3017 58.4365V55.801ZM76.0887 59.1894C76.0887 59.981 76.0887 60.6278 76.0404 60.9657C76.0018 61.207 75.9825 61.3712 75.8184 61.4001C75.7411 61.4098 75.635 61.4387 75.5577 61.4387C75.5095 61.4387 75.4901 61.4773 75.4901 61.5063C75.4901 61.5546 75.5384 61.5739 75.6253 61.5739C75.7604 61.5739 75.9535 61.5642 76.1176 61.5546C76.3011 61.5449 76.4652 61.5449 76.4845 61.5449C76.61 61.5449 76.832 61.5449 77.1892 61.5642C77.5367 61.5739 78.029 61.5932 78.6662 61.5932C78.9944 61.5932 79.0813 61.5932 79.1392 61.3808C79.1875 61.207 79.2551 60.6471 79.2551 60.5892C79.2551 60.5313 79.2454 60.4637 79.1971 60.4637C79.1489 60.4637 79.1296 60.4927 79.1103 60.5892C79.062 60.9174 78.9461 61.0622 78.7241 61.1588C78.5021 61.2457 78.0966 61.2457 77.8746 61.2457C77.0347 61.2457 76.8803 61.1395 76.861 60.5892C76.8513 60.4251 76.861 59.4694 76.861 59.1894V58.504C76.861 58.4751 76.8706 58.4461 76.9189 58.4461C77.0637 58.4461 77.9711 58.4558 78.2028 58.4847C78.531 58.5233 78.6083 58.6199 78.6372 58.7357C78.6758 58.8419 78.6758 58.9288 78.6758 59.006C78.6758 59.0543 78.6951 59.0833 78.7338 59.0833C78.7917 59.0833 78.811 58.9964 78.811 58.9288C78.811 58.8709 78.8303 58.562 78.8496 58.3978C78.8689 58.1275 78.9172 57.9924 78.9172 57.9441C78.9172 57.8959 78.8979 57.8765 78.8689 57.8765C78.84 57.8765 78.8013 57.9248 78.7434 57.9827C78.6565 58.0696 78.531 58.0793 78.3283 58.0986C78.1352 58.1179 77.0154 58.1179 76.9092 58.1179C76.861 58.1179 76.861 58.0889 76.861 58.031V55.801C76.861 55.7431 76.8706 55.7141 76.9092 55.7141C77.0058 55.7141 77.9904 55.7238 78.1352 55.7431C78.5986 55.801 78.6855 55.8589 78.7434 55.9941C78.782 56.0906 78.7917 56.2258 78.7917 56.2837C78.7917 56.3513 78.811 56.3899 78.8593 56.3899C78.8979 56.3899 78.9268 56.3416 78.9365 56.303C78.9558 56.2065 78.9751 55.8396 78.9848 55.7624C79.0041 55.5307 79.0523 55.4342 79.0523 55.3763C79.0523 55.3376 79.0427 55.299 79.0137 55.299C78.9751 55.299 78.9365 55.328 78.8979 55.3376C78.8303 55.3473 78.6758 55.3763 78.5117 55.3859C78.3187 55.3956 76.5424 55.3859 76.4845 55.3859C76.4362 55.3859 75.8859 55.3666 75.4998 55.3666C75.4033 55.3666 75.3647 55.3859 75.3647 55.4342C75.3647 55.4631 75.4033 55.5018 75.4322 55.5018C75.5095 55.5018 75.6543 55.5114 75.7218 55.5211C76.0018 55.5597 76.0501 55.6948 76.0694 55.9748C76.0887 56.2354 76.0887 56.4671 76.0887 57.7414V59.1894ZM80.9616 61.6801C81.425 61.6801 81.956 61.6222 82.3131 61.3905C82.9213 60.9947 83.1047 60.4734 83.1047 59.9907C83.1047 59.286 82.7475 58.7164 81.7146 58.0117L81.4733 57.8476C80.6334 57.278 80.3728 56.9788 80.3728 56.4575C80.3728 55.8783 80.8844 55.5693 81.5022 55.5693C82.2649 55.5693 82.5448 55.8783 82.6027 55.9748C82.651 56.0617 82.7186 56.2837 82.7282 56.3802C82.7379 56.4478 82.7475 56.4864 82.8055 56.4864C82.8634 56.4864 82.873 56.4285 82.873 56.303C82.873 55.7431 82.9117 55.4728 82.9117 55.4342C82.9117 55.3859 82.8924 55.3763 82.8248 55.3763C82.7572 55.3763 82.6896 55.3763 82.5255 55.3376C82.3228 55.2894 81.9849 55.2411 81.647 55.2411C80.5272 55.2411 79.7646 55.8203 79.7646 56.7857C79.7646 57.3553 80.0638 57.8572 80.9809 58.5426L81.3671 58.8323C82.1201 59.3922 82.4386 59.6721 82.4386 60.261C82.4386 60.8788 82.0042 61.3518 81.1644 61.3518C80.5948 61.3518 79.9577 61.1395 79.8225 60.5409C79.7935 60.4251 79.7935 60.3093 79.7935 60.2417C79.7935 60.1741 79.7646 60.1451 79.7163 60.1451C79.668 60.1451 79.6487 60.1934 79.6487 60.2803C79.6391 60.4154 79.6005 60.7437 79.6005 61.1491C79.6005 61.3712 79.6101 61.4001 79.726 61.458C80.0735 61.6222 80.5658 61.6801 80.9616 61.6801ZM86.7114 59.1894C86.7114 59.981 86.7114 60.6278 86.6631 60.9657C86.6245 61.207 86.6052 61.3615 86.4411 61.4001C86.3639 61.4194 86.2577 61.4387 86.1805 61.4387C86.1322 61.4387 86.1129 61.4773 86.1129 61.5063C86.1129 61.5546 86.1612 61.5739 86.248 61.5739C86.3832 61.5739 86.5859 61.5642 86.7597 61.5546C86.9334 61.5546 87.0879 61.5449 87.1072 61.5449C87.1458 61.5449 87.4354 61.5642 87.8023 61.5932C88.1691 61.6125 88.6228 61.6415 88.9897 61.6415C90.4377 61.6415 91.2003 61.0719 91.5672 60.6954C92.0402 60.2127 92.4843 59.4211 92.4843 58.3882C92.4843 57.4132 92.0788 56.7278 91.6541 56.303C90.6501 55.2894 89.0959 55.3666 88.2463 55.3666C87.7443 55.3666 87.2037 55.3859 87.1072 55.3859C87.0589 55.3859 86.5087 55.3666 86.1225 55.3666C86.026 55.3666 85.9874 55.3859 85.9874 55.4342C85.9874 55.4631 86.026 55.5018 86.055 55.5018C86.1322 55.5018 86.277 55.5114 86.3446 55.5211C86.6245 55.5597 86.6728 55.6948 86.6921 55.9748C86.7114 56.2354 86.7114 56.4671 86.7114 57.7414V59.1894ZM87.4837 55.8879C87.4837 55.7914 87.5127 55.7528 87.5899 55.7238C87.6671 55.6948 87.9374 55.6659 88.1015 55.6659C89.1152 55.6659 90.0516 55.7721 90.8528 56.583C91.2003 56.9305 91.6541 57.5966 91.6541 58.6392C91.6541 59.3922 91.432 60.1741 90.988 60.5892C90.4763 61.0719 89.7813 61.3325 88.9993 61.3325C87.9953 61.3325 87.6961 61.1588 87.5899 61.0043C87.5223 60.9174 87.503 60.6182 87.4934 60.4154C87.4837 60.261 87.4837 59.4984 87.4837 58.6295V55.8879ZM93.4671 59.1894C93.4671 59.981 93.4671 60.6278 93.4188 60.9657C93.3802 61.207 93.3609 61.3712 93.1968 61.4001C93.1195 61.4098 93.0133 61.4387 92.9361 61.4387C92.8878 61.4387 92.8685 61.4773 92.8685 61.5063C92.8685 61.5546 92.9168 61.5739 93.0037 61.5739C93.1388 61.5739 93.3319 61.5642 93.496 61.5546C93.6794 61.5449 93.8435 61.5449 93.8628 61.5449C93.9883 61.5449 94.2104 61.5449 94.5676 61.5642C94.9151 61.5739 95.4074 61.5932 96.0446 61.5932C96.3728 61.5932 96.4597 61.5932 96.5176 61.3808C96.5659 61.207 96.6334 60.6471 96.6334 60.5892C96.6334 60.5313 96.6238 60.4637 96.5755 60.4637C96.5272 60.4637 96.5079 60.4927 96.4886 60.5892C96.4404 60.9174 96.3245 61.0622 96.1025 61.1588C95.8805 61.2457 95.475 61.2457 95.253 61.2457C94.4131 61.2457 94.2586 61.1395 94.2393 60.5892C94.2297 60.4251 94.2393 59.4694 94.2393 59.1894V58.504C94.2393 58.4751 94.249 58.4461 94.2973 58.4461C94.4421 58.4461 95.3495 58.4558 95.5812 58.4847C95.9094 58.5233 95.9866 58.6199 96.0156 58.7357C96.0542 58.8419 96.0542 58.9288 96.0542 59.006C96.0542 59.0543 96.0735 59.0833 96.1121 59.0833C96.1701 59.0833 96.1894 58.9964 96.1894 58.9288C96.1894 58.8709 96.2087 58.562 96.228 58.3978C96.2473 58.1275 96.2956 57.9924 96.2956 57.9441C96.2956 57.8959 96.2763 57.8765 96.2473 57.8765C96.2183 57.8765 96.1797 57.9248 96.1218 57.9827C96.0349 58.0696 95.9094 58.0793 95.7067 58.0986C95.5136 58.1179 94.3938 58.1179 94.2876 58.1179C94.2393 58.1179 94.2393 58.0889 94.2393 58.031V55.801C94.2393 55.7431 94.249 55.7141 94.2876 55.7141C94.3841 55.7141 95.3688 55.7238 95.5136 55.7431C95.977 55.801 96.0639 55.8589 96.1218 55.9941C96.1604 56.0906 96.1701 56.2258 96.1701 56.2837C96.1701 56.3513 96.1894 56.3899 96.2376 56.3899C96.2763 56.3899 96.3052 56.3416 96.3149 56.303C96.3342 56.2065 96.3535 55.8396 96.3631 55.7624C96.3824 55.5307 96.4307 55.4342 96.4307 55.3763C96.4307 55.3376 96.4211 55.299 96.3921 55.299C96.3535 55.299 96.3149 55.328 96.2763 55.3376C96.2087 55.3473 96.0542 55.3763 95.8901 55.3859C95.697 55.3956 93.9208 55.3859 93.8628 55.3859C93.8146 55.3859 93.2643 55.3666 92.8782 55.3666C92.7816 55.3666 92.743 55.3859 92.743 55.4342C92.743 55.4631 92.7816 55.5018 92.8106 55.5018C92.8878 55.5018 93.0326 55.5114 93.1002 55.5211C93.3802 55.5597 93.4284 55.6948 93.4477 55.9748C93.4671 56.2354 93.4671 56.4671 93.4671 57.7414V59.1894ZM102.86 61.6801C103.41 61.6801 104.047 61.6318 104.395 61.4967C104.54 61.4387 104.559 61.4098 104.607 61.2553C104.694 60.9754 104.81 60.261 104.81 60.2031C104.81 60.1451 104.771 60.0872 104.733 60.0872C104.675 60.0872 104.665 60.1162 104.646 60.2031C104.617 60.3575 104.501 60.7051 104.317 60.8885C103.98 61.2264 103.555 61.2746 102.918 61.2746C101.103 61.2746 99.8575 59.8748 99.8575 58.3013C99.8575 57.4711 99.9927 56.7374 100.62 56.1582C100.919 55.8783 101.441 55.5886 102.532 55.5886C103.285 55.5886 103.902 55.7914 104.202 56.0424C104.424 56.2161 104.559 56.5444 104.559 56.8629C104.559 56.9788 104.568 57.0367 104.626 57.0367C104.675 57.0367 104.713 56.9884 104.723 56.8629C104.733 56.7471 104.733 56.2934 104.742 56.0231C104.762 55.7238 104.781 55.6273 104.781 55.5597C104.781 55.5114 104.762 55.4728 104.675 55.4728C104.395 55.4631 104.124 55.4052 103.806 55.3473C103.391 55.2797 102.908 55.2508 102.57 55.2508C101.267 55.2508 100.495 55.6369 99.983 56.1292C99.23 56.8629 99.0273 57.8186 99.0273 58.3689C99.0273 59.1508 99.23 60.0872 100.06 60.8016C100.726 61.3808 101.586 61.6801 102.86 61.6801ZM105.157 60.6664C104.993 61.0815 104.829 61.3712 104.443 61.4194C104.375 61.4291 104.25 61.4387 104.192 61.4387C104.153 61.4387 104.115 61.4677 104.115 61.5063C104.115 61.5546 104.173 61.5739 104.279 61.5739C104.626 61.5739 105.051 61.5449 105.138 61.5449C105.235 61.5449 105.698 61.5739 105.901 61.5739C105.978 61.5739 106.026 61.5546 106.026 61.5063C106.026 61.4677 106.007 61.4387 105.939 61.4387H105.862C105.717 61.4387 105.573 61.3808 105.573 61.2167C105.573 61.0719 105.621 60.8692 105.698 60.6664L106.181 59.3536C106.2 59.3053 106.229 59.286 106.268 59.286H108.227C108.276 59.286 108.285 59.2956 108.305 59.3342L109.067 61.2167C109.125 61.3518 109.038 61.4194 108.99 61.4387C108.951 61.458 108.932 61.458 108.932 61.4967C108.932 61.5449 109.067 61.5449 109.231 61.5546C109.82 61.5739 110.448 61.5739 110.573 61.5739C110.67 61.5739 110.766 61.5546 110.766 61.5063C110.766 61.458 110.708 61.4387 110.66 61.4387C110.573 61.4387 110.448 61.4291 110.322 61.3905C110.139 61.3325 109.907 61.2264 109.598 60.4927C109.077 59.2474 107.716 55.8589 107.561 55.5114C107.474 55.328 107.445 55.2122 107.358 55.2122C107.301 55.2122 107.262 55.2604 107.156 55.5307L105.157 60.6664ZM106.383 58.9481C106.354 58.9481 106.345 58.9288 106.354 58.8902L107.146 56.6409C107.194 56.5154 107.243 56.5154 107.291 56.6409L108.131 58.8902C108.14 58.9288 108.14 58.9481 108.102 58.9481H106.383ZM110.474 56.3706C110.349 56.0424 110.243 55.7914 110.243 55.6852C110.243 55.6273 110.252 55.579 110.339 55.5404C110.417 55.5114 110.552 55.5018 110.648 55.5018C110.706 55.5018 110.735 55.4631 110.735 55.4245C110.735 55.3859 110.658 55.3666 110.503 55.3666C110.175 55.3666 109.799 55.3859 109.712 55.3859C109.606 55.3859 109.123 55.3666 108.717 55.3666C108.582 55.3666 108.495 55.3763 108.495 55.4245C108.495 55.4535 108.515 55.5018 108.563 55.5018C108.611 55.5018 108.756 55.5018 108.891 55.5307C109.171 55.5983 109.287 55.6852 109.48 56.1486L111.565 61.1781C111.729 61.5739 111.787 61.6801 111.884 61.6801C111.971 61.6801 112.019 61.5546 112.251 61.0622C112.444 60.6568 112.82 59.7687 113.342 58.5716C113.776 57.5676 114.191 56.583 114.288 56.3513C114.51 55.7914 114.645 55.6755 114.761 55.5983C114.915 55.5018 115.108 55.5018 115.166 55.5018C115.234 55.5018 115.263 55.4631 115.263 55.4245C115.263 55.3859 115.214 55.3666 115.127 55.3666C114.877 55.3666 114.51 55.3859 114.461 55.3859C114.355 55.3859 113.969 55.3666 113.631 55.3666C113.496 55.3666 113.438 55.3859 113.438 55.4342C113.438 55.4728 113.486 55.5018 113.535 55.5018C113.631 55.5018 113.728 55.5018 113.824 55.5307C113.911 55.5597 113.94 55.6369 113.94 55.7045C113.94 55.7721 113.901 55.8879 113.863 56.0134C113.679 56.6023 112.569 59.4018 112.077 60.5023L110.474 56.3706ZM114.191 60.6664C114.027 61.0815 113.862 61.3712 113.476 61.4194C113.409 61.4291 113.283 61.4387 113.225 61.4387C113.187 61.4387 113.148 61.4677 113.148 61.5063C113.148 61.5546 113.206 61.5739 113.312 61.5739C113.66 61.5739 114.085 61.5449 114.171 61.5449C114.268 61.5449 114.731 61.5739 114.934 61.5739C115.011 61.5739 115.06 61.5546 115.06 61.5063C115.06 61.4677 115.04 61.4387 114.973 61.4387H114.895C114.751 61.4387 114.606 61.3808 114.606 61.2167C114.606 61.0719 114.654 60.8692 114.731 60.6664L115.214 59.3536C115.233 59.3053 115.262 59.286 115.301 59.286H117.261C117.309 59.286 117.318 59.2956 117.338 59.3342L118.1 61.2167C118.158 61.3518 118.071 61.4194 118.023 61.4387C117.985 61.458 117.965 61.458 117.965 61.4967C117.965 61.5449 118.1 61.5449 118.265 61.5546C118.853 61.5739 119.481 61.5739 119.606 61.5739C119.703 61.5739 119.799 61.5546 119.799 61.5063C119.799 61.458 119.742 61.4387 119.693 61.4387C119.606 61.4387 119.481 61.4291 119.355 61.3905C119.172 61.3325 118.94 61.2264 118.631 60.4927C118.11 59.2474 116.749 55.8589 116.594 55.5114C116.508 55.328 116.479 55.2122 116.392 55.2122C116.334 55.2122 116.295 55.2604 116.189 55.5307L114.191 60.6664ZM115.417 58.9481C115.388 58.9481 115.378 58.9288 115.388 58.8902L116.179 56.6409C116.228 56.5154 116.276 56.5154 116.324 56.6409L117.164 58.8902C117.174 58.9288 117.174 58.9481 117.135 58.9481H115.417ZM120.726 57.7414C120.726 56.4671 120.726 56.2354 120.736 55.9748C120.755 55.6852 120.804 55.5597 121.055 55.5114C121.151 55.5018 121.277 55.4921 121.335 55.4921C121.364 55.4921 121.402 55.4631 121.402 55.4342C121.402 55.3859 121.354 55.3666 121.267 55.3666C121.006 55.3666 120.369 55.3859 120.331 55.3859C120.282 55.3859 119.751 55.3666 119.365 55.3666C119.269 55.3666 119.23 55.3859 119.23 55.4342C119.23 55.4631 119.269 55.5018 119.298 55.5018C119.375 55.5018 119.52 55.5114 119.587 55.5211C119.867 55.5597 119.916 55.6948 119.935 55.9748C119.954 56.2354 119.954 56.4671 119.954 57.7414V59.1894C119.954 59.981 119.954 60.6278 119.906 60.9657C119.867 61.207 119.848 61.3615 119.684 61.4001C119.607 61.4194 119.5 61.4387 119.423 61.4387C119.375 61.4387 119.356 61.4773 119.356 61.5063C119.356 61.5546 119.404 61.5739 119.491 61.5739C119.626 61.5739 119.809 61.5642 119.983 61.5546C120.147 61.5449 120.292 61.5449 120.331 61.5449C120.582 61.5449 120.871 61.5546 121.257 61.5642C121.653 61.5835 122.126 61.5932 122.734 61.5932C123.188 61.5932 123.217 61.5642 123.275 61.3712C123.343 61.1298 123.4 60.6375 123.4 60.5506C123.4 60.4637 123.381 60.4251 123.343 60.4251C123.294 60.4251 123.265 60.4734 123.256 60.5313C123.227 60.6954 123.159 60.8692 123.053 60.9947C122.85 61.236 122.474 61.2457 122.03 61.2457C121.364 61.2457 121.035 61.1877 120.9 61.0526C120.746 60.9078 120.726 60.4154 120.726 59.2087V57.7414ZM122.973 58.4558C122.973 59.9328 123.967 61.6801 126.294 61.6801C128.34 61.6801 129.701 60.1645 129.701 58.3303C129.701 56.4189 128.253 55.2508 126.342 55.2508C123.996 55.2508 122.973 57.1332 122.973 58.4558ZM123.851 58.2337C123.851 56.4478 124.875 55.5597 126.294 55.5597C127.635 55.5597 128.833 56.5926 128.833 58.562C128.833 60.9367 127.298 61.3422 126.535 61.3422C125 61.3422 123.851 60.1451 123.851 58.2337Z" fill="white"/>
<path d="M130.753 36.4336H153.288" stroke="white" stroke-width="0.568421"/>
<path d="M0 36.4336L106.656 36.4336" stroke="white" stroke-width="0.568421"/>
<path d="M147.188 8.07358C147.127 7.49601 147.036 7.25282 146.823 7.25282C146.61 7.25282 146.488 7.46561 146.367 7.73919L137.43 26.8294L128.128 7.7088C127.976 7.37442 127.854 7.25282 127.672 7.25282C127.489 7.25282 127.368 7.46561 127.337 7.79999L125.149 27.6197C125.027 28.7749 124.936 29.9604 123.933 30.1428C123.477 30.234 123.264 30.234 123.021 30.234C122.869 30.234 122.717 30.2948 122.717 30.386C122.717 30.5988 122.93 30.6596 123.234 30.6596C124.054 30.6596 125.514 30.5684 125.787 30.5684C126.03 30.5684 127.489 30.6596 128.614 30.6596C128.979 30.6596 129.161 30.5988 129.161 30.386C129.161 30.2948 129.04 30.234 128.918 30.234C128.736 30.234 128.28 30.2036 127.763 30.082C127.307 29.9908 126.973 29.5956 126.973 29.1396C126.973 28.6229 126.973 28.0757 127.003 27.5893L128.219 13.4845H128.341C128.675 14.3052 132.08 21.6008 132.353 22.148C132.505 22.452 135.119 27.7109 135.91 29.2004C136.487 30.2948 136.639 30.5988 136.852 30.5988C137.126 30.5988 137.217 30.3252 137.855 28.9876L145.303 13.1805H145.394L146.853 28.9572C146.914 29.5044 146.884 30.0212 146.732 30.0516C146.58 30.082 146.519 30.1428 146.519 30.2644C146.519 30.4164 146.671 30.5076 147.37 30.5684C148.495 30.6596 151.778 30.69 152.447 30.69C152.811 30.69 153.085 30.5988 153.085 30.4164C153.085 30.2948 152.994 30.2644 152.842 30.2644C152.538 30.2644 151.747 30.2644 150.866 29.9908C149.559 29.5652 149.346 27.8629 149.224 26.7686L147.188 8.07358Z" fill="white"/>
<path d="M119.316 39.4522C119.822 39.5357 120.336 39.5683 120.856 39.5683C124.356 39.5683 125.871 38.4072 127.413 37.5437C127.567 37.4575 127.413 37.5437 127.413 37.5437C119.337 41.651 112.754 35.2121 111.725 34.1177C110.938 33.2832 108.566 33.3156 108.566 33.3156C111.889 36.3455 114.553 38.0263 117.053 38.8686C117.053 38.8683 118.506 39.3196 119.316 39.4522Z" fill="#FFCB00"/>
<path d="M110.585 31.5885C105.035 31.5885 99.2881 27.0958 99.2881 18.4242C99.2881 11.2733 103.62 7.05524 109.483 7.05524C115.033 7.05524 120.779 11.5094 120.779 20.2219C120.779 27.3724 116.411 31.5885 110.585 31.5885ZM127.313 36.5898C126.171 37.0958 124.794 37.3724 123.142 37.3724C120.15 37.3724 116.332 35.1853 113.105 32.0585C119.598 30.4582 123.928 24.4017 123.928 18.8928C123.928 12.2499 118.418 6.15625 110.388 6.15625C102.003 6.15625 96.1378 13.306 96.1378 19.7128C96.1378 26.3149 101.493 32.3321 109.405 32.4889C109.405 32.4889 111.334 32.4546 112.121 33.2908C113.15 34.3843 119.694 40.9658 127.354 37.0609C127.552 36.9437 127.392 36.5501 127.313 36.5898Z" fill="#008F35"/>
<path d="M50.7633 27.3157C50.2162 28.8357 49.6082 29.9908 48.2099 30.1732C47.9667 30.2036 47.5411 30.234 47.3283 30.234C47.1763 30.234 47.0547 30.2948 47.0547 30.4164C47.0547 30.5988 47.2371 30.6596 47.6323 30.6596C49.061 30.6596 50.7329 30.5684 51.0673 30.5684C51.4017 30.5684 52.7088 30.6596 53.4384 30.6596C53.712 30.6596 53.8944 30.5988 53.8944 30.4164C53.8944 30.2948 53.8032 30.234 53.5904 30.234H53.2864C52.7696 30.234 52.1313 29.9604 52.1313 29.3524C52.1313 28.8053 52.2832 28.0757 52.5568 27.3157L54.3807 21.9352C54.4415 21.7832 54.5327 21.692 54.6847 21.692H61.2204C61.3724 21.692 61.4332 21.7528 61.494 21.8744L64.321 29.3524C64.5034 29.8388 64.321 30.1124 64.1386 30.1732C64.017 30.2036 63.9258 30.2644 63.9258 30.386C63.9258 30.5684 64.2602 30.5684 64.8378 30.5988C66.9353 30.6596 69.1543 30.6596 69.6103 30.6596C69.9447 30.6596 70.2183 30.5988 70.2183 30.4164C70.2183 30.2644 70.0967 30.234 69.9143 30.234C69.6103 30.234 69.1543 30.2036 68.6984 30.0516C68.06 29.8692 67.1784 29.3828 66.0841 26.6774C64.2298 22.0568 59.4573 9.5023 59.0013 8.34716C58.6365 7.40481 58.5149 7.25282 58.3325 7.25282C58.1501 7.25282 58.0285 7.43521 57.6638 8.43836L50.7633 27.3157ZM55.0191 20.5977C54.9279 20.5977 54.8671 20.5369 54.9279 20.3849L57.603 12.1774C57.755 11.7214 57.9069 11.7214 58.0589 12.1774L60.9468 20.3849C60.9772 20.5065 60.9772 20.5977 60.8252 20.5977H55.0191ZM74.9968 11.9646C75.9695 13.0589 79.4045 16.8891 82.9307 20.6889C86.153 24.1543 90.5303 28.6229 90.8647 28.9268C92.4758 30.538 92.8406 30.8723 93.0838 30.8723C93.2966 30.8723 93.3574 30.7204 93.3574 28.7141L93.4182 10.9006C93.4182 9.07672 93.5398 8.40796 94.5429 8.19517C94.9077 8.10398 95.1205 8.10398 95.2725 8.10398C95.4852 8.10398 95.6068 8.01278 95.6068 7.89119C95.6068 7.7088 95.3941 7.6784 95.0597 7.6784C93.8133 7.6784 92.8102 7.76959 92.4758 7.76959C92.1414 7.76959 90.6823 7.6784 89.3144 7.6784C88.9496 7.6784 88.7064 7.7088 88.7064 7.89119C88.7064 8.01278 88.7368 8.10398 88.9496 8.10398C89.1928 8.10398 89.892 8.13437 90.4391 8.25597C91.3815 8.49915 91.5943 9.16792 91.6247 11.1438L91.959 26.5862C90.9863 25.583 87.6729 21.8744 84.6634 18.6522C79.9821 13.6365 75.4527 8.74234 74.9968 8.22557C74.6928 7.92158 74.176 7.25282 73.9328 7.25282C73.6896 7.25282 73.5984 7.5872 73.5984 8.77274L73.568 26.191C73.568 28.9572 73.416 29.8388 72.6561 30.0516C72.2001 30.2036 71.6529 30.234 71.4098 30.234C71.2578 30.234 71.1666 30.2948 71.1666 30.4164C71.1666 30.6292 71.349 30.6596 71.6529 30.6596C73.0209 30.6596 74.2976 30.5684 74.5712 30.5684C74.8448 30.5684 76.0607 30.6596 77.7934 30.6596C78.1582 30.6596 78.3406 30.5988 78.3406 30.4164C78.3406 30.2948 78.2494 30.234 78.0974 30.234C77.8238 30.234 77.155 30.2036 76.5775 30.0516C75.7567 29.8084 75.4527 29.018 75.3919 26.5254L74.9968 11.9646Z" fill="white"/>
<path d="M14.4999 9.25276L15.9153 8.5564L16.989 9.71467L16.7652 8.14947L18.1956 7.4866L16.6425 7.21615L16.4544 5.64844L15.7174 7.04394L14.1702 6.74056L15.2684 7.87232L14.4999 9.25276Z" fill="white"/>
<path d="M10.8478 9.55331L11.8145 8.44863L13.1499 9.05623L12.3987 7.79525L13.3865 6.71067L11.9572 7.03498L11.2333 5.75781L11.1018 7.22142L9.66321 7.51727L11.0126 8.09278L10.8478 9.55331Z" fill="white"/>
<path d="M20.4972 11.0339L19.8524 9.71516L18.4044 9.95184L19.4589 8.93116L18.788 7.62608L20.0838 8.31268L21.1159 7.27051L20.8609 8.71654L22.1721 9.37856L20.7199 9.58119L20.4972 11.0339Z" fill="white"/>
<path d="M8.05552 20.4645C7.22211 19.9808 7.30239 19.2959 7.22211 18.9688C7.141 18.6445 6.90017 16.9869 6.90017 16.5038C6.90017 16.0201 6.47036 15.4775 6.17407 14.8506C5.87805 14.2232 5.09843 12.5709 5.04659 12.4568C4.99112 12.3435 4.64354 12.0582 4.07855 12.3145C3.51383 12.5707 2.8694 12.3722 2.70745 12.4568C2.54607 12.5419 1.95655 12.7415 1.68701 12.7708C1.41803 12.799 1.44507 13.1409 1.25692 13.255C1.06906 13.3697 0.531377 13.0543 0.531377 13.0543C0.531377 13.0543 0.262957 12.9142 0.20944 12.799C0.156202 12.6848 0.156202 12.5249 0.0472166 12.2014C-0.112219 11.7166 0.183239 11.6697 0.183239 11.6697C0.183239 11.6697 0.639248 11.2508 0.800635 11.1073C0.961744 10.9656 1.64297 10.1612 1.65913 9.86422C1.68701 9.37942 2.11598 9.09502 2.30608 8.86727C2.39862 8.75256 2.61045 8.63868 2.68042 8.46592C2.75205 8.29651 2.68042 8.06932 2.68042 8.06932C2.38607 7.84157 2.68042 6.89988 2.68042 6.89988H2.78857C2.78857 6.89988 2.78856 7.1561 2.89532 7.29984C3.00403 7.44246 3.21781 7.92642 3.353 7.78435C3.48763 7.64006 3.72845 7.81198 3.72845 7.81198C3.51383 7.49911 3.83549 6.72852 3.83549 6.72852H3.9442V6.81448C3.9442 6.89988 3.99744 7.21331 4.05151 7.35649C4.10503 7.49911 4.53539 8.2111 4.53539 8.2111C4.53539 8.2111 4.95294 8.42712 5.11404 8.5664C5.27487 8.70567 5.41257 8.66241 5.60908 8.61943C6.01296 8.53318 8.99346 10.2739 10.3643 11.8581C11.0968 12.7024 11.7094 12.6845 12.0852 12.7125C12.462 12.7412 14.0472 13.511 14.0472 13.511C14.0472 13.511 15.7937 13.6257 17.4054 13.0273C19.0173 12.4283 20.2802 11.9159 22.1611 12.6561C22.1611 12.6561 22.5904 12.8272 22.8602 12.8833C23.1292 12.9416 23.6387 13.1406 23.6387 13.1406C23.6387 13.1406 25.1174 12.9413 26.057 15.0505C26.9961 17.158 27.1856 19.3246 26.8355 21.0632C26.8355 21.0632 26.8355 20.6914 26.7558 20.493C26.6755 20.2931 26.2722 21.8315 26.1114 22.088V21.5181C26.1114 21.4324 25.7064 22.4581 25.6277 22.7704C25.5472 23.0844 25.5202 23.3406 25.5202 23.3406C25.5202 23.3406 25.4934 22.4015 25.6007 22.1452C25.7064 21.8885 25.3585 22.5999 25.3585 22.486C25.3585 22.3733 25.385 21.6604 25.385 21.4609C25.385 21.2605 25.1701 21.575 25.1971 20.2367C25.2247 18.8962 25.439 17.8998 25.2247 16.9587C25.0081 16.0198 25.0906 15.8761 25.0906 15.8761C25.0906 15.8761 25.0641 16.6737 24.9822 16.8445C24.9822 16.8445 24.7135 18.554 24.2564 19.352C23.7993 20.1502 23.1838 20.9485 23.3973 21.575C23.6114 22.2019 23.9353 22.9136 23.9353 23.1419C23.9353 23.3697 23.9882 23.4269 24.0699 23.5988C24.1496 23.7682 24.4456 24.3398 24.2564 24.7668C24.0699 25.1944 24.0958 26.1068 24.0958 26.6474C24.0958 27.1886 24.1223 28.727 24.1223 28.8414C24.1223 28.9553 24.1223 29.0684 24.0136 29.1261C23.9091 29.1842 23.8536 29.3248 23.8271 29.4111C23.7993 29.4971 23.5311 29.5534 23.5311 29.7535C23.5311 29.952 23.6931 30.2104 23.6931 30.2953C23.6931 30.3801 23.4503 30.5504 23.4503 30.5504C23.4503 30.5504 22.1885 30.6366 22.1885 30.5504C22.1885 30.4644 22.645 29.8376 22.645 29.8376C22.645 29.8376 22.645 29.638 22.8334 29.5532C23.0202 29.468 23.1013 29.3246 23.1013 29.0128C23.1013 28.698 23.0481 28.6399 23.1557 28.3282C23.263 28.0147 23.1838 25.5631 23.1838 25.5631L23.1013 25.4501C23.1013 25.4501 22.6188 27.1585 22.5904 27.4738C22.5642 27.7864 22.6726 28.2428 22.376 28.5836C22.0795 28.9266 21.8386 29.0684 21.8386 29.0684C21.8386 29.0684 21.7043 29.269 21.8119 29.4111C21.92 29.5534 22.0535 29.7535 21.973 29.8378C21.8933 29.9241 21.7043 29.9807 21.7043 29.9807C21.7043 29.9807 20.8176 30.1521 20.5498 30.038C20.5498 30.038 20.7368 29.5534 20.79 29.4404C20.8444 29.3246 20.8979 29.1549 21.0863 28.9852C21.2739 28.8124 21.4626 28.8412 21.4626 28.5836C21.4626 28.3285 21.5961 28.2428 21.7851 27.7588C21.973 27.2732 22.1611 25.6787 22.1611 25.4797C22.1611 25.279 21.7851 24.3398 21.7851 23.6262V22.373C21.7851 22.373 21.4888 22.0596 21.3004 21.2884C21.115 20.5206 20.3605 19.6088 20.1735 19.4371C19.9862 19.2666 19.8775 19.3244 19.6631 19.352C19.4479 19.381 19.4479 19.2666 19.2043 19.1533C18.9638 19.0394 17.9693 19.6088 17.5403 19.9233C17.1166 20.2314 15.1878 20.8689 13.0543 21.1075C13.0175 21.1114 12.9816 21.1148 12.9442 21.1184C10.7679 21.3459 11.9246 21.2881 11.8159 21.2881C11.8159 21.2881 12.0314 22.1165 12.1119 22.8564C12.1925 23.5982 12.3547 24.3088 12.3547 24.7373C12.3547 25.1662 12.3274 25.9061 12.4068 26.0482C12.4891 26.1911 12.7873 27.5302 12.7873 27.5302C12.7873 27.5302 13.2124 27.9578 13.1062 28.1286C12.9983 28.2983 12.7898 28.3282 12.7873 28.6137C12.7831 28.8978 12.6828 29.3829 12.7873 29.468C12.8918 29.5534 12.9247 29.6377 12.7873 29.6676C12.6493 29.6955 12.462 29.8376 12.462 29.8376C12.462 29.8376 12.2198 30.1518 11.4148 29.9805C11.4148 29.9805 11.4148 29.7533 11.6297 29.5247C11.8441 29.2978 11.8441 29.2978 12.0046 29.2124C12.1657 29.1256 12.0852 28.9852 12.1925 28.698C12.3004 28.4133 12.3547 28.2425 12.3547 28.2425C12.3547 28.2425 12.1393 28.0432 12.1393 27.7862C12.1393 27.5302 11.7094 26.2193 11.6557 26.0767C11.6019 25.9343 11.2256 25.3641 11.0647 24.7091C10.9031 24.0535 10.5 22.7997 10.3381 22.4305C10.1781 22.0593 10.151 22.2019 10.151 22.4855C10.151 22.7704 9.83747 23.6552 10.0081 24.1394C10.1781 24.6237 10.1602 25.5631 10.0081 25.7624C9.85503 25.9634 9.85503 26.4194 9.85503 26.7602C9.85503 27.1024 9.94673 27.9578 10.0081 28.1574C10.0702 28.3561 10.2138 28.5275 10.0081 28.698C9.80095 28.8696 9.7218 28.9849 9.63929 29.0681C9.55985 29.1546 9.45198 29.6377 9.45198 29.7242C9.45198 29.808 9.6942 29.9514 9.61421 30.0092C9.53254 30.0659 9.29199 30.3799 9.29199 30.3799C9.29199 30.3799 8.4845 30.4365 8.02932 30.3508V30.237C8.02932 30.237 8.46276 29.5532 8.68853 29.4105C8.9143 29.2685 8.86051 29.1256 8.96865 28.9548C9.07513 28.7856 9.2092 28.3558 9.2092 28.2422C9.2092 28.1283 9.2092 27.8434 9.23652 27.7583C9.26467 27.6717 9.15708 26.1626 9.15708 26.1626C9.15708 26.1626 8.86051 25.2784 8.88782 24.6234C8.9143 23.9683 8.93103 23.4749 8.68853 23.112C7.81358 21.805 8.05552 20.4645 8.05552 20.4645Z" fill="white"/>
<path d="M25.5458 10.3398C27.8905 12.799 28.9154 15.6687 28.9154 19.3372C28.9154 23.2662 27.2623 26.8054 24.6165 29.3028C24.6109 29.3101 24.6043 29.3168 24.5973 29.3227C32.8369 25.4677 40.2175 17.4413 40.2175 17.4413C35.3495 16.8117 29.7408 13.7714 25.5458 10.3398Z" fill="#FFCB00"/>
<path d="M49.2753 0C49.7034 3.61018 50.2545 7.96416 48.1754 14.3977L52.0888 3.66739C52.8788 1.39132 50.1932 0.166624 49.2753 0Z" fill="#00722C"/>
<path d="M49.0018 4.23649C42.6377 9.04513 23.8594 2.09132 15.9896 2.68692C8.71161 3.23731 5.78992 7.66107 5.78992 7.66107C5.79912 7.65381 5.80804 7.64823 5.8164 7.64125C8.26145 5.79388 11.3047 4.69729 14.6032 4.69729C18.3474 4.69729 21.3667 6.04312 24.3455 8.4286C25.6168 9.59356 26.9528 10.3184 28.1962 11.0686C38.5264 17.3051 42.9254 16.5125 42.9254 16.5125C35.166 26.2565 24.7603 30.0029 24.7603 30.0029C34.6043 31.654 41.5072 29.1681 41.508 29.1681L48.175 14.3983L48.1918 14.362C49.0291 11.0761 49.4528 6.58122 49.0018 4.23649Z" fill="#009035"/>
</svg>
