<svg width="378" height="199" viewBox="0 0 378 199" fill="none" xmlns="http://www.w3.org/2000/svg">
<path d="M85.0279 188.875C89.9913 191.633 93.9436 192.981 97.6509 192.981C102.185 192.981 105.617 191.663 107.363 190.867C107.547 190.775 107.608 190.683 107.608 190.56C107.608 190.469 107.547 190.377 107.425 190.377C107.333 190.377 107.179 190.438 106.996 190.499C104.882 191.357 102.492 191.694 100.96 191.694C99.4279 191.694 94.7709 191.541 88.0611 188.079L81.7802 184.831C83.8024 183.514 87.2032 179.929 87.2032 174.537C87.2032 167.429 82.056 163.047 75.1623 163.047C66.7062 163.047 63.0908 170.063 63.0908 175.027C63.0908 180.542 66.5836 187.068 75.0704 187.068C76.6943 187.068 78.7777 186.608 79.8806 186.026L85.0279 188.875ZM66.0015 174.169C66.0015 167.459 69.8313 164.089 74.9479 164.089C79.7887 164.089 84.2619 168.041 84.2619 175.395C84.2619 184.31 78.5632 185.903 75.8057 185.903C70.2908 185.903 66.0015 181.308 66.0015 174.169ZM89.6212 178.305C89.6212 182.104 90.6629 183.912 91.9804 185.138C93.88 186.915 96.6987 186.976 97.5872 186.976C99.1804 186.976 101.264 186.761 103.225 185.076C105.369 183.238 105.737 180.082 105.737 177.263V174.475C105.737 170.431 105.706 169.696 105.768 168.869C105.829 168.011 105.982 167.582 106.717 167.429C107.054 167.367 107.208 167.367 107.391 167.367C107.514 167.367 107.606 167.245 107.606 167.153C107.606 167 107.483 166.938 107.177 166.938C106.38 166.938 105.094 167 104.91 167C104.757 167 103.194 166.938 101.999 166.938C101.693 166.938 101.57 167 101.57 167.153C101.57 167.245 101.662 167.367 101.785 167.367C102.03 167.367 102.489 167.398 102.704 167.429C103.592 167.551 103.746 168.041 103.776 168.869C103.807 169.696 103.837 170.431 103.837 174.475V177.754C103.837 180.419 103.562 182.564 102.306 184.065C101.386 185.168 99.7932 185.903 98.1387 185.903C96.6068 185.903 95.4425 185.689 94.1251 184.494C92.9608 183.452 92.1336 181.89 92.1336 178.121V174.475C92.1336 170.431 92.1336 169.696 92.1949 168.869C92.2561 168.011 92.4093 167.551 93.114 167.429C93.451 167.367 93.6042 167.367 93.7881 167.367C93.9106 167.367 94.0332 167.245 94.0332 167.153C94.0332 167 93.88 166.938 93.5736 166.938C92.777 166.938 91.0919 167 90.8468 167C90.6017 167 88.9778 166.938 87.7523 166.938C87.4459 166.938 87.3234 167 87.3234 167.153C87.3234 167.245 87.4459 167.367 87.5378 167.367C87.7829 167.367 88.2425 167.398 88.457 167.429C89.3455 167.551 89.4987 168.041 89.56 168.869C89.6212 169.696 89.6212 170.431 89.6212 174.475V178.305ZM107.661 183.759C107.14 185.076 106.619 185.995 105.394 186.149C105.179 186.179 104.781 186.21 104.597 186.21C104.475 186.21 104.352 186.302 104.352 186.424C104.352 186.578 104.536 186.639 104.873 186.639C105.976 186.639 107.324 186.547 107.6 186.547C107.906 186.547 109.377 186.639 110.02 186.639C110.265 186.639 110.418 186.578 110.418 186.424C110.418 186.302 110.357 186.21 110.143 186.21H109.898C109.438 186.21 108.978 186.026 108.978 185.505C108.978 185.046 109.132 184.402 109.377 183.759L110.909 179.592C110.97 179.439 111.062 179.378 111.184 179.378H117.404C117.557 179.378 117.588 179.408 117.649 179.531L120.07 185.505C120.253 185.934 119.978 186.149 119.824 186.21C119.702 186.271 119.641 186.271 119.641 186.394C119.641 186.547 120.07 186.547 120.59 186.578C122.459 186.639 124.451 186.639 124.849 186.639C125.156 186.639 125.462 186.578 125.462 186.424C125.462 186.271 125.278 186.21 125.125 186.21C124.849 186.21 124.451 186.179 124.053 186.057C123.47 185.873 122.735 185.536 121.755 183.207C120.1 179.255 115.78 168.501 115.29 167.398C115.014 166.816 114.922 166.448 114.647 166.448C114.463 166.448 114.34 166.601 114.003 167.459L107.661 183.759ZM111.552 178.305C111.46 178.305 111.43 178.244 111.46 178.121L113.973 170.983C114.126 170.584 114.279 170.584 114.432 170.983L117.098 178.121C117.128 178.244 117.128 178.305 117.006 178.305H111.552ZM125.953 179.071C125.953 181.583 125.953 183.636 125.8 184.709C125.677 185.475 125.616 185.965 125.095 186.087C124.85 186.149 124.513 186.21 124.268 186.21C124.115 186.21 124.053 186.332 124.053 186.424C124.053 186.578 124.206 186.639 124.482 186.639C125.309 186.639 127.117 186.547 127.148 186.547C127.27 186.547 128.986 186.639 130.457 186.639C130.763 186.639 130.886 186.547 130.886 186.424C130.886 186.332 130.855 186.21 130.671 186.21C130.426 186.21 129.844 186.149 129.476 186.087C128.649 185.965 128.496 185.475 128.404 184.709C128.281 183.636 128.281 181.614 128.281 179.102V178.489C128.281 178.336 128.343 178.275 128.465 178.275L131.897 178.336C132.08 178.336 132.142 178.366 132.264 178.489C132.846 179.194 134.041 180.879 135.175 182.288C136.707 184.249 137.687 185.505 138.852 186.118C139.526 186.486 140.2 186.639 141.732 186.639H143.417C143.907 186.639 144.06 186.578 144.06 186.424C144.06 186.332 143.968 186.21 143.815 186.21C143.662 186.21 143.386 186.21 142.865 186.118C142.191 186.026 141.303 185.781 139.863 184.31C138.3 182.686 136.431 180.327 134.225 177.57C136.738 175.425 137.534 173.556 137.534 171.626C137.534 169.818 136.339 168.562 135.665 168.072C134.256 167.092 132.356 166.938 130.64 166.938C129.813 166.938 127.546 167 127.27 167C127.117 167 125.309 166.938 124.084 166.938C123.777 166.938 123.655 167 123.655 167.153C123.655 167.245 123.777 167.367 123.869 167.367C124.115 167.367 124.574 167.398 124.789 167.429C125.677 167.551 125.83 167.98 125.892 168.869C125.953 169.696 125.953 170.431 125.953 174.475V179.071ZM128.281 168.317C128.281 168.164 128.373 168.072 128.496 168.011C128.772 167.949 129.629 167.857 130.426 167.857C133.306 167.857 135.083 169.726 135.083 172.974C135.083 174.966 134.378 176.344 133.459 176.957C132.816 177.386 132.08 177.417 131.437 177.417C130.242 177.417 128.863 177.233 128.465 177.018C128.343 176.926 128.281 176.835 128.281 176.681V168.317ZM147.95 168.133L151.321 168.195C153.894 168.256 154.476 168.838 154.568 169.635L154.599 169.91C154.63 170.278 154.691 170.37 154.813 170.37C154.936 170.37 155.059 170.247 155.059 170.033C155.059 169.726 155.15 167.857 155.15 167.061C155.15 166.908 155.15 166.755 155.028 166.755C154.905 166.755 154.66 166.816 154.262 166.877C153.833 166.938 153.22 167 152.332 167H142.16C141.853 167 140.812 166.969 140.046 166.877C139.31 166.785 139.035 166.571 138.851 166.571C138.759 166.571 138.606 166.908 138.575 167.061C138.514 167.275 137.993 169.604 137.993 169.88C137.993 170.033 138.116 170.094 138.177 170.094C138.299 170.094 138.391 170.063 138.453 169.849C138.544 169.665 138.575 169.481 138.881 169.022C139.28 168.409 139.923 168.225 141.608 168.195L145.499 168.133V179.071C145.499 181.583 145.499 183.636 145.377 184.709C145.285 185.475 145.132 185.995 144.58 186.118C144.335 186.179 144.029 186.24 143.784 186.24C143.63 186.24 143.569 186.332 143.569 186.424C143.569 186.578 143.692 186.639 143.998 186.639C144.795 186.639 146.664 186.547 146.786 186.547C146.939 186.547 148.655 186.639 150.126 186.639C150.432 186.639 150.555 186.547 150.555 186.424C150.555 186.332 150.524 186.21 150.34 186.21C150.095 186.21 149.482 186.149 149.115 186.087C148.287 185.965 148.165 185.475 148.073 184.709C147.95 183.636 147.95 181.583 147.95 179.071V168.133ZM153.922 176.743C153.922 181.43 157.078 186.976 164.462 186.976C170.957 186.976 175.277 182.166 175.277 176.344C175.277 170.278 170.681 166.571 164.615 166.571C157.17 166.571 153.922 172.545 153.922 176.743ZM156.71 176.038C156.71 170.37 159.958 167.551 164.462 167.551C168.721 167.551 172.52 170.829 172.52 177.08C172.52 184.617 167.648 185.903 165.228 185.903C160.356 185.903 156.71 182.104 156.71 176.038ZM184.676 180.473C184.676 182.514 184.676 184.182 184.551 185.053C184.451 185.676 184.402 186.074 183.979 186.173C183.779 186.223 183.506 186.273 183.306 186.273C183.182 186.273 183.132 186.373 183.132 186.447C183.132 186.572 183.257 186.622 183.481 186.622C183.829 186.622 184.352 186.597 184.8 186.572C185.248 186.572 185.646 186.547 185.696 186.547C185.796 186.547 186.543 186.597 187.489 186.671C188.434 186.721 189.604 186.796 190.55 186.796C194.284 186.796 196.251 185.327 197.197 184.356C198.417 183.112 199.562 181.07 199.562 178.407C199.562 175.892 198.516 174.125 197.421 173.03C194.832 170.416 190.824 170.615 188.634 170.615C187.339 170.615 185.945 170.665 185.696 170.665C185.572 170.665 184.153 170.615 183.157 170.615C182.908 170.615 182.809 170.665 182.809 170.789C182.809 170.864 182.908 170.963 182.983 170.963C183.182 170.963 183.555 170.988 183.73 171.013C184.451 171.113 184.576 171.461 184.626 172.183C184.676 172.855 184.676 173.453 184.676 176.739V180.473ZM186.667 171.959C186.667 171.71 186.742 171.611 186.941 171.536C187.14 171.461 187.837 171.387 188.26 171.387C190.874 171.387 193.289 171.66 195.355 173.752C196.251 174.648 197.421 176.365 197.421 179.054C197.421 180.996 196.849 183.012 195.703 184.082C194.384 185.327 192.592 185.999 190.575 185.999C187.986 185.999 187.215 185.551 186.941 185.153C186.767 184.929 186.717 184.157 186.692 183.634C186.667 183.236 186.667 181.269 186.667 179.029V171.959ZM202.096 180.473C202.096 182.514 202.096 184.182 201.972 185.053C201.872 185.676 201.822 186.099 201.399 186.173C201.2 186.198 200.926 186.273 200.727 186.273C200.603 186.273 200.553 186.373 200.553 186.447C200.553 186.572 200.677 186.622 200.901 186.622C201.25 186.622 201.748 186.597 202.171 186.572C202.644 186.547 203.067 186.547 203.117 186.547C203.44 186.547 204.013 186.547 204.934 186.597C205.83 186.622 207.1 186.671 208.743 186.671C209.589 186.671 209.813 186.671 209.963 186.124C210.087 185.676 210.261 184.232 210.261 184.082C210.261 183.933 210.236 183.759 210.112 183.759C209.988 183.759 209.938 183.833 209.888 184.082C209.763 184.929 209.465 185.302 208.892 185.551C208.32 185.775 207.274 185.775 206.702 185.775C204.536 185.775 204.138 185.501 204.088 184.082C204.063 183.659 204.088 181.195 204.088 180.473V178.705C204.088 178.631 204.113 178.556 204.237 178.556C204.61 178.556 206.95 178.581 207.548 178.656C208.394 178.755 208.593 179.004 208.668 179.303C208.768 179.577 208.768 179.801 208.768 180C208.768 180.124 208.818 180.199 208.917 180.199C209.066 180.199 209.116 179.975 209.116 179.801C209.116 179.651 209.166 178.855 209.216 178.432C209.266 177.735 209.39 177.386 209.39 177.262C209.39 177.137 209.34 177.087 209.266 177.087C209.191 177.087 209.091 177.212 208.942 177.361C208.718 177.585 208.394 177.61 207.872 177.66C207.374 177.71 204.486 177.71 204.212 177.71C204.088 177.71 204.088 177.635 204.088 177.486V171.735C204.088 171.586 204.113 171.511 204.212 171.511C204.461 171.511 207 171.536 207.374 171.586C208.569 171.735 208.793 171.885 208.942 172.233C209.042 172.482 209.066 172.83 209.066 172.98C209.066 173.154 209.116 173.254 209.241 173.254C209.34 173.254 209.415 173.129 209.44 173.03C209.49 172.781 209.539 171.835 209.564 171.636C209.614 171.038 209.739 170.789 209.739 170.64C209.739 170.54 209.714 170.441 209.639 170.441C209.539 170.441 209.44 170.515 209.34 170.54C209.166 170.565 208.768 170.64 208.345 170.665C207.847 170.69 203.266 170.665 203.117 170.665C202.992 170.665 201.573 170.615 200.578 170.615C200.329 170.615 200.229 170.665 200.229 170.789C200.229 170.864 200.329 170.963 200.403 170.963C200.603 170.963 200.976 170.988 201.15 171.013C201.872 171.113 201.997 171.461 202.046 172.183C202.096 172.855 202.096 173.453 202.096 176.739V180.473ZM245.829 161.04C245.76 160.386 245.657 160.11 245.416 160.11C245.174 160.11 245.036 160.351 244.899 160.661L234.765 182.307L224.218 160.627C224.045 160.248 223.907 160.11 223.701 160.11C223.494 160.11 223.356 160.351 223.321 160.73L220.84 183.203C220.702 184.513 220.598 185.858 219.461 186.064C218.944 186.168 218.703 186.168 218.427 186.168C218.255 186.168 218.082 186.237 218.082 186.34C218.082 186.581 218.324 186.65 218.668 186.65C219.599 186.65 221.253 186.547 221.564 186.547C221.839 186.547 223.494 186.65 224.769 186.65C225.183 186.65 225.39 186.581 225.39 186.34C225.39 186.237 225.252 186.168 225.114 186.168C224.907 186.168 224.39 186.133 223.804 185.995C223.287 185.892 222.908 185.444 222.908 184.927C222.908 184.341 222.908 183.72 222.942 183.169L224.321 167.176H224.459C224.838 168.106 228.699 176.379 229.009 176.999C229.181 177.344 232.145 183.307 233.042 184.996C233.696 186.237 233.869 186.581 234.11 186.581C234.42 186.581 234.524 186.271 235.247 184.755L243.692 166.831H243.796L245.45 184.72C245.519 185.34 245.485 185.926 245.312 185.961C245.14 185.995 245.071 186.064 245.071 186.202C245.071 186.375 245.243 186.478 246.036 186.547C247.311 186.65 251.034 186.685 251.792 186.685C252.206 186.685 252.516 186.581 252.516 186.375C252.516 186.237 252.413 186.202 252.24 186.202C251.896 186.202 250.999 186.202 250 185.892C248.518 185.409 248.276 183.479 248.139 182.238L245.829 161.04ZM257.197 172.966C257.197 168.417 257.197 167.589 257.231 166.659C257.3 165.625 257.473 165.211 258.3 165.039C258.645 164.97 258.851 164.97 259.058 164.97C259.162 164.97 259.299 164.832 259.299 164.729C259.299 164.556 259.162 164.487 258.817 164.487C257.886 164.487 255.922 164.556 255.784 164.556C255.611 164.556 253.716 164.487 252.716 164.487C252.371 164.487 252.234 164.556 252.234 164.729C252.234 164.832 252.337 164.97 252.475 164.97C252.682 164.97 253.061 165.004 253.405 165.073C254.06 165.211 254.302 165.659 254.371 166.659C254.439 167.589 254.439 168.417 254.439 172.966V178.137C254.439 180.963 254.405 183.272 254.267 184.479C254.164 185.34 254.06 185.892 253.474 186.03C253.199 186.099 252.819 186.168 252.544 186.168C252.371 186.168 252.302 186.306 252.302 186.409C252.302 186.581 252.475 186.65 252.785 186.65C253.716 186.65 255.611 186.547 255.784 186.547C255.922 186.547 257.886 186.65 259.575 186.65C259.92 186.65 260.058 186.547 260.058 186.409C260.058 186.306 259.989 186.168 259.817 186.168C259.541 186.168 258.886 186.099 258.438 186.03C257.542 185.892 257.438 185.34 257.335 184.479C257.197 183.272 257.197 180.963 257.197 178.137V172.966ZM266.474 172.966C266.474 168.417 266.474 167.589 266.508 166.659C266.577 165.625 266.749 165.177 267.646 165.004C267.99 164.97 268.438 164.935 268.645 164.935C268.749 164.935 268.886 164.832 268.886 164.729C268.886 164.556 268.714 164.487 268.404 164.487C267.473 164.487 265.198 164.556 265.061 164.556C264.888 164.556 262.992 164.487 261.614 164.487C261.269 164.487 261.131 164.556 261.131 164.729C261.131 164.832 261.269 164.97 261.372 164.97C261.648 164.97 262.165 165.004 262.406 165.039C263.406 165.177 263.578 165.659 263.647 166.659C263.716 167.589 263.716 168.417 263.716 172.966V178.137C263.716 180.963 263.716 183.272 263.544 184.479C263.406 185.34 263.337 185.892 262.751 186.03C262.475 186.099 262.096 186.168 261.821 186.168C261.648 186.168 261.579 186.306 261.579 186.409C261.579 186.581 261.752 186.65 262.062 186.65C262.544 186.65 263.199 186.616 263.82 186.581C264.406 186.547 264.923 186.547 265.061 186.547C265.957 186.547 266.991 186.581 268.369 186.616C269.783 186.685 271.472 186.719 273.643 186.719C275.263 186.719 275.367 186.616 275.573 185.926C275.815 185.065 276.021 183.307 276.021 182.997C276.021 182.686 275.952 182.549 275.815 182.549C275.642 182.549 275.539 182.721 275.504 182.928C275.401 183.514 275.16 184.134 274.781 184.582C274.057 185.444 272.712 185.478 271.127 185.478C268.749 185.478 267.577 185.272 267.094 184.789C266.543 184.272 266.474 182.514 266.474 178.206V172.966ZM297.225 172.966C297.225 168.417 297.225 167.589 297.294 166.659C297.363 165.625 297.535 165.211 298.328 165.039C298.707 164.97 298.879 164.97 299.086 164.97C299.224 164.97 299.362 164.832 299.362 164.729C299.362 164.556 299.189 164.487 298.845 164.487C297.949 164.487 296.018 164.556 295.846 164.556C295.708 164.556 293.743 164.487 292.399 164.487C292.054 164.487 291.917 164.556 291.917 164.729C291.917 164.832 292.02 164.97 292.158 164.97C292.434 164.97 292.951 165.004 293.192 165.039C294.191 165.177 294.329 165.659 294.398 166.659C294.433 167.589 294.467 168.486 294.467 173.035V173.656C294.467 173.828 294.398 173.828 294.295 173.828H281.645C281.542 173.828 281.473 173.828 281.473 173.656V173.035C281.473 168.486 281.473 167.589 281.507 166.659C281.576 165.625 281.748 165.211 282.576 165.039C282.92 164.97 283.127 164.97 283.334 164.97C283.437 164.97 283.575 164.832 283.575 164.729C283.575 164.556 283.437 164.487 283.093 164.487C282.162 164.487 280.232 164.556 280.094 164.556C279.922 164.556 277.991 164.487 276.613 164.487C276.268 164.487 276.13 164.556 276.13 164.729C276.13 164.832 276.268 164.97 276.371 164.97C276.647 164.97 277.164 165.004 277.405 165.039C278.405 165.177 278.577 165.659 278.646 166.659C278.715 167.589 278.715 168.417 278.715 172.966V178.137C278.715 180.963 278.715 183.272 278.543 184.479C278.405 185.34 278.336 185.892 277.75 186.03C277.474 186.099 277.095 186.168 276.82 186.168C276.647 186.168 276.578 186.306 276.578 186.409C276.578 186.581 276.751 186.65 277.061 186.65C277.991 186.65 279.922 186.547 280.094 186.547C280.232 186.547 282.162 186.65 283.851 186.65C284.196 186.65 284.334 186.547 284.334 186.409C284.334 186.306 284.265 186.168 284.092 186.168C283.817 186.168 283.162 186.099 282.714 186.03C281.817 185.892 281.714 185.34 281.611 184.479C281.473 183.272 281.473 181.032 281.473 178.206V175.276C281.473 175.138 281.542 175.103 281.645 175.103H294.295C294.398 175.103 294.467 175.138 294.467 175.276V178.206C294.467 181.032 294.467 183.238 294.329 184.444C294.226 185.306 294.123 185.892 293.502 186.03C293.226 186.099 292.882 186.168 292.606 186.168C292.434 186.168 292.365 186.306 292.365 186.409C292.365 186.581 292.503 186.65 292.847 186.65C293.743 186.65 295.708 186.547 295.846 186.547C296.018 186.547 297.949 186.65 299.603 186.65C299.948 186.65 300.12 186.547 300.12 186.409C300.12 186.306 300.051 186.168 299.844 186.168C299.603 186.168 298.914 186.099 298.5 186.03C297.569 185.892 297.5 185.34 297.397 184.479C297.259 183.272 297.225 180.963 297.225 178.137V172.966ZM301.936 183.41C301.35 184.892 300.764 185.926 299.385 186.099C299.144 186.133 298.696 186.168 298.489 186.168C298.351 186.168 298.213 186.271 298.213 186.409C298.213 186.581 298.42 186.65 298.799 186.65C300.04 186.65 301.557 186.547 301.867 186.547C302.212 186.547 303.866 186.65 304.59 186.65C304.866 186.65 305.038 186.581 305.038 186.409C305.038 186.271 304.969 186.168 304.728 186.168H304.452C303.935 186.168 303.418 185.961 303.418 185.375C303.418 184.858 303.59 184.134 303.866 183.41L305.589 178.723C305.658 178.55 305.762 178.481 305.9 178.481H312.897C313.069 178.481 313.103 178.516 313.172 178.654L315.895 185.375C316.102 185.858 315.792 186.099 315.62 186.168C315.482 186.237 315.413 186.237 315.413 186.375C315.413 186.547 315.895 186.547 316.481 186.581C318.584 186.65 320.824 186.65 321.272 186.65C321.617 186.65 321.962 186.581 321.962 186.409C321.962 186.237 321.755 186.168 321.583 186.168C321.272 186.168 320.824 186.133 320.376 185.995C319.721 185.789 318.894 185.409 317.791 182.79C315.93 178.343 311.07 166.245 310.518 165.004C310.208 164.349 310.105 163.936 309.795 163.936C309.588 163.936 309.45 164.108 309.071 165.073L301.936 183.41ZM306.313 177.275C306.21 177.275 306.175 177.206 306.21 177.068L309.036 169.037C309.209 168.589 309.381 168.589 309.553 169.037L312.552 177.068C312.586 177.206 312.586 177.275 312.449 177.275H306.313Z" fill="white"/>
<path d="M3.23124 119.529C2.80434 120.715 2.33 121.616 1.23902 121.758C1.04928 121.782 0.717248 121.806 0.55123 121.806C0.432646 121.806 0.337778 121.853 0.337778 121.948C0.337778 122.09 0.480079 122.138 0.788399 122.138C1.90309 122.138 3.20752 122.066 3.46841 122.066C3.72929 122.066 4.74912 122.138 5.31833 122.138C5.53178 122.138 5.67408 122.09 5.67408 121.948C5.67408 121.853 5.60293 121.806 5.43691 121.806H5.19974C4.79655 121.806 4.2985 121.592 4.2985 121.118C4.2985 120.691 4.41708 120.122 4.63054 119.529L6.05355 115.331C6.10098 115.212 6.17213 115.141 6.29072 115.141H11.3899C11.5084 115.141 11.5559 115.189 11.6033 115.283L13.809 121.118C13.9513 121.497 13.809 121.711 13.6667 121.758C13.5718 121.782 13.5007 121.829 13.5007 121.924C13.5007 122.066 13.7615 122.066 14.2122 122.09C15.8486 122.138 17.58 122.138 17.9357 122.138C18.1966 122.138 18.4101 122.09 18.4101 121.948C18.4101 121.829 18.3152 121.806 18.1729 121.806C17.9357 121.806 17.58 121.782 17.2242 121.663C16.7262 121.521 16.0384 121.141 15.1846 119.031C13.7378 115.426 10.0143 105.631 9.65852 104.729C9.37392 103.994 9.27905 103.876 9.13675 103.876C8.99445 103.876 8.89958 104.018 8.61498 104.801L3.23124 119.529ZM6.55161 114.287C6.48045 114.287 6.43302 114.24 6.48045 114.121L8.56754 107.718C8.68613 107.362 8.80471 107.362 8.92329 107.718L11.1764 114.121C11.2001 114.216 11.2001 114.287 11.0815 114.287H6.55161ZM20.3782 122.398C21.5166 122.398 22.821 122.256 23.6986 121.687C25.1927 120.715 25.6433 119.434 25.6433 118.248C25.6433 116.517 24.7658 115.117 22.2281 113.386L21.6352 112.983C19.5718 111.584 18.9315 110.848 18.9315 109.568C18.9315 108.145 20.1884 107.386 21.7063 107.386C23.58 107.386 24.2678 108.145 24.4101 108.382C24.5286 108.595 24.6947 109.141 24.7184 109.378C24.7421 109.544 24.7658 109.639 24.9081 109.639C25.0504 109.639 25.0741 109.496 25.0741 109.188C25.0741 107.813 25.169 107.148 25.169 107.054C25.169 106.935 25.1216 106.911 24.9555 106.911C24.7895 106.911 24.6235 106.911 24.2203 106.816C23.7223 106.698 22.8922 106.579 22.0621 106.579C19.3109 106.579 17.4373 108.002 17.4373 110.374C17.4373 111.773 18.1725 113.007 20.4256 114.69L21.3743 115.402C23.2242 116.778 24.0069 117.465 24.0069 118.912C24.0069 120.43 22.9396 121.592 20.8762 121.592C19.4769 121.592 17.9116 121.07 17.5796 119.6C17.5084 119.315 17.5084 119.031 17.5084 118.865C17.5084 118.699 17.4373 118.627 17.3187 118.627C17.2001 118.627 17.1527 118.746 17.1527 118.959C17.129 119.292 17.0341 120.098 17.0341 121.094C17.0341 121.64 17.0578 121.711 17.3424 121.853C18.1962 122.256 19.4058 122.398 20.3782 122.398ZM30.444 122.398C31.5824 122.398 32.8868 122.256 33.7643 121.687C35.2585 120.715 35.7091 119.434 35.7091 118.248C35.7091 116.517 34.8316 115.117 32.2939 113.386L31.701 112.983C29.6376 111.584 28.9972 110.848 28.9972 109.568C28.9972 108.145 30.2542 107.386 31.7721 107.386C33.6458 107.386 34.3335 108.145 34.4758 108.382C34.5944 108.595 34.7604 109.141 34.7842 109.378C34.8079 109.544 34.8316 109.639 34.9739 109.639C35.1162 109.639 35.1399 109.496 35.1399 109.188C35.1399 107.813 35.2348 107.148 35.2348 107.054C35.2348 106.935 35.1873 106.911 35.0213 106.911C34.8553 106.911 34.6893 106.911 34.2861 106.816C33.7881 106.698 32.958 106.579 32.1279 106.579C29.3767 106.579 27.5031 108.002 27.5031 110.374C27.5031 111.773 28.2383 113.007 30.4914 114.69L31.4401 115.402C33.29 116.778 34.0727 117.465 34.0727 118.912C34.0727 120.43 33.0054 121.592 30.942 121.592C29.5427 121.592 27.9774 121.07 27.6454 119.6C27.5742 119.315 27.5742 119.031 27.5742 118.865C27.5742 118.699 27.5031 118.627 27.3845 118.627C27.2659 118.627 27.2185 118.746 27.2185 118.959C27.1948 119.292 27.0999 120.098 27.0999 121.094C27.0999 121.64 27.1236 121.711 27.4082 121.853C28.262 122.256 29.4716 122.398 30.444 122.398ZM36.8574 114.477C36.8574 118.106 39.3002 122.398 45.016 122.398C50.0439 122.398 53.388 118.675 53.388 114.169C53.388 109.473 49.8305 106.603 45.1345 106.603C39.3713 106.603 36.8574 111.228 36.8574 114.477ZM39.0156 113.932C39.0156 109.544 41.5296 107.362 45.016 107.362C48.3126 107.362 51.2535 109.9 51.2535 114.738C51.2535 120.572 47.4825 121.568 45.6089 121.568C41.8379 121.568 39.0156 118.627 39.0156 113.932ZM63.0554 122.398C64.4073 122.398 65.9726 122.28 66.8264 121.948C67.1822 121.806 67.2296 121.734 67.3482 121.355C67.5617 120.667 67.8463 118.912 67.8463 118.77C67.8463 118.627 67.7514 118.485 67.6565 118.485C67.5142 118.485 67.4905 118.556 67.4431 118.77C67.3719 119.149 67.0873 120.003 66.6367 120.454C65.8066 121.284 64.7631 121.402 63.1977 121.402C58.739 121.402 55.6795 117.963 55.6795 114.098C55.6795 112.058 56.0115 110.255 57.5531 108.832C58.2883 108.145 59.5691 107.433 62.2491 107.433C64.099 107.433 65.6169 107.931 66.3521 108.548C66.8976 108.975 67.2296 109.781 67.2296 110.564C67.2296 110.848 67.2533 110.991 67.3956 110.991C67.5142 110.991 67.6091 110.872 67.6328 110.564C67.6565 110.279 67.6565 109.164 67.6802 108.5C67.7277 107.765 67.7751 107.528 67.7751 107.362C67.7751 107.243 67.7277 107.148 67.5142 107.148C66.8264 107.125 66.1624 106.982 65.3797 106.84C64.3599 106.674 63.174 106.603 62.3439 106.603C59.1422 106.603 57.2448 107.552 55.9878 108.761C54.1379 110.564 53.6398 112.912 53.6398 114.264C53.6398 116.185 54.1379 118.485 56.1775 120.24C57.814 121.663 59.9248 122.398 63.0554 122.398ZM72.3289 112.722C72.3289 109.591 72.3289 109.022 72.3527 108.382C72.4001 107.67 72.5187 107.386 73.0879 107.267C73.325 107.22 73.4673 107.22 73.6096 107.22C73.6808 107.22 73.7757 107.125 73.7757 107.054C73.7757 106.935 73.6808 106.888 73.4436 106.888C72.8033 106.888 71.4514 106.935 71.3565 106.935C71.238 106.935 69.9335 106.888 69.2457 106.888C69.0086 106.888 68.9137 106.935 68.9137 107.054C68.9137 107.125 68.9849 107.22 69.0797 107.22C69.222 107.22 69.4829 107.243 69.7201 107.291C70.1707 107.386 70.3367 107.694 70.3841 108.382C70.4316 109.022 70.4316 109.591 70.4316 112.722V116.279C70.4316 118.224 70.4079 119.813 70.313 120.643C70.2418 121.236 70.1707 121.616 69.7675 121.711C69.5778 121.758 69.3169 121.806 69.1272 121.806C69.0086 121.806 68.9611 121.9 68.9611 121.972C68.9611 122.09 69.0797 122.138 69.2932 122.138C69.9335 122.138 71.238 122.066 71.3565 122.066C71.4514 122.066 72.8033 122.138 73.9654 122.138C74.2026 122.138 74.2974 122.066 74.2974 121.972C74.2974 121.9 74.25 121.806 74.1314 121.806C73.9417 121.806 73.4911 121.758 73.1827 121.711C72.5661 121.616 72.495 121.236 72.4238 120.643C72.3289 119.813 72.3289 118.224 72.3289 116.279V112.722ZM75.5467 119.908C75.1435 120.928 74.7403 121.64 73.7916 121.758C73.6256 121.782 73.3173 121.806 73.175 121.806C73.0801 121.806 72.9852 121.877 72.9852 121.972C72.9852 122.09 73.1275 122.138 73.3884 122.138C74.2422 122.138 75.2858 122.066 75.4992 122.066C75.7364 122.066 76.8748 122.138 77.3729 122.138C77.5626 122.138 77.6812 122.09 77.6812 121.972C77.6812 121.877 77.6337 121.806 77.4677 121.806H77.278C76.9222 121.806 76.5665 121.663 76.5665 121.26C76.5665 120.904 76.6851 120.406 76.8748 119.908L78.0606 116.683C78.1081 116.564 78.1792 116.517 78.2741 116.517H83.0886C83.2072 116.517 83.2309 116.54 83.2784 116.635L85.152 121.26C85.2943 121.592 85.0808 121.758 84.9623 121.806C84.8674 121.853 84.82 121.853 84.82 121.948C84.82 122.066 85.152 122.066 85.5552 122.09C87.0019 122.138 88.5435 122.138 88.8518 122.138C89.089 122.138 89.3262 122.09 89.3262 121.972C89.3262 121.853 89.1839 121.806 89.0653 121.806C88.8518 121.806 88.5435 121.782 88.2352 121.687C87.7846 121.545 87.2154 121.284 86.4564 119.481C85.1757 116.422 81.8316 108.097 81.4522 107.243C81.2387 106.793 81.1676 106.508 80.9541 106.508C80.8118 106.508 80.7169 106.627 80.4561 107.291L75.5467 119.908ZM78.5587 115.687C78.4875 115.687 78.4638 115.639 78.4875 115.544L80.4323 110.018C80.5509 109.71 80.6695 109.71 80.7881 110.018L82.8515 115.544C82.8752 115.639 82.8752 115.687 82.7803 115.687H78.5587ZM95.9437 122.375C96.2046 122.398 96.4655 122.398 96.7501 122.398C98.102 122.398 99.6673 122.28 100.521 121.948C100.877 121.806 100.924 121.734 101.043 121.355C101.256 120.667 101.541 118.912 101.541 118.77C101.541 118.627 101.446 118.485 101.351 118.485C101.209 118.485 101.185 118.556 101.138 118.77C101.067 119.149 100.782 120.003 100.331 120.454C99.5013 121.284 98.4577 121.402 96.8924 121.402C92.4336 121.402 89.3742 117.963 89.3742 114.098C89.3742 112.058 89.7062 110.255 91.2478 108.832C91.983 108.145 93.2637 107.433 95.9437 107.433C97.7937 107.433 99.3115 107.931 100.047 108.548C100.592 108.975 100.924 109.781 100.924 110.564C100.924 110.848 100.948 110.991 101.09 110.991C101.209 110.991 101.304 110.872 101.327 110.564C101.351 110.279 101.351 109.164 101.375 108.5C101.422 107.765 101.47 107.528 101.47 107.362C101.47 107.243 101.422 107.148 101.209 107.148C100.521 107.125 99.857 106.935 99.0744 106.816C98.0545 106.65 96.8687 106.603 96.0386 106.603C92.8368 106.603 90.9395 107.552 89.6825 108.761C87.8326 110.564 87.3345 112.912 87.3345 114.264C87.3345 116.185 87.8326 118.485 89.8722 120.24C91.2004 121.379 92.8368 122.09 95.0662 122.327L93.5483 123.561C93.3349 123.727 93.24 123.821 93.24 123.893C93.24 123.987 93.3349 124.035 93.5958 124.106C94.9951 124.509 95.3034 125.15 95.3034 125.837C95.3034 126.691 94.3784 127.189 93.5483 127.284C93.2874 127.308 93.074 127.332 93.074 127.545C93.074 127.664 93.2163 127.735 93.3823 127.735C93.8329 127.735 94.5919 127.592 95.2322 127.308C96.0386 126.976 96.9161 126.288 96.9161 125.363C96.9161 124.391 96.0149 123.821 94.5444 123.679C94.7105 123.513 95.4694 122.802 95.9437 122.375ZM102.395 119.908C101.992 120.928 101.589 121.64 100.64 121.758C100.474 121.782 100.166 121.806 100.023 121.806C99.9284 121.806 99.8335 121.877 99.8335 121.972C99.8335 122.09 99.9758 122.138 100.237 122.138C101.09 122.138 102.134 122.066 102.347 122.066C102.585 122.066 103.723 122.138 104.221 122.138C104.411 122.138 104.529 122.09 104.529 121.972C104.529 121.877 104.482 121.806 104.316 121.806H104.126C103.77 121.806 103.415 121.663 103.415 121.26C103.415 120.904 103.533 120.406 103.723 119.908L104.909 116.683C104.956 116.564 105.027 116.517 105.122 116.517H109.937C110.055 116.517 110.079 116.54 110.127 116.635L112 121.26C112.143 121.592 111.929 121.758 111.811 121.806C111.716 121.853 111.668 121.853 111.668 121.948C111.668 122.066 112 122.066 112.403 122.09C113.85 122.138 115.392 122.138 115.7 122.138C115.937 122.138 116.174 122.09 116.174 121.972C116.174 121.853 116.032 121.806 115.914 121.806C115.7 121.806 115.392 121.782 115.083 121.687C114.633 121.545 114.064 121.284 113.305 119.481C112.024 116.422 108.68 108.097 108.3 107.243C108.087 106.793 108.016 106.508 107.802 106.508C107.66 106.508 107.565 106.627 107.304 107.291L102.395 119.908ZM105.407 115.687C105.336 115.687 105.312 115.639 105.336 115.544L107.281 110.018C107.399 109.71 107.518 109.71 107.636 110.018L109.7 115.544C109.723 115.639 109.723 115.687 109.629 115.687H105.407ZM109.534 105.109C110.269 105.109 111.312 103.852 111.502 103.472C111.573 103.33 111.597 103.259 111.597 103.164C111.597 103.093 111.526 103.022 111.431 103.022C111.36 103.022 111.241 103.14 111.146 103.283C111.075 103.377 110.577 103.97 109.7 103.97C109.32 103.97 108.656 103.733 108.324 103.567C107.589 103.211 106.901 102.832 106.332 102.832C105.573 102.832 104.624 103.994 104.292 104.516C104.197 104.658 104.126 104.753 104.126 104.872C104.126 104.943 104.174 105.014 104.269 105.014C104.363 105.014 104.482 104.943 104.601 104.801C104.767 104.611 105.217 103.947 106.047 103.947C106.783 103.947 107.233 104.302 107.66 104.492C107.992 104.658 108.751 105.109 109.534 105.109ZM114.183 114.477C114.183 118.106 116.626 122.398 122.341 122.398C127.369 122.398 130.713 118.675 130.713 114.169C130.713 109.473 127.156 106.603 122.46 106.603C116.697 106.603 114.183 111.228 114.183 114.477ZM116.341 113.932C116.341 109.544 118.855 107.362 122.341 107.362C125.638 107.362 128.579 109.9 128.579 114.738C128.579 120.572 124.808 121.568 122.934 121.568C119.163 121.568 116.341 118.627 116.341 113.932ZM139.555 107.552C140.314 108.405 142.994 111.394 145.746 114.358C148.26 117.062 151.675 120.549 151.936 120.786C153.193 122.043 153.477 122.304 153.667 122.304C153.833 122.304 153.88 122.185 153.88 120.62L153.928 106.722C153.928 105.299 154.023 104.777 154.805 104.611C155.09 104.54 155.256 104.54 155.375 104.54C155.541 104.54 155.635 104.468 155.635 104.374C155.635 104.231 155.469 104.208 155.209 104.208C154.236 104.208 153.454 104.279 153.193 104.279C152.932 104.279 151.793 104.208 150.726 104.208C150.441 104.208 150.252 104.231 150.252 104.374C150.252 104.468 150.275 104.54 150.441 104.54C150.631 104.54 151.177 104.563 151.604 104.658C152.339 104.848 152.505 105.37 152.529 106.911L152.789 118.959C152.03 118.177 149.445 115.283 147.097 112.769C143.445 108.856 139.911 105.038 139.555 104.634C139.318 104.397 138.915 103.876 138.725 103.876C138.536 103.876 138.464 104.136 138.464 105.061L138.441 118.651C138.441 120.809 138.322 121.497 137.729 121.663C137.373 121.782 136.947 121.806 136.757 121.806C136.638 121.806 136.567 121.853 136.567 121.948C136.567 122.114 136.709 122.138 136.947 122.138C138.014 122.138 139.01 122.066 139.223 122.066C139.437 122.066 140.385 122.138 141.737 122.138C142.022 122.138 142.164 122.09 142.164 121.948C142.164 121.853 142.093 121.806 141.975 121.806C141.761 121.806 141.239 121.782 140.789 121.663C140.148 121.473 139.911 120.857 139.864 118.912L139.555 107.552ZM156.03 114.477C156.03 118.106 158.473 122.398 164.189 122.398C169.217 122.398 172.561 118.675 172.561 114.169C172.561 109.473 169.003 106.603 164.307 106.603C158.544 106.603 156.03 111.228 156.03 114.477ZM158.188 113.932C158.188 109.544 160.702 107.362 164.189 107.362C167.485 107.362 170.426 109.9 170.426 114.738C170.426 120.572 166.655 121.568 164.782 121.568C161.011 121.568 158.188 118.627 158.188 113.932ZM174.536 116.279C174.536 118.224 174.536 119.813 174.417 120.643C174.322 121.236 174.275 121.616 173.872 121.711C173.682 121.758 173.421 121.806 173.231 121.806C173.113 121.806 173.065 121.9 173.065 121.972C173.065 122.09 173.184 122.138 173.397 122.138C174.038 122.138 175.437 122.066 175.461 122.066C175.556 122.066 176.884 122.138 178.022 122.138C178.259 122.138 178.354 122.066 178.354 121.972C178.354 121.9 178.33 121.806 178.188 121.806C177.998 121.806 177.548 121.758 177.263 121.711C176.623 121.616 176.504 121.236 176.433 120.643C176.338 119.813 176.338 118.248 176.338 116.303V115.829C176.338 115.71 176.386 115.663 176.481 115.663L179.137 115.71C179.279 115.71 179.327 115.734 179.421 115.829C179.872 116.374 180.797 117.679 181.675 118.77C182.86 120.288 183.619 121.26 184.521 121.734C185.042 122.019 185.564 122.138 186.75 122.138H188.054C188.434 122.138 188.552 122.09 188.552 121.972C188.552 121.9 188.481 121.806 188.363 121.806C188.244 121.806 188.031 121.806 187.628 121.734C187.106 121.663 186.418 121.473 185.303 120.335C184.094 119.078 182.647 117.252 180.939 115.117C182.884 113.457 183.501 112.01 183.501 110.516C183.501 109.117 182.576 108.145 182.054 107.765C180.963 107.006 179.493 106.888 178.164 106.888C177.524 106.888 175.769 106.935 175.556 106.935C175.437 106.935 174.038 106.888 173.089 106.888C172.852 106.888 172.757 106.935 172.757 107.054C172.757 107.125 172.852 107.22 172.923 107.22C173.113 107.22 173.469 107.243 173.635 107.267C174.322 107.362 174.441 107.694 174.488 108.382C174.536 109.022 174.536 109.591 174.536 112.722V116.279ZM176.338 107.955C176.338 107.836 176.409 107.765 176.504 107.718C176.718 107.67 177.382 107.599 177.998 107.599C180.228 107.599 181.603 109.046 181.603 111.56C181.603 113.101 181.058 114.169 180.346 114.643C179.848 114.975 179.279 114.999 178.781 114.999C177.856 114.999 176.789 114.856 176.481 114.69C176.386 114.619 176.338 114.548 176.338 114.43V107.955ZM191.564 107.813L194.173 107.86C196.165 107.907 196.616 108.358 196.687 108.975L196.711 109.188C196.734 109.473 196.782 109.544 196.877 109.544C196.971 109.544 197.066 109.449 197.066 109.283C197.066 109.046 197.137 107.599 197.137 106.982C197.137 106.864 197.137 106.745 197.043 106.745C196.948 106.745 196.758 106.793 196.45 106.84C196.118 106.888 195.643 106.935 194.955 106.935H187.081C186.844 106.935 186.038 106.911 185.445 106.84C184.876 106.769 184.662 106.603 184.52 106.603C184.449 106.603 184.33 106.864 184.307 106.982C184.259 107.148 183.856 108.951 183.856 109.164C183.856 109.283 183.951 109.33 183.998 109.33C184.093 109.33 184.164 109.307 184.212 109.141C184.283 108.998 184.307 108.856 184.544 108.5C184.852 108.026 185.35 107.884 186.655 107.86L189.667 107.813V116.279C189.667 118.224 189.667 119.813 189.572 120.643C189.501 121.236 189.382 121.64 188.955 121.734C188.765 121.782 188.528 121.829 188.338 121.829C188.22 121.829 188.172 121.9 188.172 121.972C188.172 122.09 188.267 122.138 188.504 122.138C189.121 122.138 190.568 122.066 190.663 122.066C190.781 122.066 192.109 122.138 193.248 122.138C193.485 122.138 193.58 122.066 193.58 121.972C193.58 121.9 193.556 121.806 193.414 121.806C193.224 121.806 192.75 121.758 192.465 121.711C191.825 121.616 191.73 121.236 191.659 120.643C191.564 119.813 191.564 118.224 191.564 116.279V107.813ZM199.114 116.279C199.114 118.224 199.114 119.813 198.996 120.643C198.901 121.236 198.853 121.64 198.45 121.711C198.26 121.734 198 121.806 197.81 121.806C197.691 121.806 197.644 121.9 197.644 121.972C197.644 122.09 197.762 122.138 197.976 122.138C198.308 122.138 198.782 122.114 199.185 122.09C199.636 122.066 200.039 122.066 200.087 122.066C200.395 122.066 200.94 122.066 201.818 122.114C202.672 122.138 203.881 122.185 205.447 122.185C206.253 122.185 206.467 122.185 206.609 121.663C206.727 121.236 206.893 119.861 206.893 119.718C206.893 119.576 206.87 119.41 206.751 119.41C206.633 119.41 206.585 119.481 206.538 119.718C206.419 120.525 206.134 120.881 205.589 121.118C205.043 121.331 204.047 121.331 203.502 121.331C201.439 121.331 201.059 121.07 201.012 119.718C200.988 119.315 201.012 116.967 201.012 116.279V114.596C201.012 114.524 201.035 114.453 201.154 114.453C201.51 114.453 203.739 114.477 204.308 114.548C205.115 114.643 205.304 114.88 205.376 115.165C205.47 115.426 205.47 115.639 205.47 115.829C205.47 115.947 205.518 116.019 205.613 116.019C205.755 116.019 205.802 115.805 205.802 115.639C205.802 115.497 205.85 114.738 205.897 114.335C205.945 113.671 206.063 113.339 206.063 113.22C206.063 113.101 206.016 113.054 205.945 113.054C205.874 113.054 205.779 113.173 205.636 113.315C205.423 113.528 205.115 113.552 204.617 113.599C204.142 113.647 201.391 113.647 201.13 113.647C201.012 113.647 201.012 113.576 201.012 113.433V107.955C201.012 107.813 201.035 107.741 201.13 107.741C201.367 107.741 203.787 107.765 204.142 107.813C205.281 107.955 205.494 108.097 205.636 108.429C205.731 108.666 205.755 108.998 205.755 109.141C205.755 109.307 205.802 109.402 205.921 109.402C206.016 109.402 206.087 109.283 206.111 109.188C206.158 108.951 206.206 108.05 206.229 107.86C206.277 107.291 206.395 107.054 206.395 106.911C206.395 106.816 206.372 106.722 206.3 106.722C206.206 106.722 206.111 106.793 206.016 106.816C205.85 106.84 205.47 106.911 205.067 106.935C204.593 106.959 200.229 106.935 200.087 106.935C199.968 106.935 198.616 106.888 197.668 106.888C197.43 106.888 197.336 106.935 197.336 107.054C197.336 107.125 197.43 107.22 197.502 107.22C197.691 107.22 198.047 107.243 198.213 107.267C198.901 107.362 199.019 107.694 199.067 108.382C199.114 109.022 199.114 109.591 199.114 112.722V116.279ZM207.861 114.714C207.481 114.714 207.386 114.738 207.339 114.904L206.983 116.232C206.936 116.446 206.959 116.588 207.102 116.588C207.22 116.588 207.623 116.351 208.074 116.232C208.88 116.019 213.078 115.449 213.719 115.355C214.098 115.283 214.549 115.236 214.549 114.951C214.549 114.762 214.24 114.714 213.837 114.714H207.861ZM216.675 116.279C216.675 118.224 216.675 119.813 216.556 120.643C216.462 121.236 216.414 121.616 216.011 121.711C215.821 121.758 215.56 121.806 215.371 121.806C215.252 121.806 215.205 121.9 215.205 121.972C215.205 122.09 215.323 122.138 215.537 122.138C216.177 122.138 217.576 122.066 217.6 122.066C217.695 122.066 219.023 122.138 220.161 122.138C220.399 122.138 220.493 122.066 220.493 121.972C220.493 121.9 220.47 121.806 220.327 121.806C220.138 121.806 219.687 121.758 219.402 121.711C218.762 121.616 218.643 121.236 218.572 120.643C218.477 119.813 218.477 118.248 218.477 116.303V115.829C218.477 115.71 218.525 115.663 218.62 115.663L221.276 115.71C221.418 115.71 221.466 115.734 221.561 115.829C222.011 116.374 222.936 117.679 223.814 118.77C225 120.288 225.759 121.26 226.66 121.734C227.182 122.019 227.703 122.138 228.889 122.138H230.194C230.573 122.138 230.692 122.09 230.692 121.972C230.692 121.9 230.621 121.806 230.502 121.806C230.383 121.806 230.17 121.806 229.767 121.734C229.245 121.663 228.557 121.473 227.442 120.335C226.233 119.078 224.786 117.252 223.079 115.117C225.023 113.457 225.64 112.01 225.64 110.516C225.64 109.117 224.715 108.145 224.193 107.765C223.102 107.006 221.632 106.888 220.304 106.888C219.663 106.888 217.908 106.935 217.695 106.935C217.576 106.935 216.177 106.888 215.228 106.888C214.991 106.888 214.896 106.935 214.896 107.054C214.896 107.125 214.991 107.22 215.062 107.22C215.252 107.22 215.608 107.243 215.774 107.267C216.462 107.362 216.58 107.694 216.628 108.382C216.675 109.022 216.675 109.591 216.675 112.722V116.279ZM218.477 107.955C218.477 107.836 218.549 107.765 218.643 107.718C218.857 107.67 219.521 107.599 220.138 107.599C222.367 107.599 223.743 109.046 223.743 111.56C223.743 113.101 223.197 114.169 222.486 114.643C221.988 114.975 221.418 114.999 220.92 114.999C219.995 114.999 218.928 114.856 218.62 114.69C218.525 114.619 218.477 114.548 218.477 114.43V107.955ZM232.135 112.722C232.135 109.591 232.135 109.022 232.159 108.382C232.207 107.67 232.325 107.386 232.894 107.267C233.132 107.22 233.274 107.22 233.416 107.22C233.487 107.22 233.582 107.125 233.582 107.054C233.582 106.935 233.487 106.888 233.25 106.888C232.61 106.888 231.258 106.935 231.163 106.935C231.044 106.935 229.74 106.888 229.052 106.888C228.815 106.888 228.72 106.935 228.72 107.054C228.72 107.125 228.791 107.22 228.886 107.22C229.029 107.22 229.289 107.243 229.527 107.291C229.977 107.386 230.143 107.694 230.191 108.382C230.238 109.022 230.238 109.591 230.238 112.722V116.279C230.238 118.224 230.214 119.813 230.119 120.643C230.048 121.236 229.977 121.616 229.574 121.711C229.384 121.758 229.123 121.806 228.934 121.806C228.815 121.806 228.768 121.9 228.768 121.972C228.768 122.09 228.886 122.138 229.1 122.138C229.74 122.138 231.044 122.066 231.163 122.066C231.258 122.066 232.61 122.138 233.772 122.138C234.009 122.138 234.104 122.066 234.104 121.972C234.104 121.9 234.056 121.806 233.938 121.806C233.748 121.806 233.298 121.758 232.989 121.711C232.373 121.616 232.301 121.236 232.23 120.643C232.135 119.813 232.135 118.224 232.135 116.279V112.722ZM234.389 114.477C234.389 118.106 236.831 122.398 242.547 122.398C247.575 122.398 250.919 118.675 250.919 114.169C250.919 109.473 247.362 106.603 242.666 106.603C236.903 106.603 234.389 111.228 234.389 114.477ZM236.547 113.932C236.547 109.544 239.061 107.362 242.547 107.362C245.844 107.362 248.785 109.9 248.785 114.738C248.785 120.572 245.014 121.568 243.14 121.568C239.369 121.568 236.547 118.627 236.547 113.932ZM263.361 120.477C263.361 120.857 263.195 120.952 262.935 121.094C262.389 121.402 261.417 121.473 260.681 121.473C258.76 121.473 257.005 120.904 255.345 119.363C254.61 118.675 253.14 116.635 253.14 113.789C253.14 111.441 253.993 109.639 255.203 108.714C256.792 107.504 258.31 107.409 259.567 107.409C262.271 107.409 263.86 108.216 264.381 108.975C264.713 109.449 264.832 110.042 264.856 110.303C264.856 110.493 264.879 110.611 264.998 110.611C265.14 110.611 265.235 110.516 265.235 110.184C265.235 108.168 265.354 107.623 265.354 107.338C265.354 107.243 265.306 107.148 265.093 107.148C264.571 107.148 263.836 107.03 263.409 106.935C263.006 106.84 261.535 106.603 260.207 106.603C258.618 106.603 256.531 106.745 254.657 107.884C252.807 108.998 251.171 111.275 251.171 114.501C251.171 117.015 252.381 119.173 253.661 120.24C255.986 122.209 258.95 122.398 260.539 122.398C261.749 122.398 263.646 122.185 264.974 121.497C265.235 121.355 265.259 121.331 265.259 120.406V118.153C265.259 117.299 265.259 116.706 265.283 116.066C265.33 115.355 265.496 115.046 266.065 114.951C266.302 114.904 266.445 114.904 266.587 114.904C266.658 114.904 266.753 114.809 266.753 114.738C266.753 114.596 266.658 114.572 266.421 114.572C265.781 114.572 264.476 114.619 264.381 114.619C264.263 114.619 262.863 114.572 261.915 114.572C261.678 114.572 261.583 114.596 261.583 114.738C261.583 114.809 261.678 114.904 261.749 114.904C261.938 114.904 262.294 114.928 262.46 114.951C263.314 115.117 263.361 115.355 263.361 116.991V120.477ZM269.167 116.279C269.167 118.224 269.167 119.813 269.049 120.643C268.954 121.236 268.906 121.616 268.503 121.711C268.313 121.758 268.052 121.806 267.863 121.806C267.744 121.806 267.697 121.9 267.697 121.972C267.697 122.09 267.815 122.138 268.029 122.138C268.669 122.138 270.068 122.066 270.092 122.066C270.187 122.066 271.515 122.138 272.654 122.138C272.891 122.138 272.986 122.066 272.986 121.972C272.986 121.9 272.962 121.806 272.82 121.806C272.63 121.806 272.179 121.758 271.895 121.711C271.254 121.616 271.136 121.236 271.064 120.643C270.97 119.813 270.97 118.248 270.97 116.303V115.829C270.97 115.71 271.017 115.663 271.112 115.663L273.768 115.71C273.911 115.71 273.958 115.734 274.053 115.829C274.503 116.374 275.428 117.679 276.306 118.77C277.492 120.288 278.251 121.26 279.152 121.734C279.674 122.019 280.196 122.138 281.381 122.138H282.686C283.065 122.138 283.184 122.09 283.184 121.972C283.184 121.9 283.113 121.806 282.994 121.806C282.876 121.806 282.662 121.806 282.259 121.734C281.737 121.663 281.049 121.473 279.935 120.335C278.725 119.078 277.278 117.252 275.571 115.117C277.515 113.457 278.132 112.01 278.132 110.516C278.132 109.117 277.207 108.145 276.685 107.765C275.594 107.006 274.124 106.888 272.796 106.888C272.155 106.888 270.4 106.935 270.187 106.935C270.068 106.935 268.669 106.888 267.72 106.888C267.483 106.888 267.388 106.935 267.388 107.054C267.388 107.125 267.483 107.22 267.554 107.22C267.744 107.22 268.1 107.243 268.266 107.267C268.954 107.362 269.072 107.694 269.12 108.382C269.167 109.022 269.167 109.591 269.167 112.722V116.279ZM270.97 107.955C270.97 107.836 271.041 107.765 271.136 107.718C271.349 107.67 272.013 107.599 272.63 107.599C274.859 107.599 276.235 109.046 276.235 111.56C276.235 113.101 275.689 114.169 274.978 114.643C274.48 114.975 273.911 114.999 273.412 114.999C272.488 114.999 271.42 114.856 271.112 114.69C271.017 114.619 270.97 114.548 270.97 114.43V107.955ZM281.115 119.908C280.712 120.928 280.308 121.64 279.36 121.758C279.194 121.782 278.885 121.806 278.743 121.806C278.648 121.806 278.553 121.877 278.553 121.972C278.553 122.09 278.696 122.138 278.956 122.138C279.81 122.138 280.854 122.066 281.067 122.066C281.304 122.066 282.443 122.138 282.941 122.138C283.131 122.138 283.249 122.09 283.249 121.972C283.249 121.877 283.202 121.806 283.036 121.806H282.846C282.49 121.806 282.135 121.663 282.135 121.26C282.135 120.904 282.253 120.406 282.443 119.908L283.629 116.683C283.676 116.564 283.747 116.517 283.842 116.517H288.657C288.775 116.517 288.799 116.54 288.846 116.635L290.72 121.26C290.862 121.592 290.649 121.758 290.53 121.806C290.435 121.853 290.388 121.853 290.388 121.948C290.388 122.066 290.72 122.066 291.123 122.09C292.57 122.138 294.112 122.138 294.42 122.138C294.657 122.138 294.894 122.09 294.894 121.972C294.894 121.853 294.752 121.806 294.633 121.806C294.42 121.806 294.112 121.782 293.803 121.687C293.353 121.545 292.783 121.284 292.024 119.481C290.744 116.422 287.4 108.097 287.02 107.243C286.807 106.793 286.736 106.508 286.522 106.508C286.38 106.508 286.285 106.627 286.024 107.291L281.115 119.908ZM284.127 115.687C284.056 115.687 284.032 115.639 284.056 115.544L286 110.018C286.119 109.71 286.238 109.71 286.356 110.018L288.42 115.544C288.443 115.639 288.443 115.687 288.348 115.687H284.127ZM295.915 109.876C296.555 110.587 298.903 113.054 301.322 115.592C303.528 117.892 306.54 120.857 306.753 121.047C307.915 122.114 308.129 122.28 308.342 122.28C308.485 122.28 308.508 122.161 308.508 120.833L308.556 109.022C308.556 107.813 308.603 107.409 309.291 107.267C309.528 107.22 309.694 107.22 309.789 107.22C309.931 107.22 310.026 107.101 310.026 107.03C310.026 106.911 309.86 106.888 309.647 106.888C308.793 106.888 308.105 106.935 307.868 106.935C307.631 106.935 306.635 106.888 305.686 106.888C305.449 106.888 305.283 106.911 305.283 107.03C305.283 107.101 305.307 107.22 305.449 107.22C305.615 107.22 306.089 107.243 306.469 107.314C307.109 107.433 307.228 107.884 307.251 109.188L307.465 119.292C306.824 118.627 304.595 116.232 302.532 114.098C299.306 110.777 296.27 107.552 295.938 107.22C295.725 107.006 295.369 106.603 295.132 106.603C294.966 106.603 294.847 106.816 294.847 107.623V119.173C294.847 120.999 294.776 121.545 294.254 121.687C293.946 121.782 293.567 121.806 293.401 121.806C293.306 121.806 293.235 121.877 293.235 121.972C293.235 122.114 293.353 122.138 293.567 122.138C294.515 122.138 295.393 122.066 295.583 122.066C295.772 122.066 296.602 122.138 297.788 122.138C298.025 122.138 298.168 122.09 298.168 121.972C298.168 121.877 298.097 121.806 298.002 121.806C297.812 121.806 297.338 121.782 296.958 121.687C296.389 121.545 296.199 121.047 296.152 119.386L295.915 109.876ZM312.196 116.279C312.196 118.224 312.196 119.813 312.077 120.643C311.982 121.236 311.935 121.616 311.532 121.711C311.342 121.758 311.081 121.806 310.891 121.806C310.773 121.806 310.725 121.9 310.725 121.972C310.725 122.09 310.844 122.138 311.057 122.138C311.389 122.138 311.887 122.114 312.314 122.09C312.741 122.09 313.121 122.066 313.168 122.066C313.263 122.066 313.974 122.114 314.876 122.185C315.777 122.232 316.892 122.304 317.793 122.304C321.35 122.304 323.224 120.904 324.125 119.979C325.287 118.793 326.378 116.849 326.378 114.311C326.378 111.916 325.382 110.232 324.339 109.188C321.872 106.698 318.054 106.888 315.967 106.888C314.733 106.888 313.405 106.935 313.168 106.935C313.05 106.935 311.698 106.888 310.749 106.888C310.512 106.888 310.417 106.935 310.417 107.054C310.417 107.125 310.512 107.22 310.583 107.22C310.773 107.22 311.128 107.243 311.294 107.267C311.982 107.362 312.101 107.694 312.148 108.382C312.196 109.022 312.196 109.591 312.196 112.722V116.279ZM314.093 108.168C314.093 107.931 314.164 107.836 314.354 107.765C314.544 107.694 315.208 107.623 315.611 107.623C318.101 107.623 320.402 107.884 322.37 109.876C323.224 110.73 324.339 112.366 324.339 114.928C324.339 116.778 323.793 118.699 322.702 119.718C321.445 120.904 319.738 121.545 317.817 121.545C315.35 121.545 314.615 121.118 314.354 120.738C314.188 120.525 314.14 119.79 314.117 119.292C314.093 118.912 314.093 117.038 314.093 114.904V108.168ZM328.793 116.279C328.793 118.224 328.793 119.813 328.674 120.643C328.579 121.236 328.532 121.64 328.129 121.711C327.939 121.734 327.678 121.806 327.488 121.806C327.37 121.806 327.322 121.9 327.322 121.972C327.322 122.09 327.441 122.138 327.654 122.138C327.987 122.138 328.461 122.114 328.864 122.09C329.315 122.066 329.718 122.066 329.765 122.066C330.074 122.066 330.619 122.066 331.497 122.114C332.35 122.138 333.56 122.185 335.125 122.185C335.932 122.185 336.145 122.185 336.287 121.663C336.406 121.236 336.572 119.861 336.572 119.718C336.572 119.576 336.548 119.41 336.43 119.41C336.311 119.41 336.264 119.481 336.216 119.718C336.098 120.525 335.813 120.881 335.268 121.118C334.722 121.331 333.726 121.331 333.181 121.331C331.117 121.331 330.738 121.07 330.69 119.718C330.667 119.315 330.69 116.967 330.69 116.279V114.596C330.69 114.524 330.714 114.453 330.833 114.453C331.188 114.453 333.418 114.477 333.987 114.548C334.793 114.643 334.983 114.88 335.054 115.165C335.149 115.426 335.149 115.639 335.149 115.829C335.149 115.947 335.196 116.019 335.291 116.019C335.434 116.019 335.481 115.805 335.481 115.639C335.481 115.497 335.528 114.738 335.576 114.335C335.623 113.671 335.742 113.339 335.742 113.22C335.742 113.101 335.694 113.054 335.623 113.054C335.552 113.054 335.457 113.173 335.315 113.315C335.102 113.528 334.793 113.552 334.295 113.599C333.821 113.647 331.07 113.647 330.809 113.647C330.69 113.647 330.69 113.576 330.69 113.433V107.955C330.69 107.813 330.714 107.741 330.809 107.741C331.046 107.741 333.465 107.765 333.821 107.813C334.959 107.955 335.173 108.097 335.315 108.429C335.41 108.666 335.434 108.998 335.434 109.141C335.434 109.307 335.481 109.402 335.6 109.402C335.694 109.402 335.766 109.283 335.789 109.188C335.837 108.951 335.884 108.05 335.908 107.86C335.955 107.291 336.074 107.054 336.074 106.911C336.074 106.816 336.05 106.722 335.979 106.722C335.884 106.722 335.789 106.793 335.694 106.816C335.528 106.84 335.149 106.911 334.746 106.935C334.271 106.959 329.908 106.935 329.765 106.935C329.647 106.935 328.295 106.888 327.346 106.888C327.109 106.888 327.014 106.935 327.014 107.054C327.014 107.125 327.109 107.22 327.18 107.22C327.37 107.22 327.726 107.243 327.892 107.267C328.579 107.362 328.698 107.694 328.745 108.382C328.793 109.022 328.793 109.591 328.793 112.722V116.279ZM340.124 109.876C340.765 110.587 343.113 113.054 345.532 115.592C347.738 117.892 350.75 120.857 350.963 121.047C352.125 122.114 352.339 122.28 352.552 122.28C352.694 122.28 352.718 122.161 352.718 120.833L352.766 109.022C352.766 107.813 352.813 107.409 353.501 107.267C353.738 107.22 353.904 107.22 353.999 107.22C354.141 107.22 354.236 107.101 354.236 107.03C354.236 106.911 354.07 106.888 353.856 106.888C353.003 106.888 352.315 106.935 352.078 106.935C351.841 106.935 350.844 106.888 349.896 106.888C349.659 106.888 349.493 106.911 349.493 107.03C349.493 107.101 349.516 107.22 349.659 107.22C349.825 107.22 350.299 107.243 350.678 107.314C351.319 107.433 351.437 107.884 351.461 109.188L351.675 119.292C351.034 118.627 348.805 116.232 346.741 114.098C343.516 110.777 340.48 107.552 340.148 107.22C339.935 107.006 339.579 106.603 339.342 106.603C339.176 106.603 339.057 106.816 339.057 107.623V119.173C339.057 120.999 338.986 121.545 338.464 121.687C338.156 121.782 337.776 121.806 337.61 121.806C337.516 121.806 337.444 121.877 337.444 121.972C337.444 122.114 337.563 122.138 337.776 122.138C338.725 122.138 339.603 122.066 339.792 122.066C339.982 122.066 340.812 122.138 341.998 122.138C342.235 122.138 342.378 122.09 342.378 121.972C342.378 121.877 342.306 121.806 342.211 121.806C342.022 121.806 341.547 121.782 341.168 121.687C340.599 121.545 340.409 121.047 340.362 119.386L340.124 109.876ZM358.149 122.398C359.288 122.398 360.592 122.256 361.47 121.687C362.964 120.715 363.415 119.434 363.415 118.248C363.415 116.517 362.537 115.117 359.999 113.386L359.406 112.983C357.343 111.584 356.703 110.848 356.703 109.568C356.703 108.145 357.96 107.386 359.478 107.386C361.351 107.386 362.039 108.145 362.181 108.382C362.3 108.595 362.466 109.141 362.49 109.378C362.513 109.544 362.537 109.639 362.679 109.639C362.822 109.639 362.845 109.496 362.845 109.188C362.845 107.813 362.94 107.148 362.94 107.054C362.94 106.935 362.893 106.911 362.727 106.911C362.561 106.911 362.395 106.911 361.992 106.816C361.493 106.698 360.663 106.579 359.833 106.579C357.082 106.579 355.209 108.002 355.209 110.374C355.209 111.773 355.944 113.007 358.197 114.69L359.146 115.402C360.995 116.778 361.778 117.465 361.778 118.912C361.778 120.43 360.711 121.592 358.647 121.592C357.248 121.592 355.683 121.07 355.351 119.6C355.28 119.315 355.28 119.031 355.28 118.865C355.28 118.699 355.209 118.627 355.09 118.627C354.971 118.627 354.924 118.746 354.924 118.959C354.9 119.292 354.805 120.098 354.805 121.094C354.805 121.64 354.829 121.711 355.114 121.853C355.967 122.256 357.177 122.398 358.149 122.398ZM366.471 116.279C366.471 118.224 366.471 119.813 366.353 120.643C366.258 121.236 366.21 121.64 365.807 121.711C365.617 121.734 365.357 121.806 365.167 121.806C365.048 121.806 365.001 121.9 365.001 121.972C365.001 122.09 365.119 122.138 365.333 122.138C365.665 122.138 366.139 122.114 366.542 122.09C366.993 122.066 367.396 122.066 367.444 122.066C367.752 122.066 368.297 122.066 369.175 122.114C370.029 122.138 371.238 122.185 372.804 122.185C373.61 122.185 373.823 122.185 373.966 121.663C374.084 121.236 374.25 119.861 374.25 119.718C374.25 119.576 374.227 119.41 374.108 119.41C373.989 119.41 373.942 119.481 373.895 119.718C373.776 120.525 373.491 120.881 372.946 121.118C372.4 121.331 371.404 121.331 370.859 121.331C368.795 121.331 368.416 121.07 368.369 119.718C368.345 119.315 368.369 116.967 368.369 116.279V114.596C368.369 114.524 368.392 114.453 368.511 114.453C368.867 114.453 371.096 114.477 371.665 114.548C372.472 114.643 372.661 114.88 372.732 115.165C372.827 115.426 372.827 115.639 372.827 115.829C372.827 115.947 372.875 116.019 372.97 116.019C373.112 116.019 373.159 115.805 373.159 115.639C373.159 115.497 373.207 114.738 373.254 114.335C373.302 113.671 373.42 113.339 373.42 113.22C373.42 113.101 373.373 113.054 373.302 113.054C373.231 113.054 373.136 113.173 372.993 113.315C372.78 113.528 372.472 113.552 371.974 113.599C371.499 113.647 368.748 113.647 368.487 113.647C368.369 113.647 368.369 113.576 368.369 113.433V107.955C368.369 107.813 368.392 107.741 368.487 107.741C368.724 107.741 371.143 107.765 371.499 107.813C372.638 107.955 372.851 108.097 372.993 108.429C373.088 108.666 373.112 108.998 373.112 109.141C373.112 109.307 373.159 109.402 373.278 109.402C373.373 109.402 373.444 109.283 373.468 109.188C373.515 108.951 373.563 108.05 373.586 107.86C373.634 107.291 373.752 107.054 373.752 106.911C373.752 106.816 373.729 106.722 373.657 106.722C373.563 106.722 373.468 106.793 373.373 106.816C373.207 106.84 372.827 106.911 372.424 106.935C371.95 106.959 367.586 106.935 367.444 106.935C367.325 106.935 365.973 106.888 365.024 106.888C364.787 106.888 364.692 106.935 364.692 107.054C364.692 107.125 364.787 107.22 364.858 107.22C365.048 107.22 365.404 107.243 365.57 107.267C366.258 107.362 366.376 107.694 366.424 108.382C366.471 109.022 366.471 109.591 366.471 112.722V116.279ZM60.5441 144.279C60.5441 146.224 60.5441 147.813 60.4255 148.643C60.3307 149.236 60.2832 149.616 59.8801 149.711C59.6903 149.758 59.4294 149.806 59.2397 149.806C59.1211 149.806 59.0737 149.9 59.0737 149.972C59.0737 150.09 59.1923 150.138 59.4057 150.138C59.7378 150.138 60.2358 150.114 60.6627 150.09C61.0896 150.09 61.4691 150.066 61.5165 150.066C61.6114 150.066 62.3229 150.114 63.2241 150.185C64.1254 150.232 65.2401 150.304 66.1413 150.304C69.6989 150.304 71.5725 148.904 72.4737 147.979C73.6359 146.793 74.7268 144.849 74.7268 142.311C74.7268 139.916 73.7307 138.232 72.6872 137.188C70.2206 134.698 66.4022 134.888 64.3151 134.888C63.0818 134.888 61.7537 134.935 61.5165 134.935C61.3979 134.935 60.0461 134.888 59.0974 134.888C58.8602 134.888 58.7654 134.935 58.7654 135.054C58.7654 135.125 58.8602 135.22 58.9314 135.22C59.1211 135.22 59.4769 135.243 59.6429 135.267C60.3307 135.362 60.4493 135.694 60.4967 136.382C60.5441 137.022 60.5441 137.591 60.5441 140.722V144.279ZM62.4415 136.168C62.4415 135.931 62.5126 135.836 62.7024 135.765C62.8921 135.694 63.5562 135.623 63.9594 135.623C66.4496 135.623 68.7502 135.884 70.7187 137.876C71.5725 138.73 72.6872 140.366 72.6872 142.928C72.6872 144.778 72.1417 146.699 71.0507 147.718C69.7937 148.904 68.0861 149.545 66.165 149.545C63.6985 149.545 62.9633 149.118 62.7024 148.738C62.5363 148.525 62.4889 147.79 62.4652 147.292C62.4415 146.912 62.4415 145.038 62.4415 142.904V136.168ZM77.1413 144.279C77.1413 146.224 77.1413 147.813 77.0227 148.643C76.9279 149.236 76.8804 149.64 76.4773 149.711C76.2875 149.734 76.0266 149.806 75.8369 149.806C75.7183 149.806 75.6709 149.9 75.6709 149.972C75.6709 150.09 75.7895 150.138 76.0029 150.138C76.335 150.138 76.8093 150.114 77.2125 150.09C77.6631 150.066 78.0663 150.066 78.1137 150.066C78.422 150.066 78.9675 150.066 79.8451 150.114C80.6989 150.138 81.9084 150.185 83.4737 150.185C84.2801 150.185 84.4936 150.185 84.6359 149.663C84.7545 149.236 84.9205 147.861 84.9205 147.718C84.9205 147.576 84.8968 147.41 84.7782 147.41C84.6596 147.41 84.6122 147.481 84.5647 147.718C84.4461 148.525 84.1615 148.881 83.616 149.118C83.0706 149.331 82.0744 149.331 81.529 149.331C79.4656 149.331 79.0861 149.07 79.0387 147.718C79.015 147.315 79.0387 144.967 79.0387 144.279V142.596C79.0387 142.524 79.0624 142.453 79.181 142.453C79.5367 142.453 81.7661 142.477 82.3353 142.548C83.1417 142.643 83.3314 142.88 83.4026 143.165C83.4975 143.426 83.4975 143.639 83.4975 143.829C83.4975 143.947 83.5449 144.019 83.6398 144.019C83.7821 144.019 83.8295 143.805 83.8295 143.639C83.8295 143.497 83.8769 142.738 83.9244 142.335C83.9718 141.671 84.0904 141.339 84.0904 141.22C84.0904 141.101 84.0429 141.054 83.9718 141.054C83.9006 141.054 83.8058 141.173 83.6635 141.315C83.45 141.528 83.1417 141.552 82.6436 141.599C82.1693 141.647 79.4182 141.647 79.1573 141.647C79.0387 141.647 79.0387 141.576 79.0387 141.433V135.955C79.0387 135.813 79.0624 135.741 79.1573 135.741C79.3944 135.741 81.8136 135.765 82.1693 135.813C83.3077 135.955 83.5212 136.097 83.6635 136.429C83.7583 136.666 83.7821 136.998 83.7821 137.141C83.7821 137.307 83.8295 137.402 83.9481 137.402C84.0429 137.402 84.1141 137.283 84.1378 137.188C84.1852 136.951 84.2327 136.05 84.2564 135.86C84.3038 135.291 84.4224 135.054 84.4224 134.911C84.4224 134.816 84.3987 134.722 84.3275 134.722C84.2327 134.722 84.1378 134.793 84.0429 134.816C83.8769 134.84 83.4975 134.911 83.0943 134.935C82.6199 134.959 78.256 134.935 78.1137 134.935C77.9951 134.935 76.6433 134.888 75.6946 134.888C75.4574 134.888 75.3626 134.935 75.3626 135.054C75.3626 135.125 75.4574 135.22 75.5286 135.22C75.7183 135.22 76.0741 135.243 76.2401 135.267C76.9279 135.362 77.0465 135.694 77.0939 136.382C77.1413 137.022 77.1413 137.591 77.1413 140.722V144.279ZM100.217 150.398C101.569 150.398 103.134 150.28 103.988 149.948C104.344 149.806 104.391 149.734 104.51 149.355C104.724 148.667 105.008 146.912 105.008 146.77C105.008 146.627 104.913 146.485 104.818 146.485C104.676 146.485 104.652 146.556 104.605 146.77C104.534 147.149 104.249 148.003 103.799 148.454C102.968 149.284 101.925 149.402 100.36 149.402C95.9008 149.402 92.8414 145.963 92.8414 142.098C92.8414 140.058 93.1734 138.255 94.715 136.832C95.4502 136.145 96.7309 135.433 99.4109 135.433C101.261 135.433 102.779 135.931 103.514 136.548C104.059 136.975 104.391 137.781 104.391 138.564C104.391 138.848 104.415 138.991 104.557 138.991C104.676 138.991 104.771 138.872 104.795 138.564C104.818 138.279 104.818 137.164 104.842 136.5C104.89 135.765 104.937 135.528 104.937 135.362C104.937 135.243 104.89 135.148 104.676 135.148C103.988 135.125 103.324 134.982 102.542 134.84C101.522 134.674 100.336 134.603 99.5058 134.603C96.304 134.603 94.4067 135.552 93.1497 136.761C91.2998 138.564 90.8017 140.912 90.8017 142.264C90.8017 144.185 91.2998 146.485 93.3394 148.24C94.9759 149.663 97.0867 150.398 100.217 150.398ZM107.593 144.279C107.593 146.224 107.593 147.813 107.475 148.643C107.38 149.236 107.333 149.616 106.929 149.711C106.74 149.758 106.479 149.806 106.289 149.806C106.17 149.806 106.123 149.9 106.123 149.972C106.123 150.09 106.242 150.138 106.455 150.138C107.095 150.138 108.495 150.066 108.518 150.066C108.613 150.066 109.941 150.138 111.08 150.138C111.317 150.138 111.412 150.066 111.412 149.972C111.412 149.9 111.388 149.806 111.246 149.806C111.056 149.806 110.605 149.758 110.321 149.711C109.681 149.616 109.562 149.236 109.491 148.643C109.396 147.813 109.396 146.248 109.396 144.303V143.829C109.396 143.71 109.443 143.663 109.538 143.663L112.195 143.71C112.337 143.71 112.384 143.734 112.479 143.829C112.93 144.374 113.855 145.679 114.732 146.77C115.918 148.288 116.677 149.26 117.578 149.734C118.1 150.019 118.622 150.138 119.808 150.138H121.112C121.492 150.138 121.61 150.09 121.61 149.972C121.61 149.9 121.539 149.806 121.42 149.806C121.302 149.806 121.088 149.806 120.685 149.734C120.163 149.663 119.476 149.473 118.361 148.335C117.151 147.078 115.705 145.252 113.997 143.117C115.942 141.457 116.558 140.01 116.558 138.516C116.558 137.117 115.633 136.145 115.112 135.765C114.021 135.006 112.55 134.888 111.222 134.888C110.582 134.888 108.827 134.935 108.613 134.935C108.495 134.935 107.095 134.888 106.147 134.888C105.91 134.888 105.815 134.935 105.815 135.054C105.815 135.125 105.91 135.22 105.981 135.22C106.17 135.22 106.526 135.243 106.692 135.267C107.38 135.362 107.499 135.694 107.546 136.382C107.593 137.022 107.593 137.591 107.593 140.722V144.279ZM109.396 135.955C109.396 135.836 109.467 135.765 109.562 135.718C109.775 135.67 110.439 135.599 111.056 135.599C113.286 135.599 114.661 137.046 114.661 139.56C114.661 141.101 114.116 142.169 113.404 142.643C112.906 142.975 112.337 142.999 111.839 142.999C110.914 142.999 109.847 142.856 109.538 142.69C109.443 142.619 109.396 142.548 109.396 142.43V135.955ZM123.054 140.722C123.054 137.591 123.054 137.022 123.078 136.382C123.125 135.67 123.244 135.386 123.813 135.267C124.05 135.22 124.192 135.22 124.335 135.22C124.406 135.22 124.501 135.125 124.501 135.054C124.501 134.935 124.406 134.888 124.169 134.888C123.528 134.888 122.176 134.935 122.082 134.935C121.963 134.935 120.658 134.888 119.971 134.888C119.734 134.888 119.639 134.935 119.639 135.054C119.639 135.125 119.71 135.22 119.805 135.22C119.947 135.22 120.208 135.243 120.445 135.291C120.896 135.386 121.062 135.694 121.109 136.382C121.157 137.022 121.157 137.591 121.157 140.722V144.279C121.157 146.224 121.133 147.813 121.038 148.643C120.967 149.236 120.896 149.616 120.492 149.711C120.303 149.758 120.042 149.806 119.852 149.806C119.734 149.806 119.686 149.9 119.686 149.972C119.686 150.09 119.805 150.138 120.018 150.138C120.658 150.138 121.963 150.066 122.082 150.066C122.176 150.066 123.528 150.138 124.69 150.138C124.928 150.138 125.022 150.066 125.022 149.972C125.022 149.9 124.975 149.806 124.856 149.806C124.667 149.806 124.216 149.758 123.908 149.711C123.291 149.616 123.22 149.236 123.149 148.643C123.054 147.813 123.054 146.224 123.054 144.279V140.722ZM126.272 147.908C125.868 148.928 125.465 149.64 124.517 149.758C124.351 149.782 124.042 149.806 123.9 149.806C123.805 149.806 123.71 149.877 123.71 149.972C123.71 150.09 123.852 150.138 124.113 150.138C124.967 150.138 126.011 150.066 126.224 150.066C126.461 150.066 127.6 150.138 128.098 150.138C128.288 150.138 128.406 150.09 128.406 149.972C128.406 149.877 128.359 149.806 128.193 149.806H128.003C127.647 149.806 127.291 149.663 127.291 149.26C127.291 148.904 127.41 148.406 127.6 147.908L128.786 144.683C128.833 144.564 128.904 144.517 128.999 144.517H133.814C133.932 144.517 133.956 144.54 134.003 144.635L135.877 149.26C136.019 149.592 135.806 149.758 135.687 149.806C135.592 149.853 135.545 149.853 135.545 149.948C135.545 150.066 135.877 150.066 136.28 150.09C137.727 150.138 139.268 150.138 139.577 150.138C139.814 150.138 140.051 150.09 140.051 149.972C140.051 149.853 139.909 149.806 139.79 149.806C139.577 149.806 139.268 149.782 138.96 149.687C138.51 149.545 137.94 149.284 137.181 147.481C135.901 144.422 132.557 136.097 132.177 135.243C131.964 134.793 131.893 134.508 131.679 134.508C131.537 134.508 131.442 134.627 131.181 135.291L126.272 147.908ZM129.284 143.687C129.213 143.687 129.189 143.639 129.213 143.544L131.157 138.018C131.276 137.71 131.394 137.71 131.513 138.018L133.576 143.544C133.6 143.639 133.6 143.687 133.505 143.687H129.284ZM140.431 144.279C140.431 146.224 140.431 147.813 140.313 148.643C140.218 149.236 140.17 149.616 139.767 149.711C139.577 149.758 139.316 149.806 139.127 149.806C139.008 149.806 138.961 149.9 138.961 149.972C138.961 150.09 139.079 150.138 139.293 150.138C139.625 150.138 140.123 150.114 140.55 150.09C140.977 150.09 141.356 150.066 141.404 150.066C141.498 150.066 142.21 150.114 143.111 150.185C144.012 150.232 145.127 150.304 146.028 150.304C149.586 150.304 151.46 148.904 152.361 147.979C153.523 146.793 154.614 144.849 154.614 142.311C154.614 139.916 153.618 138.232 152.574 137.188C150.108 134.698 146.289 134.888 144.202 134.888C142.969 134.888 141.641 134.935 141.404 134.935C141.285 134.935 139.933 134.888 138.984 134.888C138.747 134.888 138.652 134.935 138.652 135.054C138.652 135.125 138.747 135.22 138.818 135.22C139.008 135.22 139.364 135.243 139.53 135.267C140.218 135.362 140.336 135.694 140.384 136.382C140.431 137.022 140.431 137.591 140.431 140.722V144.279ZM142.329 136.168C142.329 135.931 142.4 135.836 142.589 135.765C142.779 135.694 143.443 135.623 143.846 135.623C146.337 135.623 148.637 135.884 150.606 137.876C151.46 138.73 152.574 140.366 152.574 142.928C152.574 144.778 152.029 146.699 150.938 147.718C149.681 148.904 147.973 149.545 146.052 149.545C143.586 149.545 142.85 149.118 142.589 148.738C142.423 148.525 142.376 147.79 142.352 147.292C142.329 146.912 142.329 145.038 142.329 142.904V136.168ZM154.865 142.477C154.865 146.106 157.308 150.398 163.024 150.398C168.052 150.398 171.396 146.675 171.396 142.169C171.396 137.473 167.838 134.603 163.142 134.603C157.379 134.603 154.865 139.228 154.865 142.477ZM157.023 141.932C157.023 137.544 159.537 135.362 163.024 135.362C166.32 135.362 169.261 137.9 169.261 142.738C169.261 148.572 165.49 149.568 163.617 149.568C159.846 149.568 157.023 146.627 157.023 141.932ZM173.371 144.279C173.371 146.224 173.371 147.813 173.252 148.643C173.157 149.236 173.11 149.616 172.707 149.711C172.517 149.758 172.256 149.806 172.066 149.806C171.948 149.806 171.9 149.9 171.9 149.972C171.9 150.09 172.019 150.138 172.232 150.138C172.873 150.138 174.272 150.066 174.296 150.066C174.391 150.066 175.719 150.138 176.857 150.138C177.094 150.138 177.189 150.066 177.189 149.972C177.189 149.9 177.165 149.806 177.023 149.806C176.833 149.806 176.383 149.758 176.098 149.711C175.458 149.616 175.339 149.236 175.268 148.643C175.173 147.813 175.173 146.248 175.173 144.303V143.829C175.173 143.71 175.221 143.663 175.316 143.663L177.972 143.71C178.114 143.71 178.162 143.734 178.256 143.829C178.707 144.374 179.632 145.679 180.51 146.77C181.695 148.288 182.454 149.26 183.356 149.734C183.877 150.019 184.399 150.138 185.585 150.138H186.889C187.269 150.138 187.387 150.09 187.387 149.972C187.387 149.9 187.316 149.806 187.198 149.806C187.079 149.806 186.866 149.806 186.463 149.734C185.941 149.663 185.253 149.473 184.138 148.335C182.929 147.078 181.482 145.252 179.774 143.117C181.719 141.457 182.336 140.01 182.336 138.516C182.336 137.117 181.411 136.145 180.889 135.765C179.798 135.006 178.328 134.888 176.999 134.888C176.359 134.888 174.604 134.935 174.391 134.935C174.272 134.935 172.873 134.888 171.924 134.888C171.687 134.888 171.592 134.935 171.592 135.054C171.592 135.125 171.687 135.22 171.758 135.22C171.948 135.22 172.304 135.243 172.47 135.267C173.157 135.362 173.276 135.694 173.323 136.382C173.371 137.022 173.371 137.591 173.371 140.722V144.279ZM175.173 135.955C175.173 135.836 175.244 135.765 175.339 135.718C175.553 135.67 176.217 135.599 176.833 135.599C179.063 135.599 180.438 137.046 180.438 139.56C180.438 141.101 179.893 142.169 179.181 142.643C178.683 142.975 178.114 142.999 177.616 142.999C176.691 142.999 175.624 142.856 175.316 142.69C175.221 142.619 175.173 142.548 175.173 142.43V135.955ZM186.934 144.279C186.934 146.224 186.934 147.813 186.815 148.643C186.72 149.236 186.673 149.64 186.27 149.711C186.08 149.734 185.819 149.806 185.629 149.806C185.511 149.806 185.463 149.9 185.463 149.972C185.463 150.09 185.582 150.138 185.795 150.138C186.127 150.138 186.602 150.114 187.005 150.09C187.456 150.066 187.859 150.066 187.906 150.066C188.215 150.066 188.76 150.066 189.638 150.114C190.491 150.138 191.701 150.185 193.266 150.185C194.073 150.185 194.286 150.185 194.428 149.663C194.547 149.236 194.713 147.861 194.713 147.718C194.713 147.576 194.689 147.41 194.571 147.41C194.452 147.41 194.405 147.481 194.357 147.718C194.239 148.525 193.954 148.881 193.409 149.118C192.863 149.331 191.867 149.331 191.321 149.331C189.258 149.331 188.879 149.07 188.831 147.718C188.808 147.315 188.831 144.967 188.831 144.279V142.596C188.831 142.524 188.855 142.453 188.974 142.453C189.329 142.453 191.559 142.477 192.128 142.548C192.934 142.643 193.124 142.88 193.195 143.165C193.29 143.426 193.29 143.639 193.29 143.829C193.29 143.947 193.337 144.019 193.432 144.019C193.575 144.019 193.622 143.805 193.622 143.639C193.622 143.497 193.669 142.738 193.717 142.335C193.764 141.671 193.883 141.339 193.883 141.22C193.883 141.101 193.835 141.054 193.764 141.054C193.693 141.054 193.598 141.173 193.456 141.315C193.243 141.528 192.934 141.552 192.436 141.599C191.962 141.647 189.211 141.647 188.95 141.647C188.831 141.647 188.831 141.576 188.831 141.433V135.955C188.831 135.813 188.855 135.741 188.95 135.741C189.187 135.741 191.606 135.765 191.962 135.813C193.1 135.955 193.314 136.097 193.456 136.429C193.551 136.666 193.575 136.998 193.575 137.141C193.575 137.307 193.622 137.402 193.741 137.402C193.835 137.402 193.907 137.283 193.93 137.188C193.978 136.951 194.025 136.05 194.049 135.86C194.096 135.291 194.215 135.054 194.215 134.911C194.215 134.816 194.191 134.722 194.12 134.722C194.025 134.722 193.93 134.793 193.835 134.816C193.669 134.84 193.29 134.911 192.887 134.935C192.412 134.959 188.049 134.935 187.906 134.935C187.788 134.935 186.436 134.888 185.487 134.888C185.25 134.888 185.155 134.935 185.155 135.054C185.155 135.125 185.25 135.22 185.321 135.22C185.511 135.22 185.867 135.243 186.033 135.267C186.72 135.362 186.839 135.694 186.886 136.382C186.934 137.022 186.934 137.591 186.934 140.722V144.279ZM198.906 150.398C200.044 150.398 201.349 150.256 202.226 149.687C203.72 148.715 204.171 147.434 204.171 146.248C204.171 144.517 203.293 143.117 200.756 141.386L200.163 140.983C198.099 139.584 197.459 138.848 197.459 137.568C197.459 136.145 198.716 135.386 200.234 135.386C202.108 135.386 202.795 136.145 202.938 136.382C203.056 136.595 203.222 137.141 203.246 137.378C203.27 137.544 203.293 137.639 203.436 137.639C203.578 137.639 203.602 137.496 203.602 137.188C203.602 135.813 203.697 135.148 203.697 135.054C203.697 134.935 203.649 134.911 203.483 134.911C203.317 134.911 203.151 134.911 202.748 134.816C202.25 134.698 201.42 134.579 200.59 134.579C197.838 134.579 195.965 136.002 195.965 138.374C195.965 139.773 196.7 141.007 198.953 142.69L199.902 143.402C201.752 144.778 202.534 145.465 202.534 146.912C202.534 148.43 201.467 149.592 199.404 149.592C198.004 149.592 196.439 149.07 196.107 147.6C196.036 147.315 196.036 147.031 196.036 146.865C196.036 146.699 195.965 146.627 195.846 146.627C195.728 146.627 195.68 146.746 195.68 146.959C195.657 147.292 195.562 148.098 195.562 149.094C195.562 149.64 195.585 149.711 195.87 149.853C196.724 150.256 197.933 150.398 198.906 150.398ZM213.032 144.279C213.032 146.224 213.032 147.813 212.913 148.643C212.818 149.236 212.771 149.616 212.368 149.711C212.178 149.758 211.917 149.806 211.727 149.806C211.609 149.806 211.561 149.9 211.561 149.972C211.561 150.09 211.68 150.138 211.893 150.138C212.225 150.138 212.723 150.114 213.15 150.09C213.577 150.09 213.957 150.066 214.004 150.066C214.099 150.066 214.81 150.114 215.712 150.185C216.613 150.232 217.728 150.304 218.629 150.304C222.186 150.304 224.06 148.904 224.961 147.979C226.123 146.793 227.214 144.849 227.214 142.311C227.214 139.916 226.218 138.232 225.175 137.188C222.708 134.698 218.89 134.888 216.803 134.888C215.569 134.888 214.241 134.935 214.004 134.935C213.886 134.935 212.534 134.888 211.585 134.888C211.348 134.888 211.253 134.935 211.253 135.054C211.253 135.125 211.348 135.22 211.419 135.22C211.609 135.22 211.964 135.243 212.13 135.267C212.818 135.362 212.937 135.694 212.984 136.382C213.032 137.022 213.032 137.591 213.032 140.722V144.279ZM214.929 136.168C214.929 135.931 215 135.836 215.19 135.765C215.38 135.694 216.044 135.623 216.447 135.623C218.937 135.623 221.238 135.884 223.206 137.876C224.06 138.73 225.175 140.366 225.175 142.928C225.175 144.778 224.629 146.699 223.538 147.718C222.281 148.904 220.574 149.545 218.653 149.545C216.186 149.545 215.451 149.118 215.19 148.738C215.024 148.525 214.977 147.79 214.953 147.292C214.929 146.912 214.929 145.038 214.929 142.904V136.168ZM229.629 144.279C229.629 146.224 229.629 147.813 229.51 148.643C229.415 149.236 229.368 149.64 228.965 149.711C228.775 149.734 228.514 149.806 228.324 149.806C228.206 149.806 228.158 149.9 228.158 149.972C228.158 150.09 228.277 150.138 228.491 150.138C228.823 150.138 229.297 150.114 229.7 150.09C230.151 150.066 230.554 150.066 230.601 150.066C230.91 150.066 231.455 150.066 232.333 150.114C233.186 150.138 234.396 150.185 235.961 150.185C236.768 150.185 236.981 150.185 237.123 149.663C237.242 149.236 237.408 147.861 237.408 147.718C237.408 147.576 237.384 147.41 237.266 147.41C237.147 147.41 237.1 147.481 237.052 147.718C236.934 148.525 236.649 148.881 236.104 149.118C235.558 149.331 234.562 149.331 234.017 149.331C231.953 149.331 231.574 149.07 231.526 147.718C231.503 147.315 231.526 144.967 231.526 144.279V142.596C231.526 142.524 231.55 142.453 231.669 142.453C232.024 142.453 234.254 142.477 234.823 142.548C235.629 142.643 235.819 142.88 235.89 143.165C235.985 143.426 235.985 143.639 235.985 143.829C235.985 143.947 236.032 144.019 236.127 144.019C236.27 144.019 236.317 143.805 236.317 143.639C236.317 143.497 236.365 142.738 236.412 142.335C236.459 141.671 236.578 141.339 236.578 141.22C236.578 141.101 236.531 141.054 236.459 141.054C236.388 141.054 236.293 141.173 236.151 141.315C235.938 141.528 235.629 141.552 235.131 141.599C234.657 141.647 231.906 141.647 231.645 141.647C231.526 141.647 231.526 141.576 231.526 141.433V135.955C231.526 135.813 231.55 135.741 231.645 135.741C231.882 135.741 234.301 135.765 234.657 135.813C235.795 135.955 236.009 136.097 236.151 136.429C236.246 136.666 236.27 136.998 236.27 137.141C236.27 137.307 236.317 137.402 236.436 137.402C236.531 137.402 236.602 137.283 236.625 137.188C236.673 136.951 236.72 136.05 236.744 135.86C236.791 135.291 236.91 135.054 236.91 134.911C236.91 134.816 236.886 134.722 236.815 134.722C236.72 134.722 236.625 134.793 236.531 134.816C236.365 134.84 235.985 134.911 235.582 134.935C235.108 134.959 230.744 134.935 230.601 134.935C230.483 134.935 229.131 134.888 228.182 134.888C227.945 134.888 227.85 134.935 227.85 135.054C227.85 135.125 227.945 135.22 228.016 135.22C228.206 135.22 228.562 135.243 228.728 135.267C229.415 135.362 229.534 135.694 229.581 136.382C229.629 137.022 229.629 137.591 229.629 140.722V144.279ZM252.705 150.398C254.057 150.398 255.622 150.28 256.476 149.948C256.832 149.806 256.879 149.734 256.998 149.355C257.211 148.667 257.496 146.912 257.496 146.77C257.496 146.627 257.401 146.485 257.306 146.485C257.164 146.485 257.14 146.556 257.093 146.77C257.021 147.149 256.737 148.003 256.286 148.454C255.456 149.284 254.413 149.402 252.847 149.402C248.388 149.402 245.329 145.963 245.329 142.098C245.329 140.058 245.661 138.255 247.203 136.832C247.938 136.145 249.219 135.433 251.899 135.433C253.748 135.433 255.266 135.931 256.002 136.548C256.547 136.975 256.879 137.781 256.879 138.564C256.879 138.848 256.903 138.991 257.045 138.991C257.164 138.991 257.259 138.872 257.282 138.564C257.306 138.279 257.306 137.164 257.33 136.5C257.377 135.765 257.425 135.528 257.425 135.362C257.425 135.243 257.377 135.148 257.164 135.148C256.476 135.125 255.812 134.982 255.029 134.84C254.009 134.674 252.824 134.603 251.993 134.603C248.792 134.603 246.894 135.552 245.637 136.761C243.787 138.564 243.289 140.912 243.289 142.264C243.289 144.185 243.787 146.485 245.827 148.24C247.463 149.663 249.574 150.398 252.705 150.398ZM258.35 147.908C257.947 148.928 257.543 149.64 256.595 149.758C256.429 149.782 256.12 149.806 255.978 149.806C255.883 149.806 255.788 149.877 255.788 149.972C255.788 150.09 255.931 150.138 256.191 150.138C257.045 150.138 258.089 150.066 258.302 150.066C258.539 150.066 259.678 150.138 260.176 150.138C260.366 150.138 260.484 150.09 260.484 149.972C260.484 149.877 260.437 149.806 260.271 149.806H260.081C259.725 149.806 259.37 149.663 259.37 149.26C259.37 148.904 259.488 148.406 259.678 147.908L260.864 144.683C260.911 144.564 260.982 144.517 261.077 144.517H265.892C266.01 144.517 266.034 144.54 266.081 144.635L267.955 149.26C268.097 149.592 267.884 149.758 267.765 149.806C267.67 149.853 267.623 149.853 267.623 149.948C267.623 150.066 267.955 150.066 268.358 150.09C269.805 150.138 271.347 150.138 271.655 150.138C271.892 150.138 272.129 150.09 272.129 149.972C272.129 149.853 271.987 149.806 271.868 149.806C271.655 149.806 271.347 149.782 271.038 149.687C270.588 149.545 270.018 149.284 269.259 147.481C267.979 144.422 264.635 136.097 264.255 135.243C264.042 134.793 263.971 134.508 263.757 134.508C263.615 134.508 263.52 134.627 263.259 135.291L258.35 147.908ZM261.362 143.687C261.291 143.687 261.267 143.639 261.291 143.544L263.235 138.018C263.354 137.71 263.473 137.71 263.591 138.018L265.655 143.544C265.678 143.639 265.678 143.687 265.583 143.687H261.362ZM271.413 137.354C271.104 136.548 270.843 135.931 270.843 135.67C270.843 135.528 270.867 135.409 271.081 135.314C271.27 135.243 271.602 135.22 271.839 135.22C271.982 135.22 272.053 135.125 272.053 135.03C272.053 134.935 271.863 134.888 271.484 134.888C270.677 134.888 269.752 134.935 269.539 134.935C269.278 134.935 268.092 134.888 267.096 134.888C266.764 134.888 266.551 134.911 266.551 135.03C266.551 135.101 266.598 135.22 266.717 135.22C266.835 135.22 267.191 135.22 267.523 135.291C268.211 135.457 268.495 135.67 268.97 136.809L274.093 149.165C274.496 150.138 274.638 150.398 274.875 150.398C275.089 150.398 275.207 150.09 275.776 148.881C276.251 147.884 277.176 145.702 278.456 142.762C279.524 140.295 280.544 137.876 280.781 137.307C281.326 135.931 281.658 135.647 281.943 135.457C282.322 135.22 282.797 135.22 282.939 135.22C283.105 135.22 283.176 135.125 283.176 135.03C283.176 134.935 283.058 134.888 282.844 134.888C282.227 134.888 281.326 134.935 281.208 134.935C280.947 134.935 279.998 134.888 279.168 134.888C278.836 134.888 278.694 134.935 278.694 135.054C278.694 135.148 278.812 135.22 278.931 135.22C279.168 135.22 279.405 135.22 279.642 135.291C279.856 135.362 279.927 135.552 279.927 135.718C279.927 135.884 279.832 136.168 279.737 136.477C279.287 137.923 276.559 144.801 275.35 147.505L271.413 137.354ZM280.543 147.908C280.139 148.928 279.736 149.64 278.788 149.758C278.622 149.782 278.313 149.806 278.171 149.806C278.076 149.806 277.981 149.877 277.981 149.972C277.981 150.09 278.124 150.138 278.384 150.138C279.238 150.138 280.282 150.066 280.495 150.066C280.732 150.066 281.871 150.138 282.369 150.138C282.559 150.138 282.677 150.09 282.677 149.972C282.677 149.877 282.63 149.806 282.464 149.806H282.274C281.918 149.806 281.562 149.663 281.562 149.26C281.562 148.904 281.681 148.406 281.871 147.908L283.057 144.683C283.104 144.564 283.175 144.517 283.27 144.517H288.085C288.203 144.517 288.227 144.54 288.274 144.635L290.148 149.26C290.29 149.592 290.077 149.758 289.958 149.806C289.863 149.853 289.816 149.853 289.816 149.948C289.816 150.066 290.148 150.066 290.551 150.09C291.998 150.138 293.539 150.138 293.848 150.138C294.085 150.138 294.322 150.09 294.322 149.972C294.322 149.853 294.18 149.806 294.061 149.806C293.848 149.806 293.539 149.782 293.231 149.687C292.781 149.545 292.211 149.284 291.452 147.481C290.172 144.422 286.828 136.097 286.448 135.243C286.235 134.793 286.164 134.508 285.95 134.508C285.808 134.508 285.713 134.627 285.452 135.291L280.543 147.908ZM283.555 143.687C283.484 143.687 283.46 143.639 283.484 143.544L285.428 138.018C285.547 137.71 285.665 137.71 285.784 138.018L287.847 143.544C287.871 143.639 287.871 143.687 287.776 143.687H283.555ZM296.6 140.722C296.6 137.591 296.6 137.022 296.623 136.382C296.671 135.67 296.789 135.362 297.406 135.243C297.643 135.22 297.951 135.196 298.094 135.196C298.165 135.196 298.26 135.125 298.26 135.054C298.26 134.935 298.141 134.888 297.928 134.888C297.287 134.888 295.722 134.935 295.627 134.935C295.509 134.935 294.204 134.888 293.255 134.888C293.018 134.888 292.923 134.935 292.923 135.054C292.923 135.125 293.018 135.22 293.089 135.22C293.279 135.22 293.635 135.243 293.801 135.267C294.489 135.362 294.607 135.694 294.655 136.382C294.702 137.022 294.702 137.591 294.702 140.722V144.279C294.702 146.224 294.702 147.813 294.584 148.643C294.489 149.236 294.441 149.616 294.038 149.711C293.848 149.758 293.587 149.806 293.398 149.806C293.279 149.806 293.232 149.9 293.232 149.972C293.232 150.09 293.35 150.138 293.564 150.138C293.896 150.138 294.346 150.114 294.773 150.09C295.177 150.066 295.532 150.066 295.627 150.066C296.244 150.066 296.955 150.09 297.904 150.114C298.876 150.161 300.038 150.185 301.533 150.185C302.647 150.185 302.718 150.114 302.861 149.64C303.027 149.047 303.169 147.837 303.169 147.624C303.169 147.41 303.122 147.315 303.027 147.315C302.908 147.315 302.837 147.434 302.813 147.576C302.742 147.979 302.576 148.406 302.315 148.715C301.817 149.307 300.892 149.331 299.801 149.331C298.165 149.331 297.358 149.189 297.026 148.857C296.647 148.501 296.6 147.292 296.6 144.327V140.722ZM302.118 142.477C302.118 146.106 304.561 150.398 310.277 150.398C315.305 150.398 318.649 146.675 318.649 142.169C318.649 137.473 315.091 134.603 310.396 134.603C304.632 134.603 302.118 139.228 302.118 142.477ZM304.277 141.932C304.277 137.544 306.791 135.362 310.277 135.362C313.574 135.362 316.514 137.9 316.514 142.738C316.514 148.572 312.744 149.568 310.87 149.568C307.099 149.568 304.277 146.627 304.277 141.932Z" fill="white"/>
<path d="M321.234 89.5107H376.596" stroke="white" stroke-width="1.39649"/>
<path d="M0 89.5107L262.033 89.5107" stroke="white" stroke-width="1.39649"/>
<path d="M361.609 19.9597C361.46 18.5407 361.236 17.9432 360.713 17.9432C360.19 17.9432 359.891 18.466 359.593 19.1381L337.636 66.0387L314.783 19.0635C314.41 18.242 314.111 17.9432 313.663 17.9432C313.215 17.9432 312.916 18.466 312.841 19.2875L307.464 67.9804C307.166 70.8183 306.942 73.731 304.477 74.1791C303.357 74.4031 302.834 74.4031 302.237 74.4031C301.863 74.4031 301.49 74.5525 301.49 74.7765C301.49 75.2993 302.013 75.4487 302.759 75.4487C304.776 75.4487 308.361 75.2246 309.033 75.2246C309.63 75.2246 313.215 75.4487 315.978 75.4487C316.874 75.4487 317.322 75.2993 317.322 74.7765C317.322 74.5525 317.024 74.4031 316.725 74.4031C316.277 74.4031 315.157 74.3284 313.887 74.0297C312.767 73.8056 311.945 72.8348 311.945 71.7145C311.945 70.4449 311.945 69.1007 312.02 67.9057L315.007 33.2531H315.306C316.127 35.2695 324.492 53.1933 325.164 54.5376C325.537 55.2844 331.96 68.2045 333.902 71.8639C335.321 74.5525 335.694 75.2993 336.217 75.2993C336.889 75.2993 337.113 74.6272 338.682 71.3411L356.979 32.5063H357.203L360.788 71.2664C360.937 72.6107 360.862 73.8803 360.489 73.955C360.115 74.0297 359.966 74.1791 359.966 74.4778C359.966 74.8512 360.339 75.0752 362.057 75.2246C364.82 75.4487 372.886 75.5233 374.529 75.5233C375.425 75.5233 376.097 75.2993 376.097 74.8512C376.097 74.5525 375.873 74.4778 375.5 74.4778C374.753 74.4778 372.811 74.4778 370.646 73.8056C367.434 72.7601 366.911 68.5779 366.613 65.8893L361.609 19.9597Z" fill="white"/>
<path d="M293.135 96.9254C294.378 97.1304 295.641 97.2106 296.919 97.2106C305.517 97.2106 309.238 94.3581 313.028 92.2366C313.406 92.0247 313.028 92.2366 313.028 92.2366C293.186 102.327 277.013 86.5083 274.486 83.8197C272.552 81.7695 266.723 81.849 266.723 81.849C274.887 89.2929 281.432 93.4222 287.574 95.4916C287.575 95.4909 291.144 96.5997 293.135 96.9254Z" fill="#FFCB00"/>
<path d="M271.685 77.6058C258.049 77.6058 243.93 66.5682 243.93 45.2637C243.93 27.6955 254.572 17.3326 268.976 17.3326C282.611 17.3326 296.729 28.2756 296.729 49.6803C296.729 67.2477 285.997 77.6058 271.685 77.6058ZM312.782 89.8928C309.977 91.1359 306.592 91.8155 302.534 91.8155C295.183 91.8155 285.803 86.4424 277.874 78.7605C293.826 74.8288 304.465 59.9492 304.465 46.415C304.465 30.0948 290.927 15.124 271.199 15.124C250.601 15.124 236.19 32.6894 236.19 48.4295C236.19 64.6496 249.346 79.4325 268.784 79.8179C268.784 79.8179 273.524 79.7335 275.458 81.7879C277.986 84.4744 294.063 100.644 312.881 91.0502C313.368 90.7622 312.975 89.7954 312.782 89.8928Z" fill="#008F35"/>
<path d="M124.715 67.2336C123.371 70.9677 121.877 73.8056 118.442 74.2537C117.844 74.3284 116.799 74.4031 116.276 74.4031C115.902 74.4031 115.604 74.5525 115.604 74.8512C115.604 75.2993 116.052 75.4487 117.023 75.4487C120.533 75.4487 124.64 75.2246 125.462 75.2246C126.283 75.2246 129.495 75.4487 131.287 75.4487C131.959 75.4487 132.407 75.2993 132.407 74.8512C132.407 74.5525 132.183 74.4031 131.66 74.4031H130.914C129.644 74.4031 128.076 73.731 128.076 72.2373C128.076 70.893 128.449 69.1007 129.121 67.2336L133.602 54.0148C133.752 53.6414 133.976 53.4174 134.349 53.4174H150.406C150.779 53.4174 150.928 53.5667 151.078 53.8654L158.023 72.2373C158.471 73.4322 158.023 74.1044 157.575 74.2537C157.276 74.3284 157.052 74.4778 157.052 74.7765C157.052 75.2246 157.874 75.2246 159.293 75.2993C164.446 75.4487 169.898 75.4487 171.018 75.4487C171.84 75.4487 172.512 75.2993 172.512 74.8512C172.512 74.4778 172.213 74.4031 171.765 74.4031C171.018 74.4031 169.898 74.3284 168.778 73.955C167.209 73.5069 165.043 72.312 162.355 65.6653C157.799 54.3135 146.074 23.4697 144.954 20.6318C144.058 18.3166 143.759 17.9432 143.311 17.9432C142.863 17.9432 142.564 18.3913 141.668 20.8558L124.715 67.2336ZM135.17 50.7288C134.946 50.7288 134.797 50.5794 134.946 50.206L141.518 30.0418C141.892 28.9215 142.265 28.9215 142.639 30.0418L149.734 50.206C149.808 50.5047 149.808 50.7288 149.435 50.7288H135.17ZM184.251 29.519C186.641 32.2076 195.08 41.6175 203.743 50.9528C211.66 59.4666 222.414 70.4449 223.236 71.1918C227.194 75.1499 228.09 75.9714 228.687 75.9714C229.21 75.9714 229.36 75.598 229.36 70.669L229.509 26.9051C229.509 22.4242 229.808 20.7812 232.272 20.2584C233.168 20.0343 233.691 20.0343 234.065 20.0343C234.587 20.0343 234.886 19.8103 234.886 19.5116C234.886 19.0635 234.363 18.9888 233.542 18.9888C230.48 18.9888 228.015 19.2128 227.194 19.2128C226.372 19.2128 222.787 18.9888 219.427 18.9888C218.531 18.9888 217.933 19.0635 217.933 19.5116C217.933 19.8103 218.008 20.0343 218.531 20.0343C219.128 20.0343 220.846 20.109 222.19 20.4077C224.505 21.0052 225.028 22.6482 225.103 27.5026L225.924 65.4412C223.534 62.9767 215.394 53.8654 208 45.9491C196.499 33.6265 185.372 21.6027 184.251 20.3331C183.505 19.5862 182.235 17.9432 181.637 17.9432C181.04 17.9432 180.816 18.7647 180.816 21.6773L180.741 64.4703C180.741 71.2664 180.368 73.4322 178.501 73.955C177.381 74.3284 176.036 74.4031 175.439 74.4031C175.065 74.4031 174.841 74.5525 174.841 74.8512C174.841 75.374 175.289 75.4487 176.036 75.4487C179.397 75.4487 182.534 75.2246 183.206 75.2246C183.878 75.2246 186.865 75.4487 191.122 75.4487C192.018 75.4487 192.466 75.2993 192.466 74.8512C192.466 74.5525 192.242 74.4031 191.869 74.4031C191.197 74.4031 189.554 74.3284 188.135 73.955C186.118 73.3576 185.372 71.4158 185.222 65.2919L184.251 29.519Z" fill="white"/>
<path d="M35.6231 22.733L39.1005 21.0222L41.7383 23.8678L41.1884 20.0224L44.7027 18.3939L40.8871 17.7295L40.4248 13.8779L38.6143 17.3064L34.813 16.5611L37.5111 19.3415L35.6231 22.733Z" fill="white"/>
<path d="M26.651 23.4693L29.0258 20.7553L32.3067 22.2481L30.4611 19.1501L32.888 16.4855L29.3764 17.2823L27.598 14.1445L27.2748 17.7403L23.7406 18.4671L27.0557 19.881L26.651 23.4693Z" fill="white"/>
<path d="M50.357 27.1072L48.7731 23.8673L45.2156 24.4488L47.8062 21.9412L46.1579 18.7349L49.3415 20.4217L51.8773 17.8613L51.2507 21.4139L54.472 23.0404L50.9042 23.5382L50.357 27.1072Z" fill="white"/>
<path d="M19.7907 50.2777C17.7432 49.0894 17.9404 47.4067 17.7432 46.603C17.5439 45.8063 16.9523 41.7339 16.9523 40.547C16.9523 39.3587 15.8963 38.0257 15.1684 36.4856C14.4411 34.9442 12.5258 30.8849 12.3984 30.6044C12.2621 30.326 11.4082 29.6253 10.0201 30.2547C8.63275 30.8842 7.04951 30.3967 6.65164 30.6044C6.25515 30.8136 4.80682 31.3038 4.14463 31.3758C3.48381 31.4451 3.55023 32.2851 3.088 32.5655C2.62645 32.8473 1.30548 32.0725 1.30548 32.0725C1.30548 32.0725 0.64603 31.7283 0.51455 31.4451C0.383755 31.1646 0.383755 30.7717 0.116001 29.977C-0.275699 28.786 0.450179 28.6708 0.450179 28.6708C0.450179 28.6708 1.5705 27.6415 1.96699 27.2891C2.3628 26.9408 4.03643 24.9646 4.07615 24.235C4.14462 23.044 5.19852 22.3452 5.66555 21.7857C5.8929 21.5039 6.41334 21.2241 6.58522 20.7997C6.76121 20.3835 6.58522 19.8253 6.58522 19.8253C5.86208 19.2658 6.58522 16.9523 6.58522 16.9523H6.85092C6.85092 16.9523 6.85092 17.5817 7.11319 17.9349C7.38026 18.2853 7.90549 19.4742 8.23762 19.1252C8.56837 18.7707 9.16003 19.1931 9.16003 19.1931C8.63274 18.4244 9.42299 16.5312 9.42299 16.5312H9.69006V16.7424C9.69006 16.9523 9.82086 17.7223 9.95371 18.0741C10.0852 18.4245 11.1425 20.1737 11.1425 20.1737C11.1425 20.1737 12.1683 20.7044 12.5641 21.0465C12.9593 21.3887 13.2975 21.2824 13.7803 21.1768C14.7726 20.9649 22.095 25.2416 25.4629 29.1336C27.2625 31.2078 28.7676 31.164 29.6907 31.2325C30.6166 31.3032 34.511 33.1943 34.511 33.1943C34.511 33.1943 38.8019 33.4761 42.7614 32.006C46.7215 30.5345 49.8243 29.2756 54.4453 31.094C54.4453 31.094 55.4998 31.5143 56.1627 31.6522C56.8235 31.7955 58.0753 32.2844 58.0753 32.2844C58.0753 32.2844 61.7082 31.7948 64.0166 36.9766C66.3236 42.1542 66.7893 47.4773 65.9292 51.7485C65.9292 51.7485 65.9292 50.8351 65.7334 50.3476C65.5361 49.8566 64.5452 53.6362 64.1501 54.2663V52.8662C64.1501 52.6557 63.1551 55.1756 62.962 55.9429C62.7641 56.7143 62.6977 57.3437 62.6977 57.3437C62.6977 57.3437 62.6319 55.0364 62.8956 54.4069C63.1551 53.7761 62.3005 55.5239 62.3005 55.2442C62.3005 54.9671 62.3656 53.2159 62.3656 52.7256C62.3656 52.2333 61.8376 53.006 61.904 49.7181C61.9718 46.4247 62.4984 43.9768 61.9718 41.6647C61.4397 39.358 61.6424 39.0049 61.6424 39.0049C61.6424 39.0049 61.5774 40.9646 61.376 41.3842C61.376 41.3842 60.7159 45.5841 59.5928 47.5445C58.4698 49.5056 56.9578 51.4667 57.4823 53.006C58.0082 54.5461 58.804 56.2946 58.804 56.8555C58.804 57.415 58.9341 57.5556 59.1347 57.978C59.3306 58.3942 60.0578 59.7985 59.5928 60.8476C59.1347 61.8981 59.1984 64.1396 59.1984 65.4678C59.1984 66.7974 59.2634 70.577 59.2634 70.8581C59.2634 71.1379 59.2634 71.4155 58.9964 71.5575C58.7396 71.7001 58.6033 72.0457 58.5383 72.2576C58.4698 72.4688 57.811 72.6073 57.811 73.0989C57.811 73.5864 58.2089 74.2214 58.2089 74.4299C58.2089 74.6383 57.6124 75.0566 57.6124 75.0566C57.6124 75.0566 54.5124 75.2685 54.5124 75.0566C54.5124 74.8454 55.6341 73.3053 55.6341 73.3053C55.6341 73.3053 55.6341 72.815 56.097 72.6066C56.5558 72.3975 56.7551 72.045 56.7551 71.2791C56.7551 70.5056 56.6243 70.363 56.8886 69.5971C57.1522 68.827 56.9578 62.8039 56.9578 62.8039L56.7551 62.5262C56.7551 62.5262 55.5697 66.7233 55.4998 67.4982C55.4355 68.2661 55.7018 69.3873 54.9732 70.2245C54.2446 71.0672 53.653 71.4155 53.653 71.4155C53.653 71.4155 53.3229 71.9086 53.5872 72.2576C53.8529 72.6073 54.1809 73.0989 53.983 73.306C53.7872 73.5179 53.3229 73.6571 53.3229 73.6571C53.3229 73.6571 51.1446 74.0781 50.4865 73.7976C50.4865 73.7976 50.946 72.6073 51.0768 72.3296C51.2103 72.045 51.3418 71.6281 51.8047 71.2112C52.2656 70.7868 52.7292 70.8574 52.7292 70.2245C52.7292 69.5978 53.0572 69.3873 53.5215 68.1983C53.983 67.0052 54.4453 63.0878 54.4453 62.5989C54.4453 62.1059 53.5215 59.7985 53.5215 58.0452V54.9664C53.5215 54.9664 52.7935 54.1964 52.3306 52.3018C51.8752 50.4155 50.0215 48.1753 49.562 47.7536C49.1018 47.3347 48.8348 47.4766 48.3082 47.5445C47.7795 47.6158 47.7795 47.3347 47.181 47.0563C46.59 46.7765 44.1467 48.1753 43.0928 48.9481C42.0519 49.7051 37.3132 51.2712 32.0718 51.8575C31.9814 51.8671 31.893 51.8753 31.8013 51.8842C26.4544 52.4431 29.2963 52.3011 29.0292 52.3011C29.0292 52.3011 29.5586 54.3363 29.7565 56.1541C29.9544 57.9766 30.3529 59.7224 30.3529 60.7749C30.3529 61.8289 30.2858 63.6466 30.481 63.9956C30.683 64.3467 31.4157 67.6367 31.4157 67.6367C31.4157 67.6367 32.46 68.6872 32.1991 69.1068C31.9341 69.5237 31.4219 69.5971 31.4157 70.2986C31.4055 70.9966 31.1589 72.1883 31.4157 72.3975C31.6725 72.6073 31.7533 72.8144 31.4157 72.8877C31.0768 72.9563 30.6166 73.3053 30.6166 73.3053C30.6166 73.3053 30.0215 74.0774 28.0438 73.6564C28.0438 73.6564 28.0438 73.0982 28.5718 72.5367C29.0984 71.9792 29.0984 71.9792 29.4928 71.7694C29.8887 71.5561 29.6908 71.2112 29.9544 70.5056C30.2194 69.8062 30.3529 69.3866 30.3529 69.3866C30.3529 69.3866 29.8236 68.897 29.8236 68.2655C29.8236 67.6367 28.7676 64.416 28.6355 64.0656C28.5033 63.7159 27.5789 62.315 27.1837 60.7057C26.7866 59.095 25.7963 56.0149 25.3985 55.1077C25.0054 54.1957 24.939 54.5461 24.939 55.2428C24.939 55.9429 24.1686 58.1165 24.5877 59.3062C25.0054 60.4959 24.9616 62.8039 24.5877 63.2935C24.2117 63.7872 24.2117 64.9076 24.2117 65.7449C24.2117 66.5855 24.437 68.6872 24.5877 69.1774C24.7404 69.6657 25.0931 70.0867 24.5877 70.5056C24.0789 70.9273 23.8844 71.2105 23.6817 71.4149C23.4865 71.6274 23.2215 72.8144 23.2215 73.0269C23.2215 73.2326 23.8166 73.5851 23.6201 73.727C23.4194 73.8662 22.8285 74.6376 22.8285 74.6376C22.8285 74.6376 20.8446 74.7768 19.7264 74.5663V74.2866C19.7264 74.2866 20.7912 72.6066 21.3459 72.2562C21.9006 71.9072 21.7684 71.5561 22.0341 71.1365C22.2957 70.7209 22.6251 69.665 22.6251 69.3859C22.6251 69.1061 22.6251 68.406 22.6922 68.1969C22.7613 67.9843 22.497 64.2768 22.497 64.2768C22.497 64.2768 21.7684 62.1045 21.8355 60.4952C21.9006 58.8859 21.9417 57.6736 21.3459 56.7822C19.1963 53.571 19.7907 50.2777 19.7907 50.2777Z" fill="white"/>
<path d="M62.7607 25.4033C68.5212 31.445 71.0391 38.4953 71.0391 47.508C71.0391 57.1605 66.9776 65.8558 60.4776 71.9914C60.4639 72.0092 60.4475 72.0257 60.4304 72.0401C80.6735 62.5693 98.806 42.8501 98.806 42.8501C86.8462 41.3032 73.0668 33.8339 62.7607 25.4033Z" fill="#FFCB00"/>
<path d="M121.059 0C122.111 8.86945 123.465 19.5663 118.357 35.3722L127.971 9.01002C129.912 3.41818 123.314 0.409359 121.059 0Z" fill="#00722C"/>
<path d="M120.387 10.4065C104.752 22.2203 58.6177 5.13624 39.2833 6.59951C21.4027 7.95169 14.2247 18.8199 14.2247 18.8199C14.2473 18.8021 14.2692 18.7884 14.2898 18.7713C20.2968 14.2327 27.7733 11.5386 35.8771 11.5386C45.0759 11.5386 52.4936 14.845 59.812 20.7056C62.9353 23.5677 66.2175 25.3484 69.2723 27.1916C94.6514 42.5134 105.459 40.566 105.459 40.566C86.3955 64.505 60.8309 73.709 60.8309 73.709C85.0157 77.7656 101.975 71.6581 101.977 71.6581L118.356 35.3719L118.397 35.2828C120.454 27.2101 121.495 16.167 120.387 10.4065Z" fill="#009035"/>
</svg>
