<svg width="14" height="4" viewBox="0 0 14 4" fill="none" xmlns="http://www.w3.org/2000/svg">
<path d="M0.496094 2.04297C0.496094 1.73698 0.590495 1.47982 0.779297 1.27148C0.974609 1.05664 1.25456 0.949219 1.61914 0.949219C1.98372 0.949219 2.26042 1.05664 2.44922 1.27148C2.64453 1.47982 2.74219 1.73698 2.74219 2.04297C2.74219 2.34245 2.64453 2.59635 2.44922 2.80469C2.26042 3.01302 1.98372 3.11719 1.61914 3.11719C1.25456 3.11719 0.974609 3.01302 0.779297 2.80469C0.590495 2.59635 0.496094 2.34245 0.496094 2.04297ZM5.76953 2.04297C5.76953 1.73698 5.86393 1.47982 6.05273 1.27148C6.24805 1.05664 6.52799 0.949219 6.89258 0.949219C7.25716 0.949219 7.53385 1.05664 7.72266 1.27148C7.91797 1.47982 8.01562 1.73698 8.01562 2.04297C8.01562 2.34245 7.91797 2.59635 7.72266 2.80469C7.53385 3.01302 7.25716 3.11719 6.89258 3.11719C6.52799 3.11719 6.24805 3.01302 6.05273 2.80469C5.86393 2.59635 5.76953 2.34245 5.76953 2.04297ZM11.043 2.04297C11.043 1.73698 11.1374 1.47982 11.3262 1.27148C11.5215 1.05664 11.8014 0.949219 12.166 0.949219C12.5306 0.949219 12.8073 1.05664 12.9961 1.27148C13.1914 1.47982 13.2891 1.73698 13.2891 2.04297C13.2891 2.34245 13.1914 2.59635 12.9961 2.80469C12.8073 3.01302 12.5306 3.11719 12.166 3.11719C11.8014 3.11719 11.5215 3.01302 11.3262 2.80469C11.1374 2.59635 11.043 2.34245 11.043 2.04297Z" fill="#333333"/>
</svg>
