<svg width="225" height="262" viewBox="0 0 225 262" fill="none" xmlns="http://www.w3.org/2000/svg">
<g filter="url(#filter0_d_900_4182)">
<path fill-rule="evenodd" clip-rule="evenodd" d="M63.9504 71.4853C60.4188 71.7411 57.2649 73.7898 55.5954 76.9124L27.8658 128.776C25.1785 133.803 27.0745 140.056 32.1008 142.743L141.31 201.133C146.337 203.82 152.59 201.924 155.277 196.898L183.007 145.034C184.676 141.912 184.628 138.151 182.88 135.072L159.866 94.549C158.117 91.47 158.07 87.7094 159.739 84.5868L172.02 61.618C175.061 55.93 175.439 42.0895 160.423 34.0609C145.407 26.0322 133.986 34.2612 131.066 39.7217L118.785 62.6906C117.116 65.8132 113.962 67.8618 110.43 68.1177L63.9504 71.4853ZM142.801 66.4733C149.083 69.8325 156.9 67.4624 160.259 61.1796C163.618 54.8968 161.248 47.0805 154.965 43.7213C148.683 40.3622 140.866 42.7322 137.507 49.015C134.148 55.2978 136.518 63.1141 142.801 66.4733Z" fill="url(#paint0_linear_900_4182)"/>
<circle cx="148.883" cy="55.097" r="12.3839" transform="rotate(28.1317 148.883 55.097)" stroke="#C99848" stroke-width="1.03199"/>
<g filter="url(#filter1_d_900_4182)">
<path d="M59.8579 80.4313C61.2807 77.7702 63.9858 76.0414 66.9983 75.868L111.823 73.2875C115.554 73.0728 118.904 70.9321 120.665 67.6369L132.886 44.7804C134.159 42.3994 137.014 39.1854 141.209 37.4746C145.354 35.7843 150.9 35.522 157.699 39.1569C164.504 42.7953 167.391 47.5041 168.299 51.859C169.218 56.265 168.135 60.4226 166.803 62.9143L154.582 85.7708C152.82 89.066 152.9 93.0405 154.794 96.262L177.542 134.972C179.071 137.573 179.136 140.783 177.713 143.444L152.441 190.711C150.186 194.929 144.938 196.521 140.72 194.265L38.1405 139.42C33.9221 137.165 32.3307 131.917 34.5862 127.698L59.8579 80.4313Z" stroke="#C99848" stroke-width="2.06399"/>
</g>
<path d="M59.8799 134.046L62.9127 135.668C64.9591 136.762 66.7104 136.404 67.6156 134.711C68.2998 133.431 67.9518 132.062 66.7344 131.197L66.7629 131.144C67.7785 131.472 69.0107 130.931 69.5453 129.931C70.3151 128.492 69.7151 126.937 68.0687 126.056L65.0225 124.428C64.6559 124.232 64.2943 124.347 64.0912 124.727L59.6114 133.106C59.4083 133.485 59.5133 133.85 59.8799 134.046ZM63.4057 128.894L65.0557 125.808L67.2287 126.97C68.3952 127.594 68.7669 128.47 68.2573 129.423C67.7013 130.463 66.6252 130.616 65.2054 129.857L63.4057 128.894ZM61.0464 133.307L62.8533 129.928L64.993 131.072C66.5261 131.891 67.0097 132.878 66.4145 133.992C65.8193 135.105 64.7458 135.285 63.2994 134.512L61.0464 133.307ZM67.5154 138.249C67.8154 138.409 68.0635 138.362 68.3479 138.102L70.4703 136.169L74.2764 138.204L73.8537 141.046C73.796 141.427 73.8944 141.659 74.1944 141.82C74.541 142.005 74.9119 141.92 75.0758 141.614C75.1222 141.527 75.1556 141.416 75.1807 141.241L76.5574 131.212C76.621 130.74 76.4773 130.432 76.1107 130.236C75.7174 130.026 75.371 130.081 75.0141 130.395L67.4486 137.107C67.3169 137.225 67.2434 137.315 67.1971 137.401C67.0331 137.708 67.1688 138.063 67.5154 138.249ZM71.3622 135.334L75.247 131.771L75.287 131.793L74.4817 137.002L71.3622 135.334ZM76.694 143.156C77.0606 143.352 77.4222 143.237 77.6253 142.857L82.2049 134.292C82.408 133.912 82.303 133.547 81.9364 133.351C81.5698 133.155 81.2082 133.27 81.0051 133.65L76.4255 142.215C76.2224 142.595 76.3274 142.96 76.694 143.156ZM79.4136 144.61C79.6335 144.728 79.7861 144.715 80.1015 144.558L84.5789 142.323L84.6255 142.348L85.23 147.326C85.2657 147.628 85.3593 147.789 85.5859 147.91C85.9192 148.088 86.331 147.991 86.495 147.685C86.5663 147.552 86.5909 147.393 86.5715 147.237L85.871 141.814L85.8924 141.774L90.9205 139.311C91.0851 139.228 91.1892 139.129 91.2569 139.003C91.4102 138.716 91.275 138.344 90.9483 138.169C90.7217 138.048 90.5621 138.074 90.2605 138.221L85.7519 140.482L85.7052 140.457L85.1137 135.504C85.0732 135.131 84.9893 134.983 84.756 134.858C84.4094 134.673 84.0042 134.774 83.8367 135.087C83.7654 135.22 83.7346 135.358 83.7598 135.551L84.4514 140.927L84.4264 140.973L79.4414 143.468C79.2871 143.548 79.1727 143.65 79.105 143.777C78.9517 144.063 79.087 144.435 79.4136 144.61ZM88.4754 149.335L93.3613 151.947C93.7012 152.129 94.0521 152.034 94.2232 151.714C94.3943 151.394 94.2786 151.049 93.9386 150.868L89.6526 148.576L91.4203 145.27L95.4663 147.433C95.7996 147.611 96.1505 147.516 96.318 147.203C96.4891 146.883 96.3698 146.545 96.0366 146.367L91.9905 144.203L93.6406 141.117L97.9266 143.409C98.2665 143.59 98.6174 143.495 98.7885 143.175C98.9596 142.855 98.8439 142.511 98.5039 142.329L93.618 139.717C93.2514 139.521 92.8898 139.636 92.6867 140.016L88.2069 148.394C88.0038 148.774 88.1088 149.139 88.4754 149.335ZM102.194 156.876C104.921 158.333 107.65 157.333 109.282 154.28C110.914 151.227 110.234 148.395 107.508 146.937C104.782 145.48 102.049 146.487 100.417 149.54C98.7846 152.593 99.4681 155.418 102.194 156.876ZM102.786 155.769C100.82 154.718 100.385 152.566 101.65 150.199C102.919 147.826 104.95 146.992 106.916 148.044C108.883 149.095 109.318 151.248 108.049 153.621C106.784 155.987 104.752 156.821 102.786 155.769ZM110.989 161.492C111.289 161.652 111.537 161.605 111.821 161.346L113.944 159.412L117.75 161.447L117.327 164.289C117.269 164.67 117.368 164.903 117.668 165.063C118.014 165.248 118.385 165.164 118.549 164.857C118.595 164.77 118.629 164.66 118.654 164.485L120.031 154.455C120.094 153.984 119.95 153.675 119.584 153.479C119.191 153.269 118.844 153.324 118.487 153.639L110.922 160.351C110.79 160.469 110.717 160.558 110.67 160.645C110.506 160.951 110.642 161.307 110.989 161.492ZM114.835 158.577L118.72 155.015L118.76 155.036L117.955 160.245L114.835 158.577ZM120.167 166.399C120.534 166.595 120.895 166.48 121.099 166.1L122.652 163.194L124.872 164.381C126.678 165.347 128.646 164.761 129.622 162.935C130.595 161.115 129.999 159.168 128.193 158.202L125.36 156.688C124.993 156.492 124.632 156.607 124.428 156.987L119.899 165.459C119.696 165.839 119.801 166.203 120.167 166.399ZM123.223 162.128L125.389 158.075L127.309 159.101C128.689 159.839 129.07 161.002 128.389 162.276C127.705 163.555 126.515 163.888 125.142 163.154L123.223 162.128ZM128.059 170.619C128.426 170.815 128.788 170.7 128.991 170.32L130.544 167.414L132.764 168.6C134.571 169.566 136.538 168.981 137.514 167.155C138.487 165.335 137.891 163.388 136.085 162.422L133.252 160.907C132.885 160.711 132.524 160.826 132.32 161.206L127.791 169.678C127.588 170.058 127.693 170.423 128.059 170.619ZM131.115 166.347L133.282 162.294L135.201 163.321C136.581 164.059 136.962 165.222 136.281 166.495C135.597 167.775 134.408 168.108 133.034 167.374L131.115 166.347Z" fill="#512940"/>
<path d="M151.886 152.07L151.345 151.78L151.508 151.464L152.012 151.733C152.082 151.769 152.153 151.791 152.225 151.8C152.298 151.81 152.365 151.803 152.424 151.781C152.486 151.757 152.533 151.713 152.568 151.649C152.611 151.567 152.632 151.495 152.629 151.433C152.626 151.37 152.597 151.311 152.543 151.254C152.489 151.198 152.406 151.14 152.294 151.08L151.956 150.9L151.011 152.668L150.66 152.481L151.772 150.401L152.46 150.769C152.624 150.856 152.754 150.955 152.848 151.064C152.943 151.174 152.998 151.293 153.012 151.42C153.028 151.546 152.998 151.68 152.923 151.82C152.876 151.909 152.813 151.977 152.734 152.025C152.655 152.073 152.562 152.101 152.455 152.11C152.349 152.118 152.23 152.107 152.099 152.077C152.094 152.074 152.086 152.077 152.073 152.085C152.063 152.092 152.055 152.094 152.05 152.092C152.013 152.093 151.988 152.095 151.976 152.099C151.966 152.102 151.956 152.102 151.947 152.099C151.939 152.097 151.919 152.088 151.886 152.07ZM151.861 152.057L152.029 151.863C152.285 152 152.431 152.147 152.466 152.305C152.504 152.461 152.479 152.621 152.391 152.785L152.321 152.917C152.288 152.978 152.261 153.038 152.237 153.097C152.215 153.154 152.202 153.206 152.196 153.251L152.175 153.291L151.815 153.098C151.821 153.047 151.844 152.981 151.883 152.901C151.923 152.821 151.953 152.764 151.972 152.728L152.04 152.6C152.104 152.481 152.122 152.378 152.096 152.293C152.072 152.206 151.994 152.127 151.861 152.057ZM150.441 151.064C150.325 151.281 150.254 151.504 150.23 151.733C150.206 151.962 150.224 152.183 150.284 152.396C150.345 152.609 150.443 152.803 150.58 152.977C150.717 153.151 150.887 153.293 151.091 153.401C151.295 153.51 151.506 153.573 151.725 153.589C151.946 153.606 152.161 153.58 152.37 153.511C152.581 153.444 152.775 153.336 152.952 153.188C153.128 153.041 153.275 152.859 153.391 152.641C153.508 152.422 153.578 152.199 153.602 151.972C153.626 151.745 153.607 151.525 153.545 151.314C153.486 151.102 153.388 150.909 153.25 150.737C153.115 150.564 152.946 150.423 152.742 150.314C152.538 150.205 152.326 150.142 152.105 150.125C151.885 150.106 151.67 150.131 151.459 150.198C151.249 150.265 151.056 150.371 150.88 150.517C150.704 150.662 150.558 150.845 150.441 151.064ZM150.155 150.911C150.294 150.651 150.469 150.434 150.679 150.261C150.889 150.087 151.119 149.961 151.369 149.883C151.621 149.803 151.877 149.773 152.138 149.795C152.401 149.816 152.655 149.892 152.898 150.022C153.141 150.152 153.344 150.32 153.506 150.527C153.671 150.732 153.789 150.962 153.86 151.214C153.934 151.466 153.957 151.728 153.929 151.999C153.902 152.27 153.818 152.535 153.679 152.795C153.54 153.055 153.366 153.272 153.156 153.446C152.946 153.62 152.715 153.747 152.462 153.829C152.213 153.91 151.956 153.94 151.693 153.919C151.431 153.899 151.178 153.824 150.935 153.693C150.692 153.563 150.488 153.394 150.324 153.187C150.162 152.981 150.045 152.751 149.971 152.497C149.899 152.242 149.877 151.979 149.905 151.708C149.933 151.437 150.016 151.171 150.155 150.911Z" fill="#512940"/>
<path d="M110.261 122.367C108.516 120.945 107.063 119.212 105.984 117.267C104.379 114.38 103.65 111.133 103.886 107.919C103.966 106.832 104.158 105.758 104.457 104.716C105.079 102.561 106.144 100.568 107.591 98.855C108.984 97.2084 110.708 95.8582 112.663 94.8814C115.566 93.4277 118.872 92.8424 122.181 93.1966C123.301 93.3175 124.411 93.5459 125.493 93.8783C127.73 94.5676 129.818 95.684 131.633 97.1611C133.378 98.5838 134.831 100.317 135.91 102.261C137.515 105.148 138.244 108.395 138.008 111.608C137.927 112.696 137.736 113.769 137.436 114.812C137.195 115.65 136.886 116.466 136.511 117.252L136.508 117.251C136.469 117.354 136.423 117.454 136.371 117.551C136.022 118.203 135.416 118.684 134.685 118.887C133.955 119.09 133.161 118.998 132.477 118.633L123.291 113.721C122.607 113.356 122.09 112.746 121.853 112.026C121.617 111.306 121.68 110.535 122.029 109.882C122.378 109.23 122.984 108.749 123.714 108.546C124.444 108.343 125.238 108.434 125.922 108.8L132.483 112.308C132.706 111.165 132.744 109.989 132.597 108.82C132.32 106.61 131.393 104.5 129.93 102.746C129.434 102.153 128.881 101.607 128.279 101.116C127.033 100.103 125.6 99.3368 124.066 98.8638C122.589 98.4105 121.047 98.2417 119.526 98.3667C117.267 98.5518 115.136 99.3735 113.392 100.733C112.802 101.193 112.263 101.711 111.782 102.28C110.789 103.455 110.058 104.823 109.632 106.301C109.223 107.723 109.109 109.221 109.297 110.709C109.574 112.919 110.501 115.029 111.965 116.782C112.461 117.375 113.014 117.921 113.616 118.412C114.978 119.525 116.566 120.338 118.264 120.79C119.963 121.243 121.729 121.324 123.434 121.027C123.877 120.95 124.314 120.849 124.743 120.723L124.74 120.737C125.454 120.585 126.21 120.707 126.856 121.077C127.502 121.447 127.988 122.037 128.215 122.728L129.741 127.368C129.858 127.724 129.902 128.097 129.872 128.465C129.842 128.833 129.738 129.188 129.565 129.512C129.392 129.835 129.154 130.119 128.865 130.348C128.576 130.578 128.241 130.747 127.879 130.848C127.517 130.948 127.136 130.977 126.758 130.934C126.379 130.89 126.009 130.774 125.671 130.593C125.332 130.412 125.031 130.169 124.785 129.878C124.538 129.587 124.351 129.254 124.234 128.898L123.392 126.339C123.267 126.353 123.142 126.365 123.017 126.374C120.757 126.555 118.465 126.294 116.275 125.606C114.085 124.918 112.041 123.817 110.261 122.367Z" fill="#512940"/>
<path d="M69.6751 120.007C71.7895 121.138 73.9076 121.254 75.3479 120.304C75.6107 120.132 75.8122 119.927 75.9368 119.694C76.2997 119.015 75.9955 118.331 75.352 117.987C74.9638 117.78 74.6387 117.749 74.1487 117.904C72.8379 118.415 71.928 118.397 70.835 117.813C69.3233 117.005 68.9061 115.427 69.7674 113.816L69.8378 113.684L76.089 117.026C76.9164 117.469 77.6354 117.254 78.0742 116.433C79.6506 113.485 78.6935 110.264 75.5884 108.603C72.3504 106.872 69.111 107.993 67.2422 111.489C65.3624 115.004 66.2533 118.178 69.6751 120.007ZM70.8382 111.887C71.6824 110.554 73.1416 110.109 74.449 110.808C75.7564 111.507 76.1827 112.921 75.4857 114.372L70.8382 111.887Z" fill="#512940"/>
<path d="M82.1169 126.672C83.0465 127.169 83.9749 127.497 84.9022 127.653L85.1131 129.421C85.1702 130.051 85.3996 130.408 85.9002 130.675C86.6357 131.069 87.4112 130.871 87.7688 130.202C87.9367 129.888 87.9795 129.612 87.9432 129.188L87.755 127.55C89.9433 127.118 91.8757 125.493 93.2516 122.92C95.7381 118.269 94.5607 113.888 90.1992 111.556C85.8274 109.218 81.5299 110.673 79.0434 115.323C76.5353 120.014 77.7452 124.335 82.1169 126.672ZM83.4658 124.15C81.0449 122.855 80.5535 120.065 82.1895 117.005C83.8308 113.935 86.4295 112.784 88.8503 114.079C91.2609 115.367 91.747 118.168 90.1056 121.238C89.3527 122.646 88.3468 123.594 87.24 124.018L87.0486 122.73C86.9828 122.239 86.7679 121.928 86.339 121.699C85.6749 121.344 84.9354 121.548 84.5833 122.207C84.4479 122.46 84.3888 122.767 84.4305 123.18L84.5937 124.57C84.2181 124.487 83.8436 124.352 83.4658 124.15Z" fill="#512940"/>
<path d="M93.8299 132.883C95.4847 133.768 96.9899 133.556 98.2627 132.478L98.3239 132.511L97.9663 133.18C97.4408 134.162 97.7467 134.99 98.6047 135.449C99.4627 135.908 100.321 135.702 100.847 134.72L105.256 126.472C105.798 125.459 105.472 124.595 104.594 124.125C103.726 123.661 102.815 123.864 102.274 124.878L99.6573 129.771C98.8881 131.21 97.5568 131.71 96.229 131C94.9114 130.296 94.5979 129.138 95.3725 127.689L98.0756 122.633C98.6174 121.62 98.2916 120.755 97.4131 120.286C96.5449 119.821 95.6348 120.025 95.093 121.039L92.0595 126.712C90.7052 129.245 91.4602 131.616 93.8299 132.883Z" fill="#512940"/>
<path d="M105.965 139.409C108.079 140.54 110.197 140.656 111.637 139.706C111.9 139.534 112.102 139.329 112.226 139.096C112.589 138.418 112.285 137.734 111.641 137.39C111.253 137.182 110.928 137.152 110.438 137.306C109.127 137.817 108.217 137.8 107.125 137.215C105.613 136.407 105.196 134.829 106.057 133.218L106.127 133.087L112.379 136.429C113.206 136.871 113.925 136.656 114.364 135.836C115.94 132.887 114.983 129.666 111.878 128.006C108.64 126.274 105.401 127.396 103.532 130.891C101.652 134.407 102.543 137.58 105.965 139.409ZM107.128 131.289C107.972 129.956 109.431 129.511 110.738 130.21C112.046 130.909 112.472 132.323 111.775 133.774L107.128 131.289Z" fill="#512940"/>
<path d="M115.971 144.759C118.861 146.305 121.56 145.95 122.713 143.792C123.58 142.171 123.075 140.806 121.006 139.075L119.404 137.723C118.436 136.906 118.207 136.302 118.511 135.734C118.884 135.035 119.844 134.936 120.855 135.476C121.928 136.05 122.249 136.873 122.418 137.81C122.516 138.266 122.869 138.638 123.257 138.845C124.023 139.255 124.623 139.041 124.943 138.443C125.018 138.302 125.064 138.143 125.104 137.97C125.402 136.552 124.284 134.639 122.017 133.427C119.177 131.908 116.654 132.279 115.544 134.356C114.682 135.967 115.185 137.63 117.087 139.233L118.719 140.601C119.667 141.407 119.877 141.923 119.563 142.511C119.178 143.23 118.235 143.3 117.153 142.721C116.019 142.114 115.529 141.409 115.353 140.338C115.188 139.664 114.893 139.233 114.413 138.976C113.719 138.605 112.964 138.788 112.601 139.466C112.515 139.629 112.452 139.843 112.421 140.074C112.259 141.629 113.458 143.416 115.971 144.759Z" fill="#512940"/>
<path d="M123.653 144.998C122.629 146.913 123.115 148.436 125.107 149.501L125.209 149.556C126.465 150.227 127.561 150.241 128.027 149.369C128.396 148.68 128.16 148.163 127.468 147.689L127.285 147.565C126.668 147.17 126.576 146.704 126.988 145.934L129.767 140.736L130.819 141.299C131.523 141.676 132.195 141.475 132.558 140.796C132.921 140.117 132.715 139.447 132.01 139.07L130.958 138.508L131.603 137.302C132.112 136.35 131.864 135.461 130.935 134.964C130.005 134.467 129.13 134.755 128.62 135.707L127.976 136.913L127.404 136.607C126.699 136.23 126.022 136.415 125.654 137.104C125.285 137.793 125.507 138.459 126.212 138.836L126.784 139.142L123.653 144.998Z" fill="#512940"/>
<path d="M132.51 153.603C134.624 154.733 136.742 154.849 138.182 153.9C138.445 153.728 138.647 153.523 138.771 153.29C139.134 152.611 138.83 151.927 138.186 151.583C137.798 151.375 137.473 151.345 136.983 151.5C135.673 152.011 134.762 151.993 133.67 151.409C132.158 150.601 131.741 149.023 132.602 147.412L132.672 147.28L138.924 150.622C139.751 151.065 140.47 150.85 140.909 150.029C142.485 147.081 141.528 143.859 138.423 142.199C135.185 140.468 131.946 141.589 130.077 145.084C128.197 148.6 129.088 151.773 132.51 153.603ZM133.673 145.483C134.517 144.149 135.976 143.705 137.284 144.404C138.591 145.103 139.017 146.516 138.32 147.967L133.673 145.483Z" fill="#512940"/>
<path d="M139.554 157.342C140.463 157.828 141.343 157.582 141.869 156.6L144.447 151.777C145.135 150.49 146.022 149.987 147.391 150.693C147.979 150.994 148.478 151.092 148.894 151.002C149.31 150.911 149.643 150.633 149.892 150.167C150.163 149.66 150.215 149.219 150.048 148.844C149.931 148.547 149.663 148.286 149.265 148.073C148.172 147.489 146.845 147.808 145.838 149.003L145.777 148.97L146.156 148.261C146.66 147.319 146.381 146.466 145.543 146.018C144.685 145.559 143.81 145.795 143.307 146.738L138.886 155.005C138.361 155.988 138.655 156.862 139.554 157.342Z" fill="#512940"/>
</g>
<defs>
<filter id="filter0_d_900_4182" x="-2.79982" y="0" width="252.728" height="265.339" filterUnits="userSpaceOnUse" color-interpolation-filters="sRGB">
<feFlood flood-opacity="0" result="BackgroundImageFix"/>
<feColorMatrix in="SourceAlpha" type="matrix" values="0 0 0 0 0 0 0 0 0 0 0 0 0 0 0 0 0 0 127 0" result="hardAlpha"/>
<feOffset dy="33.5398"/>
<feGaussianBlur stdDeviation="12.8999"/>
<feComposite in2="hardAlpha" operator="out"/>
<feColorMatrix type="matrix" values="0 0 0 0 0 0 0 0 0 0 0 0 0 0 0 0 0 0 0.25 0"/>
<feBlend mode="normal" in2="BackgroundImageFix" result="effect1_dropShadow_900_4182"/>
<feBlend mode="normal" in="SourceGraphic" in2="effect1_dropShadow_900_4182" result="shape"/>
</filter>
<filter id="filter1_d_900_4182" x="32.5291" y="35.251" width="148.013" height="163.135" filterUnits="userSpaceOnUse" color-interpolation-filters="sRGB">
<feFlood flood-opacity="0" result="BackgroundImageFix"/>
<feColorMatrix in="SourceAlpha" type="matrix" values="0 0 0 0 0 0 0 0 0 0 0 0 0 0 0 0 0 0 127 0" result="hardAlpha"/>
<feOffset dx="0.515996" dy="1.80599"/>
<feGaussianBlur stdDeviation="0.128999"/>
<feColorMatrix type="matrix" values="0 0 0 0 1 0 0 0 0 0.888527 0 0 0 0 0.704167 0 0 0 1 0"/>
<feBlend mode="normal" in2="BackgroundImageFix" result="effect1_dropShadow_900_4182"/>
<feBlend mode="normal" in="SourceGraphic" in2="effect1_dropShadow_900_4182" result="shape"/>
</filter>
<linearGradient id="paint0_linear_900_4182" x1="122.868" y1="86.244" x2="139.479" y2="166.802" gradientUnits="userSpaceOnUse">
<stop offset="0.515525" stop-color="#FFCF81"/>
<stop offset="0.515625" stop-color="#FDC973"/>
</linearGradient>
</defs>
</svg>
