<svg width="184" height="108" viewBox="0 0 184 108" fill="none" xmlns="http://www.w3.org/2000/svg">
<path d="M51.0181 32.5857L55.9983 30.1334L59.776 34.2124L58.9885 28.7003L64.0216 26.3659L58.557 25.4135L57.895 19.8926L55.3019 24.807L49.8579 23.7387L53.722 27.7243L51.0181 32.5857Z" fill="black"/>
<path d="M38.1686 33.6423L41.5698 29.752L46.2685 31.8917L43.6254 27.451L47.1011 23.6315L42.0719 24.7736L39.5249 20.2759L39.062 25.4302L34.0005 26.472L38.7482 28.4988L38.1686 33.6423Z" fill="black"/>
<path d="M72.1194 38.8569L69.851 34.2127L64.7561 35.0462L68.4662 31.4517L66.1056 26.8557L70.665 29.2737L74.2966 25.6035L73.3993 30.6959L78.0126 33.0273L72.903 33.7409L72.1194 38.8569Z" fill="black"/>
<path d="M28.3435 72.0699C25.4111 70.3665 25.6936 67.9545 25.4111 66.8026C25.1257 65.6604 24.2784 59.823 24.2784 58.1216C24.2784 56.4183 22.7661 54.5075 21.7236 52.3C20.682 50.0904 17.9389 44.2717 17.7565 43.8697C17.5614 43.4706 16.3384 42.4661 14.3504 43.3684C12.3635 44.2707 10.096 43.5719 9.52623 43.8697C8.95838 44.1695 6.88414 44.8722 5.93578 44.9754C4.98937 45.0747 5.0845 46.2788 4.42251 46.6808C3.7615 47.0847 1.86966 45.974 1.86966 45.974C1.86966 45.974 0.925219 45.4807 0.736919 45.0747C0.549599 44.6727 0.549598 44.1095 0.166133 42.9703C-0.394845 41.263 0.644728 41.0979 0.644728 41.0979C0.644728 41.0979 2.24921 39.6226 2.81705 39.1174C3.38391 38.6181 5.78081 35.7854 5.8377 34.7396C5.93577 33.0323 7.44512 32.0307 8.11398 31.2287C8.43958 30.8247 9.18493 30.4237 9.43109 29.8153C9.68314 29.2187 9.43109 28.4186 9.43109 28.4186C8.39544 27.6165 9.43109 24.3003 9.43109 24.3003H9.81162C9.81162 24.3003 9.81161 25.2026 10.1872 25.7088C10.5697 26.211 11.3219 27.9153 11.7976 27.4151C12.2713 26.9069 13.1186 27.5124 13.1186 27.5124C12.3635 26.4105 13.4952 23.6968 13.4952 23.6968H13.8777V23.9995C13.8777 24.3003 14.0651 25.4041 14.2553 25.9083C14.4436 26.4105 15.9579 28.9179 15.9579 28.9179C15.9579 28.9179 17.427 29.6787 17.9939 30.1691C18.5597 30.6596 19.0442 30.5072 19.7356 30.3559C21.1567 30.0522 31.6437 36.1825 36.4669 41.7614C39.0443 44.7346 41.1999 44.6717 42.5219 44.77C43.8479 44.8713 49.4253 47.5821 49.4253 47.5821C49.4253 47.5821 55.5706 47.986 61.2411 45.8787C66.9127 43.7694 71.3564 41.9649 77.9744 44.5715C77.9744 44.5715 79.4847 45.174 80.434 45.3716C81.3804 45.577 83.1732 46.2778 83.1732 46.2778C83.1732 46.2778 88.376 45.576 91.682 53.0037C94.9861 60.4255 95.653 68.0557 94.4212 74.1782C94.4212 74.1782 94.4212 72.869 94.1407 72.1701C93.8583 71.4664 92.4392 76.8841 91.8733 77.7874V75.7803C91.8733 75.4786 90.4483 79.0907 90.1717 80.1906C89.8883 81.2963 89.7931 82.1986 89.7931 82.1986C89.7931 82.1986 89.699 78.8912 90.0766 77.9889C90.4483 77.0846 89.2243 79.59 89.2243 79.189C89.2243 78.7919 89.3175 76.2816 89.3175 75.5788C89.3175 74.8731 88.5614 75.9808 88.6565 71.2678C88.7536 66.547 89.5078 63.0381 88.7536 59.7238C87.9915 56.4173 88.2819 55.9111 88.2819 55.9111C88.2819 55.9111 88.1887 58.7202 87.9003 59.3218C87.9003 59.3218 86.9549 65.342 85.3465 68.1521C83.7381 70.9632 81.5727 73.7742 82.3239 75.9808C83.0771 78.1884 84.2167 80.6948 84.2167 81.4988C84.2167 82.3008 84.4031 82.5023 84.6904 83.1078C84.9709 83.7044 86.0124 85.7174 85.3465 87.2212C84.6904 88.727 84.7816 91.9401 84.7816 93.8439C84.7816 95.7498 84.8748 101.167 84.8748 101.57C84.8748 101.972 84.8748 102.37 84.4923 102.573C84.1245 102.777 83.9294 103.273 83.8362 103.577C83.7381 103.879 82.7947 104.078 82.7947 104.783C82.7947 105.481 83.3645 106.392 83.3645 106.69C83.3645 106.989 82.5102 107.589 82.5102 107.589C82.5102 107.589 78.0705 107.892 78.0705 107.589C78.0705 107.286 79.6769 105.078 79.6769 105.078C79.6769 105.078 79.6769 104.376 80.3399 104.077C80.997 103.777 81.2824 103.272 81.2824 102.174C81.2824 101.065 81.0951 100.861 81.4736 99.7629C81.8512 98.6591 81.5727 90.0254 81.5727 90.0254L81.2824 89.6273C81.2824 89.6273 79.5847 95.6436 79.4847 96.7543C79.3925 97.8551 79.774 99.4622 78.7305 100.662C77.687 101.87 76.8397 102.37 76.8397 102.37C76.8397 102.37 76.367 103.076 76.7455 103.577C77.126 104.078 77.5958 104.783 77.3124 105.079C77.0319 105.383 76.367 105.583 76.367 105.583C76.367 105.583 73.2473 106.186 72.3048 105.784C72.3048 105.784 72.9628 104.078 73.1502 103.68C73.3414 103.272 73.5297 102.674 74.1927 102.077C74.8527 101.468 75.5167 101.569 75.5167 100.662C75.5167 99.7639 75.9864 99.4622 76.6514 97.7578C77.3124 96.0476 77.9744 90.4323 77.9744 89.7315C77.9744 89.0248 76.6514 85.7174 76.6514 83.2041V78.7909C76.6514 78.7909 75.6088 77.6871 74.9459 74.9714C74.2937 72.2675 71.6388 69.0563 70.9808 68.4519C70.3217 67.8513 69.9392 68.0548 69.1851 68.1521C68.4279 68.2543 68.4279 67.8513 67.5708 67.4523C66.7244 67.0512 63.2252 69.0564 61.7158 70.1641C60.2251 71.2492 53.4384 73.4941 45.9319 74.3345C45.8025 74.3482 45.676 74.36 45.5445 74.3728C37.887 75.1739 41.957 74.9704 41.5746 74.9704C41.5746 74.9704 42.3327 77.8877 42.6161 80.4933C42.8995 83.1058 43.4703 85.6083 43.4703 87.117C43.4703 88.6277 43.3742 91.2334 43.6537 91.7337C43.943 92.2369 44.9924 96.9529 44.9924 96.9529C44.9924 96.9529 46.488 98.4586 46.1144 99.0602C45.7348 99.6578 45.0012 99.7629 44.9924 100.768C44.9777 101.769 44.6246 103.477 44.9924 103.777C45.3602 104.078 45.4759 104.375 44.9924 104.48C44.5069 104.578 43.8479 105.078 43.8479 105.078C43.8479 105.078 42.9956 106.185 40.1633 105.582C40.1633 105.582 40.1633 104.782 40.9194 103.977C41.6736 103.178 41.6736 103.177 42.2385 102.877C42.8054 102.571 42.5219 102.077 42.8995 101.065C43.2791 100.063 43.4703 99.4612 43.4703 99.4612C43.4703 99.4612 42.7122 98.7594 42.7122 97.8542C42.7122 96.9528 41.1999 92.3362 41.0106 91.8339C40.8213 91.3327 39.4974 89.3246 38.9315 87.0178C38.3627 84.7089 36.9445 80.2938 36.3747 78.9934C35.8118 77.6862 35.7166 78.1884 35.7166 79.187C35.7166 80.1906 34.6133 83.3063 35.2135 85.0117C35.8118 86.717 35.749 90.0254 35.2135 90.7272C34.6751 91.4349 34.6751 93.0409 34.6751 94.241C34.6751 95.4461 34.9978 98.4586 35.2135 99.1614C35.4322 99.8612 35.9373 100.465 35.2135 101.065C34.4848 101.67 34.2063 102.076 33.916 102.369C33.6365 102.673 33.257 104.375 33.257 104.679C33.257 104.974 34.1092 105.479 33.8278 105.683C33.5404 105.882 32.694 106.988 32.694 106.988C32.694 106.988 29.8529 107.188 28.2513 106.886V106.485C28.2513 106.485 29.7764 104.077 30.5708 103.575C31.3651 103.074 31.1759 102.571 31.5564 101.97C31.931 101.374 32.4028 99.8602 32.4028 99.4602C32.4028 99.0592 32.4027 98.0556 32.4989 97.7559C32.5979 97.4512 32.2194 92.1366 32.2194 92.1366C32.2194 92.1366 31.1759 89.0229 31.272 86.716C31.3651 84.4092 31.424 82.6714 30.5708 81.3936C27.4922 76.7907 28.3435 72.0699 28.3435 72.0699Z" fill="black"/>
<path d="M89.8833 36.4141C98.1332 45.0743 101.739 55.1805 101.739 68.0996C101.739 81.9358 95.9227 94.3999 86.6136 103.195C86.594 103.22 86.5704 103.244 86.5459 103.265C115.537 89.6889 141.506 61.4228 141.506 61.4228C124.378 59.2054 104.643 48.4987 89.8833 36.4141Z" fill="#FFCB00"/>
<path d="M173.376 0C174.882 12.7137 176.821 28.0469 169.506 50.7036L183.275 12.9152C186.055 4.89973 176.605 0.586788 173.376 0Z" fill="#00722C"/>
<path d="M172.414 14.9172C150.022 31.8515 83.9499 7.36268 56.26 9.46018C30.6521 11.3984 20.3721 26.9773 20.3721 26.9773C20.4044 26.9518 20.4358 26.9321 20.4652 26.9075C29.0682 20.4018 39.7758 16.54 51.3818 16.54C64.556 16.54 75.1792 21.2795 85.6603 29.6803C90.1334 33.7829 94.8341 36.3355 99.2091 38.9775C135.556 60.9402 151.034 58.1488 151.034 58.1488C123.732 92.4636 87.1196 105.657 87.1196 105.657C121.756 111.472 146.044 102.717 146.047 102.717L169.505 50.7034L169.564 50.5756C172.51 39.004 174.001 23.1745 172.414 14.9172Z" fill="#009035"/>
</svg>
